<svg width="265" height="146" viewBox="0 0 265 146" fill="none" xmlns="http://www.w3.org/2000/svg">
<path d="M14.4729 133.052C8.8259 137.875 7.65382 145.786 7.65382 145.786C7.65382 145.786 15.6373 145.877 21.2843 141.053C26.9313 136.23 28.1034 128.319 28.1034 128.319C28.1034 128.319 20.1199 128.228 14.4729 133.052Z" fill="#F2F2F2"/>
<path d="M17.0823 134.971C14.6769 142.003 7.76134 146 7.76134 146C7.76134 146 4.74575 138.595 7.15115 131.562C9.55656 124.53 16.4721 120.533 16.4721 120.533C16.4721 120.533 19.4877 127.938 17.0823 134.971Z" fill="#F2F2F2"/>
<path d="M76.0256 30.9245C74.7478 29.2661 72.9421 27.7316 72.8277 25.6851C72.7229 23.8082 74.1201 21.9446 73.5309 20.1489C73.0777 18.7682 71.583 17.9351 70.1224 17.4939C67.3261 16.6614 64.3336 16.7768 61.6095 17.8222L61.7573 17.7178C60.0947 17.1245 58.1512 17.7369 56.843 18.8713C55.5348 20.0057 54.7573 21.5781 54.1541 23.1537C53.5508 24.7294 53.0834 26.3628 52.2452 27.84C51.4069 29.3172 50.1235 30.6606 48.4301 31.1711C48.997 32.3038 50.7691 32.6924 51.8085 31.9119C52.074 31.6959 52.3126 31.4488 52.5193 31.1758C53.2125 30.3314 53.9057 29.4871 54.5989 28.6428C55.3122 29.9135 54.2466 31.6673 55.1234 32.8437C55.5754 33.4504 56.4011 33.6808 57.168 33.846C63.1615 35.127 69.3789 34.896 75.2613 33.1738C75.734 33.0342 76.2556 32.842 76.4518 32.4134C76.6782 31.9185 76.3615 31.3606 76.0256 30.9245Z" fill="#2F2E41"/>
<path d="M93.0199 37.3965C92.9825 37.5614 92.9581 37.7289 92.947 37.8975L79.8469 45.4678L76.6627 43.6317L73.2682 48.0831L78.5898 51.8825C79.0197 52.1894 79.5374 52.3484 80.0652 52.3355C80.5929 52.3226 81.1023 52.1386 81.5168 51.811L95.0252 41.136C95.6349 41.362 96.2988 41.3968 96.9286 41.2357C97.5584 41.0745 98.1244 40.7251 98.5512 40.2339C98.9779 39.7428 99.2453 39.1331 99.3177 38.486C99.3901 37.8388 99.2641 37.185 98.9565 36.6113C98.6489 36.0377 98.1742 35.5715 97.5956 35.2746C97.017 34.9778 96.3619 34.8645 95.7175 34.9498C95.073 35.035 94.4697 35.3148 93.9878 35.7518C93.506 36.1889 93.1684 36.7626 93.0199 37.3965Z" fill="#FFB7B7"/>
<path d="M79.4089 45.8264L75.175 51.3231C75.0545 51.4795 74.9018 51.6081 74.7273 51.7C74.5528 51.792 74.3605 51.8452 74.1636 51.856C73.9667 51.8668 73.7698 51.8349 73.5862 51.7626C73.4027 51.6903 73.2369 51.5793 73.1001 51.437L68.307 46.4512C67.5106 45.8297 66.9929 44.917 66.8676 43.9135C66.7424 42.9099 67.0197 41.8976 67.6388 41.0987C68.2579 40.2999 69.1681 39.7797 70.1697 39.6524C71.1713 39.5251 72.1824 39.8012 72.981 40.4199L78.9926 43.7871C79.1647 43.8835 79.314 44.016 79.4303 44.1755C79.5467 44.335 79.6274 44.5177 79.6669 44.7112C79.7064 44.9048 79.7038 45.1046 79.6593 45.297C79.6148 45.4894 79.5294 45.67 79.4089 45.8264Z" fill="white"/>
<path d="M73.582 141.6L77.3208 141.6L79.0993 127.155L73.5814 127.155L73.582 141.6Z" fill="#FFB7B7"/>
<path d="M72.6283 140.377L79.9911 140.377C81.2355 140.377 82.4292 140.872 83.3092 141.754C84.1891 142.635 84.6835 143.831 84.6836 145.077V145.23L72.6285 145.23L72.6283 140.377Z" fill="#2F2E41"/>
<path d="M47.9658 141.6L51.7045 141.6L53.483 127.155L47.9652 127.155L47.9658 141.6Z" fill="#FFB7B7"/>
<path d="M47.012 140.377L54.3749 140.377C55.6193 140.377 56.813 140.872 57.693 141.754C58.5729 142.635 59.0673 143.831 59.0674 145.077V145.23L47.0123 145.23L47.012 140.377Z" fill="#2F2E41"/>
<path d="M71.3367 28.8824C71.7261 25.3292 69.1662 22.1325 65.619 21.7425C62.0718 21.3524 58.8806 23.9167 58.4912 27.4699C58.1018 31.0232 60.6617 34.2198 64.2089 34.6099C67.7561 34.9999 70.9473 32.4357 71.3367 28.8824Z" fill="#FFB7B7"/>
<path d="M68.6946 37.879L72.5011 39.768C72.5011 39.768 76.7542 47.1718 74.3145 54.1977C73.13 57.6089 76.4655 68.4826 76.4655 68.4826C76.4655 68.4826 81.6334 117.737 81.6498 132.938C75.2294 133.927 69.1303 135.149 68.8253 132.094C68.5204 129.039 65.1822 92.9207 65.1822 92.9207C65.1822 92.9207 60.5915 133.01 56.9321 133.621C53.2726 134.232 45.9537 133.316 45.9537 133.316C45.9537 133.316 51.7642 74.5921 55.7286 70.9264L56.3385 67.8717L56.3222 40.4513L60.8897 38.2679L68.6946 37.879Z" fill="#2F2E41"/>
<path d="M55.0774 79.5062C55.4987 79.2779 55.8648 78.9598 56.15 78.5745C56.4353 78.1891 56.6327 77.7457 56.7284 77.2756C56.8241 76.8056 56.8157 76.3202 56.7039 75.8537C56.592 75.3872 56.3795 74.951 56.0811 74.5757L60.508 45.0173L54.7243 44.7392L51.2734 74.1752C50.6773 74.7191 50.301 75.4631 50.2159 76.2663C50.1307 77.0695 50.3427 77.8761 50.8116 78.5332C51.2805 79.1903 51.9737 79.6523 52.76 79.8316C53.5462 80.011 54.3708 79.8952 55.0774 79.5062Z" fill="#FFB7B7"/>
<path d="M60.3824 52.4235L53.4653 51.9861C53.2685 51.9736 53.0766 51.9188 52.9029 51.8254C52.7291 51.732 52.5775 51.6022 52.4583 51.4448C52.3391 51.2874 52.2553 51.1061 52.2123 50.9133C52.1694 50.7205 52.1685 50.5207 52.2096 50.3275L53.6509 43.5581C53.72 42.5497 54.1855 41.6098 54.9454 40.9447C55.7053 40.2796 56.6975 39.9435 57.7044 40.0102C58.7113 40.0768 59.6507 40.5408 60.3166 41.3002C60.9825 42.0597 61.3206 43.0527 61.2566 44.0615L61.8363 50.9363C61.8528 51.1332 61.8268 51.3313 61.7601 51.5172C61.6933 51.703 61.5873 51.8723 61.4493 52.0134C61.3113 52.1545 61.1446 52.2642 60.9605 52.335C60.7764 52.4058 60.5792 52.436 60.3824 52.4235Z" fill="white"/>
<path d="M251.553 24.3946H98.5897C97.473 24.3946 96.4022 24.8389 95.6126 25.6298C94.823 26.4208 94.3794 27.4935 94.3794 28.612V113.986C94.3794 115.104 94.823 116.177 95.6126 116.968C96.4022 117.759 97.473 118.203 98.5897 118.203H251.553C252.67 118.203 253.741 117.759 254.53 116.968C255.32 116.177 255.763 115.104 255.763 113.986V28.612C255.763 27.4935 255.32 26.4208 254.53 25.6298C253.741 24.8389 252.67 24.3946 251.553 24.3946Z" fill="#3F3D56"/>
<path d="M250.119 31.8479H100.024V116.661H250.119V31.8479Z" fill="white"/>
<path d="M174.943 29.5348C175.793 29.5348 176.483 28.8444 176.483 27.9927C176.483 27.1411 175.793 26.4507 174.943 26.4507C174.093 26.4507 173.404 27.1411 173.404 27.9927C173.404 28.8444 174.093 29.5348 174.943 29.5348Z" fill="white"/>
<path d="M207.194 116.661L100.024 116.661V31.8479L207.194 116.661Z" fill="#F2F2F2"/>
<path d="M259.978 115.119H245.329V114.062C245.329 114.006 245.307 113.953 245.268 113.914C245.229 113.874 245.176 113.852 245.12 113.852H240.098C240.07 113.852 240.043 113.858 240.018 113.868C239.992 113.879 239.969 113.894 239.95 113.914C239.93 113.933 239.915 113.956 239.905 113.982C239.894 114.007 239.889 114.034 239.889 114.062V115.119H236.75V114.062C236.75 114.034 236.744 114.007 236.734 113.982C236.723 113.956 236.708 113.933 236.688 113.914C236.669 113.894 236.646 113.879 236.621 113.868C236.595 113.858 236.568 113.852 236.541 113.852H231.518C231.491 113.852 231.464 113.858 231.438 113.868C231.413 113.879 231.39 113.894 231.37 113.914C231.351 113.933 231.335 113.956 231.325 113.982C231.314 114.007 231.309 114.034 231.309 114.062V115.119H228.17V114.062C228.17 114.034 228.165 114.007 228.154 113.982C228.144 113.956 228.128 113.933 228.109 113.914C228.089 113.894 228.066 113.879 228.041 113.868C228.016 113.858 227.988 113.852 227.961 113.852H222.939C222.911 113.852 222.884 113.858 222.858 113.868C222.833 113.879 222.81 113.894 222.791 113.914C222.771 113.933 222.756 113.956 222.745 113.982C222.735 114.007 222.729 114.034 222.729 114.062V115.119H219.59V114.062C219.59 114.034 219.585 114.007 219.574 113.982C219.564 113.956 219.548 113.933 219.529 113.914C219.51 113.894 219.487 113.879 219.461 113.868C219.436 113.858 219.409 113.852 219.381 113.852H214.359C214.331 113.852 214.304 113.858 214.279 113.868C214.253 113.879 214.23 113.894 214.211 113.914C214.191 113.933 214.176 113.956 214.165 113.982C214.155 114.007 214.15 114.034 214.15 114.062V115.119H211.011V114.062C211.011 114.034 211.005 114.007 210.995 113.982C210.984 113.956 210.969 113.933 210.949 113.914C210.93 113.894 210.907 113.879 210.881 113.868C210.856 113.858 210.829 113.852 210.801 113.852H205.779C205.752 113.852 205.724 113.858 205.699 113.868C205.674 113.879 205.651 113.894 205.631 113.914C205.612 113.933 205.596 113.956 205.586 113.982C205.575 114.007 205.57 114.034 205.57 114.062V115.119H202.431V114.062C202.431 114.034 202.426 114.007 202.415 113.982C202.405 113.956 202.389 113.933 202.37 113.914C202.35 113.894 202.327 113.879 202.302 113.868C202.276 113.858 202.249 113.852 202.222 113.852H197.199C197.172 113.852 197.145 113.858 197.119 113.868C197.094 113.879 197.071 113.894 197.051 113.914C197.032 113.933 197.017 113.956 197.006 113.982C196.996 114.007 196.99 114.034 196.99 114.062V115.119H193.851V114.062C193.851 114.034 193.846 114.007 193.835 113.982C193.825 113.956 193.809 113.933 193.79 113.914C193.771 113.894 193.747 113.879 193.722 113.868C193.697 113.858 193.669 113.852 193.642 113.852H154.301C154.273 113.852 154.246 113.858 154.221 113.868C154.195 113.879 154.172 113.894 154.153 113.914C154.134 113.933 154.118 113.956 154.108 113.982C154.097 114.007 154.092 114.034 154.092 114.062V115.119H150.953V114.062C150.953 114.034 150.947 114.007 150.937 113.982C150.926 113.956 150.911 113.933 150.891 113.914C150.872 113.894 150.849 113.879 150.824 113.868C150.798 113.858 150.771 113.852 150.743 113.852H145.721C145.694 113.852 145.667 113.858 145.641 113.868C145.616 113.879 145.593 113.894 145.573 113.914C145.554 113.933 145.538 113.956 145.528 113.982C145.517 114.007 145.512 114.034 145.512 114.062V115.119H142.373V114.062C142.373 114.034 142.368 114.007 142.357 113.982C142.347 113.956 142.331 113.933 142.312 113.914C142.292 113.894 142.269 113.879 142.244 113.868C142.218 113.858 142.191 113.852 142.164 113.852H137.142C137.114 113.852 137.087 113.858 137.061 113.868C137.036 113.879 137.013 113.894 136.994 113.914C136.974 113.933 136.959 113.956 136.948 113.982C136.938 114.007 136.932 114.034 136.932 114.062V115.119H133.793V114.062C133.793 114.034 133.788 114.007 133.777 113.982C133.767 113.956 133.751 113.933 133.732 113.914C133.713 113.894 133.69 113.879 133.664 113.868C133.639 113.858 133.612 113.852 133.584 113.852H128.562C128.534 113.852 128.507 113.858 128.482 113.868C128.456 113.879 128.433 113.894 128.414 113.914C128.394 113.933 128.379 113.956 128.368 113.982C128.358 114.007 128.353 114.034 128.353 114.062V115.119H125.214V114.062C125.214 114.034 125.208 114.007 125.198 113.982C125.187 113.956 125.172 113.933 125.152 113.914C125.133 113.894 125.11 113.879 125.084 113.868C125.059 113.858 125.032 113.852 125.004 113.852H119.982C119.955 113.852 119.927 113.858 119.902 113.868C119.877 113.879 119.854 113.894 119.834 113.914C119.815 113.933 119.799 113.956 119.789 113.982C119.778 114.007 119.773 114.034 119.773 114.062V115.119H116.634V114.062C116.634 114.034 116.629 114.007 116.618 113.982C116.607 113.956 116.592 113.933 116.573 113.914C116.553 113.894 116.53 113.879 116.505 113.868C116.479 113.858 116.452 113.852 116.425 113.852H111.402C111.347 113.852 111.294 113.874 111.254 113.914C111.215 113.953 111.193 114.006 111.193 114.062V115.119H108.054V114.062C108.054 114.034 108.049 114.007 108.038 113.982C108.028 113.956 108.012 113.933 107.993 113.914C107.974 113.894 107.95 113.879 107.925 113.868C107.9 113.858 107.872 113.852 107.845 113.852H102.823C102.767 113.852 102.714 113.874 102.675 113.914C102.635 113.953 102.613 114.006 102.613 114.062V115.119H92.9874C92.3279 115.119 91.6748 115.249 91.0655 115.502C90.4561 115.755 89.9025 116.125 89.4361 116.593C88.9698 117.06 88.5998 117.614 88.3474 118.225C88.095 118.835 87.9652 119.489 87.9652 120.15V122.425C87.9652 123.759 88.4943 125.039 89.4361 125.982C90.378 126.926 91.6554 127.456 92.9874 127.456H259.978C261.31 127.456 262.587 126.926 263.529 125.982C264.471 125.039 265 123.759 265 122.425V120.15C265 119.489 264.87 118.835 264.618 118.225C264.365 117.614 263.995 117.06 263.529 116.593C263.063 116.125 262.509 115.755 261.9 115.502C261.29 115.249 260.637 115.119 259.978 115.119Z" fill="#3F3D56"/>
<path d="M177.959 105.54C177.908 105.659 177.852 105.776 177.79 105.889C177.462 106.495 177 107.016 176.438 107.413C175.773 107.882 174.992 108.159 174.18 108.213C173.368 108.268 172.557 108.099 171.835 107.723C171.114 107.348 170.508 106.781 170.086 106.085C169.664 105.388 169.44 104.589 169.44 103.774V103.056H170.049C172.412 104.587 175.146 105.445 177.959 105.54Z" fill="#3F3D56"/>
<path d="M186.639 103.267V103.774C186.639 104.763 186.311 105.724 185.705 106.504C185.1 107.285 184.252 107.841 183.296 108.086C182.339 108.33 181.329 108.248 180.424 107.853C179.52 107.458 178.772 106.772 178.3 105.904C178.235 105.787 178.176 105.668 178.124 105.545C178.254 105.549 178.382 105.551 178.512 105.551C181.379 105.554 184.192 104.764 186.639 103.267Z" fill="#3F3D56"/>
<path d="M192.622 49.5678C192.489 49.5482 192.354 49.5358 192.219 49.5269C193.755 53.0731 193.861 57.0772 192.516 60.7003C192.651 60.6842 192.784 60.6629 192.918 60.6379C194.22 60.3851 195.391 59.6774 196.222 58.6409C197.052 57.6043 197.489 56.3062 197.453 54.9775C197.418 53.6489 196.913 52.3759 196.028 51.3853C195.144 50.3946 193.937 49.7506 192.622 49.5678Z" fill="#3F3D56"/>
<path d="M164.805 49.5269C164.67 49.5358 164.535 49.5482 164.401 49.5678C163.087 49.7506 161.88 50.3947 160.995 51.3853C160.111 52.3759 159.606 53.6489 159.57 54.9775C159.535 56.3062 159.971 57.6043 160.802 58.6409C161.632 59.6774 162.803 60.3851 164.106 60.6379C164.239 60.6629 164.373 60.6842 164.508 60.7003C163.162 57.0772 163.269 53.0731 164.805 49.5269Z" fill="#3F3D56"/>
<path d="M192.622 49.5678C191.157 46.0616 188.443 43.2263 185.007 41.6125C181.572 39.9987 177.66 39.7218 174.032 40.8356C170.404 41.9493 167.319 44.3742 165.376 47.6391C163.433 50.9041 162.771 54.7759 163.518 58.5025C164.265 62.229 166.369 65.5443 169.42 67.8041C172.471 70.0639 176.252 71.1069 180.028 70.7305C183.804 70.3542 187.305 68.5853 189.852 65.7675C192.399 62.9498 193.809 59.2843 193.809 55.4833C193.808 53.4522 193.405 51.4416 192.622 49.5678ZM192.516 60.7003C191.215 64.2038 188.651 67.0925 185.331 68.798C182.01 70.5034 178.172 70.902 174.573 69.9154C170.974 68.9287 167.873 66.6282 165.882 63.4667C163.891 60.3052 163.154 56.5116 163.815 52.8326C164.476 49.1537 166.487 45.8558 169.454 43.5881C172.421 41.3204 176.127 40.2472 179.844 40.5796C183.561 40.912 187.019 42.626 189.538 45.3843C192.056 48.1425 193.453 51.7452 193.453 55.4833C193.453 57.2643 193.135 59.0309 192.516 60.7003Z" fill="#3F3D56"/>
<path d="M186.338 52.0088H170.685C169.86 52.0088 169.068 52.3374 168.484 52.9221C167.901 53.5069 167.573 54.3 167.573 55.1269C167.573 55.9539 167.901 56.747 168.484 57.3317C169.068 57.9165 169.86 58.245 170.685 58.245H186.338C187.164 58.245 187.956 57.9165 188.539 57.3317C189.123 56.747 189.451 55.9539 189.451 55.1269C189.451 54.3 189.123 53.5069 188.539 52.9221C187.956 52.3374 187.164 52.0088 186.338 52.0088Z" fill="#3F3D56"/>
<path d="M192.516 82.1099C192.459 82.0048 192.4 81.9015 192.34 81.7999C192.338 81.7963 192.336 81.7945 192.334 81.791C190.935 79.3911 188.936 77.397 186.535 76.0044C184.134 74.6118 181.412 73.8685 178.638 73.8475C175.863 73.8266 173.131 74.5287 170.709 75.8849C168.287 77.2411 166.259 79.2048 164.823 81.5832C163.388 83.9617 162.594 86.6732 162.521 89.4516C162.447 92.23 163.096 94.9799 164.404 97.4312C165.711 99.8825 167.633 101.951 169.98 103.434C172.327 104.917 175.018 105.763 177.79 105.889C177.959 105.898 178.129 105.904 178.3 105.904C178.371 105.907 178.441 105.907 178.512 105.907C181.371 105.911 184.179 105.142 186.639 103.682C189.311 102.098 191.469 99.7745 192.854 96.9912C192.855 96.9876 192.857 96.9858 192.859 96.9823C192.912 96.8753 192.964 96.7667 193.016 96.6562C194.085 94.3644 194.598 91.8513 194.511 89.3229C194.424 86.7944 193.74 84.3226 192.516 82.1099ZM192.669 96.5582C192.617 96.6687 192.564 96.7774 192.509 96.8843C191.186 99.5191 189.152 101.73 186.639 103.267C184.192 104.764 181.379 105.554 178.512 105.551C178.382 105.551 178.254 105.549 178.124 105.545C178.069 105.545 178.014 105.544 177.959 105.54C175.243 105.445 172.598 104.643 170.286 103.214C167.973 101.784 166.072 99.7764 164.769 97.3875C163.466 94.9986 162.807 92.3111 162.856 89.5894C162.904 86.8677 163.66 84.2056 165.047 81.8651C166.435 79.5246 168.407 77.5862 170.769 76.2408C173.131 74.8953 175.803 74.1892 178.52 74.1918C181.238 74.1944 183.908 74.9056 186.267 76.2555C188.627 77.6055 190.595 79.5476 191.979 81.8908C191.98 81.8943 191.982 81.8961 191.984 81.8997C192.046 82.0012 192.107 82.1046 192.164 82.2079C193.384 84.3861 194.067 86.8252 194.155 89.3216C194.243 91.818 193.733 94.2993 192.669 96.5582Z" fill="#3F3D56"/>
<path d="M190.815 82.5839C190.504 82.3614 190.131 82.2413 189.748 82.24H182.752C182.265 82.24 181.798 82.4339 181.453 82.7791C181.108 83.1243 180.915 83.5924 180.915 84.0806C180.915 84.5687 181.108 85.0369 181.453 85.382C181.798 85.7272 182.265 85.9211 182.752 85.9211H189.748C189.873 85.9215 189.997 85.9089 190.12 85.8837C190.242 85.8574 190.361 85.8198 190.475 85.7715C190.775 85.6424 191.034 85.436 191.227 85.1734C191.42 84.9108 191.54 84.6015 191.575 84.2771C191.61 83.9527 191.557 83.625 191.424 83.3275C191.29 83.0299 191.08 82.7733 190.815 82.5839Z" fill="#3F3D56"/>
<path d="M183.218 85.0149C183.733 85.0149 184.151 84.5965 184.151 84.0804C184.151 83.5644 183.733 83.146 183.218 83.146C182.703 83.146 182.285 83.5644 182.285 84.0804C182.285 84.5965 182.703 85.0149 183.218 85.0149Z" fill="#F1F1F1"/>
<path d="M186.25 85.0149C186.765 85.0149 187.183 84.5965 187.183 84.0804C187.183 83.5644 186.765 83.146 186.25 83.146C185.735 83.146 185.317 83.5644 185.317 84.0804C185.317 84.5965 185.735 85.0149 186.25 85.0149Z" fill="#F1F1F1"/>
<path d="M189.282 85.0149C189.797 85.0149 190.214 84.5965 190.214 84.0804C190.214 83.5644 189.797 83.146 189.282 83.146C188.766 83.146 188.349 83.5644 188.349 84.0804C188.349 84.5965 188.766 85.0149 189.282 85.0149Z" fill="white"/>
<path d="M224.416 53.2831C221.99 54.7405 217.667 56.5666 213.251 54.6899L210.396 53.4768L216.117 47.0522C211.551 42.0096 209.026 35.4437 209.033 28.6361C209.04 21.8285 211.579 15.2677 216.155 10.2345C220.731 5.20128 227.015 2.05679 233.78 1.41482C240.546 0.772848 247.308 2.67947 252.746 6.76253C258.184 10.8456 261.908 16.812 263.191 23.4973C264.473 30.1825 263.223 37.1067 259.684 42.9184C256.145 48.73 250.571 53.0119 244.049 54.9284C237.528 56.8448 230.528 56.2582 224.416 53.2831Z" fill="white"/>
<path d="M224.43 53.6294C222.099 55.0003 217.659 56.8949 213.132 54.9711L209.885 53.5915L215.708 47.053C212.085 42.9707 209.749 37.9058 208.994 32.4962C208.239 27.0866 209.098 21.5741 211.465 16.653C213.831 11.732 217.599 7.62234 222.292 4.84175C226.986 2.06117 232.396 0.733947 237.841 1.02724C243.286 1.32054 248.523 3.22123 252.891 6.48995C257.26 9.75867 260.566 14.2493 262.392 19.3962C264.218 24.543 264.482 30.1161 263.153 35.4134C261.823 40.7108 258.958 45.4955 254.919 49.1651C250.862 52.8727 245.791 55.2793 240.357 56.0749C234.924 56.8705 229.377 56.0188 224.43 53.6294ZM256.371 10.4812C253.988 7.84734 251.11 5.70965 247.902 4.19019C244.693 2.67073 241.217 1.79927 237.673 1.62557C234.128 1.45187 230.584 1.97934 227.243 3.17785C223.902 4.37636 220.829 6.22244 218.201 8.61064C215.572 10.9988 213.439 13.8824 211.922 17.0966C210.406 20.3108 209.537 23.7927 209.365 27.3434C209.192 30.8941 209.72 34.444 210.917 37.7905C212.114 41.137 213.958 44.2144 216.343 46.847L216.527 47.0506L210.906 53.3621L213.37 54.4088C217.742 56.2667 222.069 54.3367 224.259 53.0211L224.4 52.936L224.549 53.0083C230.194 55.7559 236.618 56.4493 242.718 54.9693C248.818 53.4893 254.213 49.9283 257.978 44.8976C261.742 39.867 263.641 33.6805 263.348 27.4003C263.054 21.1202 260.588 15.1381 256.371 10.4812Z" fill="white"/>
<path d="M259.425 28.4935C259.425 22.1987 257.071 16.1321 252.829 11.4885C248.586 6.84493 242.761 3.96083 236.502 3.4042C237.234 3.33993 237.975 3.30515 238.724 3.30515C245.391 3.30918 251.783 5.96472 256.495 10.688C261.208 15.4113 263.855 21.8158 263.855 28.4935C263.855 35.1712 261.208 41.5757 256.495 46.299C251.783 51.0223 245.391 53.6778 238.724 53.6819C237.976 53.6819 237.237 53.6466 236.505 53.5825C242.764 53.025 248.588 50.1406 252.83 45.4972C257.072 40.8537 259.425 34.7877 259.425 28.4935Z" fill="black"/>
<path d="M239.906 23.4706H221.938V25.142H239.906V23.4706Z" fill="white"/>
<path d="M253.254 29.2526H221.938V30.924H253.254V29.2526Z" fill="white"/>
<path d="M253.223 35.0346H221.938V36.706H253.223V35.0346Z" fill="white"/>
<path d="M116.493 145.549H0.304955C0.224076 145.549 0.146509 145.517 0.0893191 145.46C0.0321289 145.402 0 145.325 0 145.244C0 145.163 0.0321289 145.085 0.0893191 145.028C0.146509 144.97 0.224076 144.938 0.304955 144.938H116.493C116.574 144.938 116.651 144.97 116.709 145.028C116.766 145.085 116.798 145.163 116.798 145.244C116.798 145.325 116.766 145.402 116.709 145.46C116.651 145.517 116.574 145.549 116.493 145.549Z" fill="#CBCBCB"/>
<path d="M71.6859 23.9689C71.4341 22.8248 70.6164 21.8768 69.6742 21.1826C68.1212 20.0382 66.2166 19.4756 64.2921 19.5928C62.3676 19.7101 60.5452 20.4997 59.142 21.8242C58.3579 22.5178 57.7927 23.4253 57.5153 24.4357C57.383 24.9407 57.376 25.4704 57.4948 25.9788C57.6136 26.4871 57.8546 26.9587 58.1969 27.3524L58.326 27.4334C58.2089 26.9361 58.5946 26.4392 59.0553 26.2198C59.5345 26.0436 60.0346 25.9313 60.543 25.8856C61.3121 25.74 62.0411 25.4307 62.6807 24.9787C63.3203 24.5266 63.8555 23.9422 64.2503 23.2652C64.5427 24.0985 65.01 24.8595 65.6205 25.4968C66.2311 26.1342 66.9708 26.6332 67.79 26.9604C68.644 27.2949 70.9895 27.7549 71.8025 27.3302C72.8396 26.7885 71.9377 25.113 71.6859 23.9689Z" fill="#2F2E41"/>
</svg>
