<svg width="164" height="133" viewBox="0 0 164 133" fill="none" xmlns="http://www.w3.org/2000/svg">
<path d="M98.9524 123.061C101.327 124.644 104.032 132.644 104.032 132.644C104.032 132.644 95.5639 133.193 93.1904 131.611C92.6256 131.235 92.141 130.752 91.764 130.189C91.3871 129.627 91.1252 128.996 90.9935 128.333C90.8617 127.669 90.8626 126.987 90.9962 126.324C91.1297 125.661 91.3932 125.031 91.7716 124.469C92.1501 123.908 92.636 123.426 93.2017 123.051C93.7675 122.677 94.4019 122.416 95.0687 122.286C95.7355 122.155 96.4218 122.156 97.0881 122.289C97.7545 122.422 98.388 122.685 98.9524 123.061Z" fill="#F1F1F1"/>
<path d="M104.128 132.584L103.995 132.689C99.1565 126.651 91.8545 124.565 91.7813 124.545L91.827 124.382C91.9007 124.403 99.2541 126.502 104.128 132.584Z" fill="white"/>
<path d="M111.65 119.87C111.499 123.801 103.984 132.779 103.984 132.779C103.984 132.779 97.1868 123.253 97.3377 119.323C97.4106 117.435 98.2344 115.654 99.628 114.37C101.022 113.086 102.871 112.406 104.769 112.479C106.666 112.551 108.458 113.37 109.748 114.757C111.039 116.143 111.723 117.982 111.65 119.87Z" fill="#F1F1F1"/>
<path d="M104.126 132.848L103.905 132.769C107.545 122.715 104.715 112.643 104.686 112.542L104.912 112.477C104.941 112.579 107.793 122.721 104.126 132.848Z" fill="white"/>
<path d="M84.6691 97.4998H20.2696C19.1223 97.4985 18.0223 97.0446 17.2111 96.2377C16.3998 95.4307 15.9434 94.3367 15.9422 93.1955V19.9949C15.9434 18.8538 16.3998 17.7597 17.2111 16.9528C18.0223 16.1459 19.1223 15.692 20.2696 15.6907H84.6691C85.8165 15.692 86.9164 16.1459 87.7277 16.9528C88.539 17.7597 88.9953 18.8538 88.9966 19.9949V93.1955C88.9953 94.3367 88.539 95.4307 87.7277 96.2377C86.9164 97.0446 85.8165 97.4985 84.6691 97.4998Z" fill="#E6E6E6"/>
<path d="M81.6599 93.9124H23.2789C22.2602 93.9113 21.2835 93.5082 20.5632 92.7918C19.8429 92.0753 19.4377 91.1039 19.4365 90.0907V23.0997C19.4377 22.0865 19.8429 21.1151 20.5632 20.3987C21.2835 19.6822 22.2602 19.2792 23.2789 19.278H81.6599C82.6786 19.2792 83.6552 19.6822 84.3756 20.3986C85.0959 21.1151 85.5011 22.0865 85.5022 23.0997V90.0907C85.5011 91.1039 85.0959 92.0753 84.3756 92.7918C83.6552 93.5082 82.6786 93.9113 81.6599 93.9124Z" fill="white"/>
<path d="M79.3374 28.8127H49.8858C49.7596 28.8129 49.6345 28.7883 49.5178 28.7404C49.4011 28.6925 49.2951 28.6221 49.2058 28.5334C49.1164 28.4446 49.0456 28.3393 48.9972 28.2233C48.9488 28.1073 48.924 27.9829 48.924 27.8574C48.924 27.7318 48.9488 27.6074 48.9972 27.4914C49.0456 27.3754 49.1164 27.2701 49.2058 27.1813C49.2951 27.0926 49.4011 27.0223 49.5178 26.9743C49.6345 26.9264 49.7596 26.9018 49.8858 26.902H79.3374C79.4636 26.9018 79.5887 26.9264 79.7054 26.9743C79.8221 27.0223 79.9281 27.0926 80.0174 27.1813C80.1068 27.2701 80.1777 27.3754 80.226 27.4914C80.2744 27.6074 80.2992 27.7318 80.2992 27.8574C80.2992 27.9829 80.2744 28.1073 80.226 28.2233C80.1777 28.3393 80.1068 28.4446 80.0174 28.5334C79.9281 28.6221 79.8221 28.6925 79.7054 28.7404C79.5887 28.7883 79.4636 28.8129 79.3374 28.8127Z" fill="#E4E4E4"/>
<path d="M79.3374 32.5878H49.8858C49.6311 32.5878 49.3868 32.4871 49.2066 32.308C49.0265 32.1288 48.9253 31.8858 48.9253 31.6324C48.9253 31.379 49.0265 31.136 49.2066 30.9568C49.3868 30.7776 49.6311 30.677 49.8858 30.677H79.3374C79.5921 30.677 79.8364 30.7776 80.0166 30.9568C80.1967 31.136 80.2979 31.379 80.2979 31.6324C80.2979 31.8858 80.1967 32.1288 80.0166 32.308C79.8364 32.4871 79.5921 32.5878 79.3374 32.5878Z" fill="#E4E4E4"/>
<path d="M62.6524 36.3629H49.8858C49.6311 36.3629 49.3868 36.2622 49.2066 36.083C49.0265 35.9039 48.9253 35.6609 48.9253 35.4075C48.9253 35.1541 49.0265 34.9111 49.2066 34.7319C49.3868 34.5527 49.6311 34.4521 49.8858 34.4521H62.6524C62.9071 34.4521 63.1514 34.5527 63.3316 34.7319C63.5117 34.9111 63.6129 35.1541 63.6129 35.4075C63.6129 35.6609 63.5117 35.9039 63.3316 36.083C63.1514 36.2622 62.9071 36.3629 62.6524 36.3629Z" fill="#E4E4E4"/>
<path d="M75.7859 51.6099H29.291C29.1648 51.6101 29.0397 51.5855 28.923 51.5376C28.8064 51.4896 28.7003 51.4193 28.611 51.3306C28.5216 51.2418 28.4508 51.1364 28.4024 51.0205C28.354 50.9045 28.3292 50.7801 28.3292 50.6545C28.3292 50.529 28.354 50.4046 28.4024 50.2886C28.4508 50.1726 28.5216 50.0672 28.611 49.9785C28.7003 49.8898 28.8064 49.8194 28.923 49.7715C29.0397 49.7236 29.1648 49.699 29.291 49.6992H75.7859C75.9121 49.699 76.0371 49.7236 76.1538 49.7715C76.2705 49.8194 76.3766 49.8898 76.4659 49.9785C76.5553 50.0672 76.6261 50.1726 76.6745 50.2886C76.7228 50.4046 76.7477 50.529 76.7477 50.6545C76.7477 50.7801 76.7228 50.9045 76.6745 51.0205C76.6261 51.1364 76.5553 51.2418 76.4659 51.3306C76.3766 51.4193 76.2705 51.4896 76.1538 51.5376C76.0371 51.5855 75.9121 51.6101 75.7859 51.6099Z" fill="#E4E4E4"/>
<path d="M75.7859 55.385H29.291C29.0363 55.385 28.792 55.2843 28.6118 55.1051C28.4317 54.926 28.3305 54.683 28.3305 54.4296C28.3305 54.1762 28.4317 53.9332 28.6118 53.754C28.792 53.5748 29.0363 53.4742 29.291 53.4742H75.7859C76.0406 53.4742 76.2849 53.5748 76.4651 53.754C76.6452 53.9332 76.7464 54.1762 76.7464 54.4296C76.7464 54.683 76.6452 54.926 76.4651 55.1051C76.2849 55.2843 76.0406 55.385 75.7859 55.385Z" fill="#E4E4E4"/>
<path d="M75.7859 63.9542H29.291C29.0363 63.9542 28.792 63.8536 28.6118 63.6744C28.4317 63.4953 28.3305 63.2523 28.3305 62.9989C28.3305 62.7455 28.4317 62.5025 28.6118 62.3233C28.792 62.1442 29.0363 62.0435 29.291 62.0435H75.7859C76.0406 62.0435 76.2849 62.1442 76.465 62.3233C76.6452 62.5025 76.7464 62.7455 76.7464 62.9989C76.7464 63.2523 76.6452 63.4953 76.465 63.6744C76.2849 63.8536 76.0406 63.9542 75.7859 63.9542Z" fill="#E4E4E4"/>
<path d="M75.7859 67.7293H29.291C29.0363 67.7293 28.792 67.6287 28.6118 67.4495C28.4317 67.2703 28.3305 67.0273 28.3305 66.7739C28.3305 66.5205 28.4317 66.2775 28.6118 66.0983C28.792 65.9192 29.0363 65.8185 29.291 65.8185H75.7859C76.0406 65.8185 76.2849 65.9192 76.4651 66.0983C76.6452 66.2775 76.7464 66.5205 76.7464 66.7739C76.7464 67.0273 76.6452 67.2703 76.4651 67.4495C76.2849 67.6287 76.0406 67.7293 75.7859 67.7293Z" fill="#E4E4E4"/>
<path d="M75.7859 76.2986H29.291C29.0363 76.2986 28.792 76.1979 28.6118 76.0188C28.4317 75.8396 28.3305 75.5966 28.3305 75.3432C28.3305 75.0899 28.4317 74.8469 28.6118 74.6677C28.792 74.4885 29.0363 74.3879 29.291 74.3879H75.7859C76.0406 74.3879 76.2849 74.4885 76.465 74.6677C76.6452 74.8469 76.7464 75.0899 76.7464 75.3432C76.7464 75.5966 76.6452 75.8396 76.465 76.0188C76.2849 76.1979 76.0406 76.2986 75.7859 76.2986Z" fill="#E4E4E4"/>
<path d="M75.7859 80.0737H29.291C29.0363 80.0737 28.792 79.973 28.6118 79.7938C28.4317 79.6147 28.3305 79.3717 28.3305 79.1183C28.3305 78.8649 28.4317 78.6219 28.6118 78.4427C28.792 78.2635 29.0363 78.1629 29.291 78.1629H75.7859C76.0406 78.1629 76.2849 78.2635 76.4651 78.4427C76.6452 78.6219 76.7464 78.8649 76.7464 79.1183C76.7464 79.3717 76.6452 79.6147 76.4651 79.7938C76.2849 79.973 76.0406 80.0737 75.7859 80.0737Z" fill="#E4E4E4"/>
<path d="M75.7776 90.5305H63.0111C62.7563 90.5305 62.512 90.4299 62.3319 90.2507C62.1517 90.0715 62.0505 89.8285 62.0505 89.5751C62.0505 89.3217 62.1517 89.0787 62.3319 88.8996C62.512 88.7204 62.7563 88.6197 63.0111 88.6197H75.7776C76.0324 88.6197 76.2767 88.7204 76.4569 88.8996C76.637 89.0787 76.7382 89.3217 76.7382 89.5751C76.7382 89.8285 76.637 90.0715 76.4569 90.2507C76.2767 90.4299 76.0324 90.5305 75.7776 90.5305Z" fill="white"/>
<path d="M41.7331 31.7443C41.7358 33.796 41.0374 35.7877 39.7526 37.3929C39.337 37.9154 38.8639 38.3899 38.3421 38.8075C36.9181 39.9565 35.1782 40.6506 33.3506 40.7989C33.1018 40.8203 32.851 40.83 32.5983 40.83C32.0975 40.8301 31.5975 40.7891 31.1036 40.7073C30.9293 40.68 30.7588 40.6469 30.5884 40.6079C30.2917 40.5422 29.9987 40.4609 29.7107 40.3643C28.7767 40.0552 27.8994 39.5972 27.1131 39.0082C26.9035 38.8523 26.7017 38.6867 26.5058 38.5114C26.2662 38.3 26.0392 38.0749 25.826 37.8372C25.7692 37.7748 25.7124 37.7105 25.6576 37.6462C24.7017 36.5335 24.0303 35.2075 23.7006 33.7811C23.3709 32.3547 23.3926 30.8702 23.7639 29.4539C24.1352 28.0377 24.845 26.7317 25.833 25.647C26.8211 24.5624 28.0579 23.7313 29.4384 23.2245C30.8189 22.7177 32.302 22.5501 33.7616 22.7362C35.2211 22.9222 36.6139 23.4563 37.8213 24.293C39.0286 25.1296 40.0148 26.2441 40.6959 27.5415C41.3771 28.8388 41.7329 30.2807 41.7331 31.7443Z" fill="#E4E4E4"/>
<path d="M32.2803 34.845C34.3478 34.845 36.0237 33.1781 36.0237 31.1217C36.0237 29.0654 34.3478 27.3984 32.2803 27.3984C30.2129 27.3984 28.5369 29.0654 28.5369 31.1217C28.5369 33.1781 30.2129 34.845 32.2803 34.845Z" fill="#9E616A"/>
<path d="M36.4478 29.3067C36.4647 28.974 36.3703 28.6451 36.1794 28.3715L36.0442 28.1805C35.5564 27.2452 34.7512 26.4035 34.1616 25.7878C33.7188 25.326 33.2762 25.1039 32.851 25.1253C32.5416 25.1473 32.2535 25.2902 32.0498 25.5228C31.4899 25.4888 30.9322 25.618 30.4451 25.8945C29.958 26.171 29.5625 26.5829 29.3072 27.0796C27.5147 28.0207 28.0495 30.7993 28.0554 30.8285L28.4884 31.5514L28.5374 31.4598C28.5374 31.4578 28.5432 31.4501 28.551 31.4345C28.6353 31.2844 29.0937 30.4505 29.4032 29.9224C29.5162 29.7423 29.6665 29.5882 29.844 29.4704C30.1339 29.2734 30.4671 29.1484 30.8157 29.106L31.7677 28.9833L31.4073 29.5211H34.0009L34.998 29.4042C35.098 29.8114 35.8894 31.3916 35.9854 31.5825L35.9932 31.5981L36.0461 31.7053L36.3419 30.8967C36.5147 30.3847 36.5511 29.8369 36.4478 29.3067Z" fill="#2F2E41"/>
<path d="M27.1405 39.0277C27.3012 38.8172 28.1337 37.8352 30.0496 37.315L31.0644 36.1907L35.1332 35.5457L37.2039 36.6837L39.7526 37.3929C39.337 37.9154 38.8639 38.3899 38.3421 38.8075C36.9181 39.9565 35.1782 40.6506 33.3506 40.7989C33.1018 40.8203 32.851 40.83 32.5983 40.83C32.0975 40.8301 31.5975 40.7891 31.1036 40.7073C30.9293 40.68 30.7588 40.6469 30.5884 40.6079C30.2917 40.5422 29.9987 40.4609 29.7107 40.3643C28.7873 40.0592 27.9194 39.6078 27.1405 39.0277C27.1307 39.0218 27.1228 39.0141 27.1131 39.0082L27.1405 39.0277Z" fill="white"/>
<path d="M104.357 4.55723H0.581284C0.42717 4.55706 0.279416 4.49609 0.170441 4.3877C0.0614654 4.27931 0.000168006 4.13235 0 3.97906V0.578161C0.000168006 0.424874 0.0614654 0.277914 0.170441 0.169524C0.279416 0.0611338 0.42717 0.000167103 0.581284 0H104.357C104.512 0.000167103 104.659 0.0611338 104.768 0.169524C104.877 0.277914 104.939 0.424874 104.939 0.578161V3.97906C104.939 4.13235 104.877 4.27931 104.768 4.3877C104.659 4.49609 104.512 4.55706 104.357 4.55723Z" fill="white"/>
<path d="M3.37344 2.93358C3.82922 2.93358 4.19871 2.56607 4.19871 2.11273C4.19871 1.65939 3.82922 1.29189 3.37344 1.29189C2.91765 1.29189 2.54816 1.65939 2.54816 2.11273C2.54816 2.56607 2.91765 2.93358 3.37344 2.93358Z" fill="white"/>
<path d="M6.50592 2.93358C6.9617 2.93358 7.33119 2.56607 7.33119 2.11273C7.33119 1.65939 6.9617 1.29189 6.50592 1.29189C6.05013 1.29189 5.68064 1.65939 5.68064 2.11273C5.68064 2.56607 6.05013 2.93358 6.50592 2.93358Z" fill="white"/>
<path d="M9.63854 2.93358C10.0943 2.93358 10.4638 2.56607 10.4638 2.11273C10.4638 1.65939 10.0943 1.29189 9.63854 1.29189C9.18276 1.29189 8.81327 1.65939 8.81327 2.11273C8.81327 2.56607 9.18276 2.93358 9.63854 2.93358Z" fill="white"/>
<path d="M101.288 1.54775H97.6811C97.6107 1.54715 97.5433 1.51889 97.4937 1.46911C97.4441 1.41934 97.4162 1.35208 97.4162 1.28199C97.4162 1.2119 97.4441 1.14464 97.4937 1.09487C97.5433 1.04509 97.6107 1.01683 97.6811 1.01623H101.288C101.324 1.01593 101.359 1.02258 101.391 1.0358C101.424 1.04902 101.454 1.06855 101.479 1.09326C101.504 1.11797 101.524 1.14737 101.537 1.17976C101.551 1.21215 101.558 1.2469 101.558 1.28199C101.558 1.31708 101.551 1.35183 101.537 1.38422C101.524 1.41662 101.504 1.44601 101.479 1.47072C101.454 1.49543 101.424 1.51496 101.391 1.52818C101.359 1.5414 101.324 1.54805 101.288 1.54775Z" fill="white"/>
<path d="M101.288 2.54436H97.6811C97.6103 2.54436 97.5423 2.51636 97.4922 2.46652C97.4421 2.41668 97.4139 2.34908 97.4139 2.27859C97.4139 2.20811 97.4421 2.14051 97.4922 2.09067C97.5423 2.04083 97.6103 2.01283 97.6811 2.01283H101.288C101.324 2.01253 101.359 2.01918 101.391 2.03241C101.424 2.04563 101.454 2.06515 101.479 2.08986C101.504 2.11457 101.524 2.14397 101.537 2.17636C101.551 2.20876 101.558 2.2435 101.558 2.27859C101.558 2.31369 101.551 2.34843 101.537 2.38083C101.524 2.41322 101.504 2.44262 101.479 2.46733C101.454 2.49204 101.424 2.51156 101.391 2.52479C101.359 2.53801 101.324 2.54466 101.288 2.54436Z" fill="white"/>
<path d="M101.288 3.54098H97.6811C97.6106 3.54041 97.5433 3.51216 97.4936 3.46238C97.444 3.4126 97.4161 3.34532 97.4161 3.27521C97.4161 3.2051 97.444 3.13783 97.4936 3.08805C97.5433 3.03827 97.6106 3.01002 97.6811 3.00945H101.288C101.359 3.01002 101.426 3.03827 101.476 3.08805C101.525 3.13783 101.553 3.2051 101.553 3.27521C101.553 3.34532 101.525 3.4126 101.476 3.46238C101.426 3.51216 101.359 3.54041 101.288 3.54098Z" fill="white"/>
<path d="M129.779 91.4561C129.613 91.2764 129.489 91.0627 129.415 90.8301C129.341 90.5974 129.319 90.3515 129.351 90.1095C129.383 89.8676 129.467 89.6355 129.599 89.4297C129.731 89.2239 129.907 89.0494 130.114 88.9184L128.738 83.1468L131.649 84.2045L132.509 89.5232C132.707 89.8836 132.766 90.3038 132.673 90.7042C132.581 91.1046 132.344 91.4574 132.007 91.6956C131.671 91.9339 131.258 92.0411 130.847 91.9969C130.437 91.9528 130.057 91.7603 129.779 91.4561Z" fill="#9E616A"/>
<path d="M122.779 67.2701L123.947 70.2579C123.947 70.2579 123.447 73.2456 124.281 73.9095C125.116 74.5735 124.782 74.5735 124.782 75.0714C124.811 75.4286 124.915 75.7758 125.087 76.0904C125.26 76.4049 125.497 76.6799 125.783 76.8973C126.451 77.3952 129.455 87.5204 129.455 87.5204H132.458C132.361 86.7488 132.361 85.9681 132.458 85.1966C132.625 84.0347 131.958 81.0469 131.624 80.549C131.29 80.051 131.624 79.3871 131.624 78.3911C131.624 77.3952 130.956 76.8973 130.956 75.2374C130.956 73.5776 128.954 60.6307 129.121 59.1368C129.288 57.6429 127.452 56.3151 127.452 56.3151H125.783L122.779 67.2701Z" fill="#E4E4E4"/>
<path d="M130.461 130.397H128.241L127.185 121.879L130.462 121.88L130.461 130.397Z" fill="#9E616A"/>
<path d="M131.028 132.537L123.869 132.537V132.447C123.869 131.712 124.163 131.007 124.685 130.487C125.208 129.967 125.917 129.676 126.656 129.675L127.963 128.689L130.403 129.676L131.028 129.676L131.028 132.537Z" fill="#2F2E41"/>
<path d="M110.152 130.333L108.067 129.575L110.017 121.215L113.094 122.335L110.152 130.333Z" fill="#9E616A"/>
<path d="M109.945 132.537L103.222 130.091L103.253 130.006C103.507 129.316 104.026 128.754 104.696 128.445C105.367 128.135 106.133 128.103 106.827 128.356L108.396 127.876L110.346 129.636L110.933 129.85L109.945 132.537Z" fill="#2F2E41"/>
<path d="M125.57 90.5696C125.57 90.5696 124.068 97.8729 126.572 97.209C129.075 96.545 128.074 90.2376 128.074 90.2376L125.57 90.5696Z" fill="#A0616A"/>
<path d="M114.556 84.5111C114.556 84.5111 112.554 87.1669 112.554 88.6607C112.554 90.1546 111.886 103.433 111.886 103.433C111.886 103.433 106.819 123.207 107.82 124.203C108.822 125.199 112.326 126.195 112.827 125.697C113.327 125.199 117.727 104.761 117.727 104.761L121.899 93.6403L125.737 109.575L126.071 126.505C126.071 126.505 130.243 127.501 131.077 126.837C131.912 126.173 132.079 110.073 131.077 104.429C130.076 98.7858 131.244 85.839 131.244 85.839L114.556 84.5111Z" fill="#2F2E41"/>
<path d="M121.249 49.0732C124.014 49.0732 126.255 46.8437 126.255 44.0936C126.255 41.3434 124.014 39.114 121.249 39.114C118.484 39.114 116.242 41.3434 116.242 44.0936C116.242 46.8437 118.484 49.0732 121.249 49.0732Z" fill="#9E616A"/>
<path d="M114.89 56.2935C114.89 56.2935 116.331 54.1572 119.168 51.3355C120.67 50.8375 123.273 51.1278 124.175 51.3355C128.347 56.813 128.609 56.449 129.695 59.5095C129.977 60.3031 130.118 61.0656 129.993 61.6881C129.492 64.1778 131.077 84.3451 131.244 85.009C131.411 85.673 132.579 86.5029 131.411 86.5029C130.243 86.5029 112.553 85.839 112.887 85.341C113.221 84.843 114.89 56.2935 114.89 56.2935Z" fill="#E4E4E4"/>
<path d="M114.126 85.122L119.145 74.1368L116.636 85.8197L114.126 85.122Z" fill="black"/>
<path d="M119.734 48.7068C120.203 48.3599 120.634 47.9659 121.022 47.5311C121.411 47.0924 121.655 46.545 121.72 45.9635C121.748 45.6736 121.702 45.3812 121.587 45.1136C121.471 44.846 121.289 44.6119 121.058 44.433C120.581 44.098 119.854 44.1175 119.458 44.5444C119.649 43.9296 119.824 43.2044 119.437 42.6889C119.084 42.2197 118.427 42.1399 117.859 41.9852C116.763 41.6819 115.821 40.9836 115.215 40.0266L116.18 40.2251L116.072 39.5412L116.871 39.8176L116.878 38.8651L117.703 39.3242C118.713 38.4033 120.044 37.9101 121.414 37.9492C122.104 37.9606 122.781 38.1454 123.381 38.4864C123.982 38.8322 124.437 39.3824 124.663 40.0356C125.087 39.5973 125.844 39.6312 126.35 39.9738C126.856 40.3163 127.153 40.8895 127.357 41.4633C127.761 42.5638 127.855 43.7532 127.629 44.903C127.396 46.0555 126.772 47.0933 125.861 47.842C125.024 48.4772 124.028 48.8714 122.981 48.9814C121.939 49.0889 120.886 49.0441 119.856 48.8485" fill="#2F2E41"/>
<path d="M112.563 91.4345C112.729 91.2549 112.853 91.0412 112.927 90.8085C113.001 90.5759 113.023 90.3299 112.991 90.088C112.959 89.846 112.874 89.614 112.743 89.4082C112.611 89.2024 112.435 89.0279 112.228 88.8969L113.603 83.1253L110.693 84.183L109.833 89.5016C109.635 89.8621 109.576 90.2823 109.669 90.6827C109.761 91.0831 109.998 91.4359 110.335 91.6741C110.671 91.9124 111.084 92.0196 111.495 91.9754C111.905 91.9313 112.285 91.7388 112.563 91.4345Z" fill="#9E616A"/>
<path d="M116.559 56.2935H114.89C114.89 56.2935 113.054 57.6214 113.221 59.1153C113.388 60.6091 111.385 73.556 111.385 75.2159C111.385 76.8757 110.718 77.3737 110.718 78.3696C110.718 79.3655 111.052 80.0295 110.718 80.5274C110.384 81.0254 109.717 84.0131 109.883 85.175C109.98 85.9466 109.98 86.7272 109.883 87.4988H112.887C112.887 87.4988 115.891 77.3737 116.559 76.8757C116.845 76.6583 117.082 76.3834 117.255 76.0688C117.427 75.7542 117.531 75.4071 117.56 75.0499C117.56 74.5519 117.226 74.5519 118.061 73.888C118.895 73.2241 118.394 70.2363 118.394 70.2363L119.563 67.2486L116.559 56.2935Z" fill="#E4E4E4"/>
<path d="M163.767 133H72.224C72.1933 133 72.1629 132.994 72.1345 132.983C72.1061 132.971 72.0803 132.954 72.0586 132.932C72.0369 132.911 72.0196 132.885 72.0079 132.857C71.9961 132.829 71.99 132.799 71.99 132.768C71.99 132.737 71.9961 132.707 72.0079 132.679C72.0196 132.651 72.0369 132.625 72.0586 132.604C72.0803 132.582 72.1061 132.565 72.1345 132.553C72.1629 132.542 72.1933 132.536 72.224 132.536H163.767C163.797 132.536 163.828 132.542 163.856 132.553C163.885 132.565 163.91 132.582 163.932 132.604C163.954 132.625 163.971 132.651 163.983 132.679C163.995 132.707 164.001 132.737 164.001 132.768C164.001 132.799 163.995 132.829 163.983 132.857C163.971 132.885 163.954 132.911 163.932 132.932C163.91 132.954 163.885 132.971 163.856 132.983C163.828 132.994 163.797 133 163.767 133Z" fill="#CACACA"/>
</svg>
