<svg width="200" height="148" viewBox="0 0 200 148" fill="none" xmlns="http://www.w3.org/2000/svg">
<path d="M132.615 142.524C163.646 142.524 188.802 139.985 188.802 136.852C188.802 133.72 163.646 131.181 132.615 131.181C101.585 131.181 76.4291 133.72 76.4291 136.852C76.4291 139.985 101.585 142.524 132.615 142.524Z" fill="white"/>
<path d="M116.201 20.8125C103.38 20.44 91.1675 16.991 79.5077 13.216C67.8479 9.441 56.2954 5.26308 43.7806 3.26277C35.7307 1.97698 26.527 1.79432 20.0406 5.39202C13.8011 8.85183 11.7832 14.8277 10.6992 20.3702C9.88345 24.541 9.40404 28.932 11.6383 32.8359C13.1911 35.5472 15.9459 37.8251 17.851 40.4217C24.4823 49.458 19.7955 60.5986 12.6097 69.42C9.23946 73.5585 5.3308 77.5072 2.7298 81.9126C0.128796 86.3179 -1.07153 91.3697 1.20211 95.8593C3.45787 100.313 8.8316 103.658 14.6543 106.011C26.4787 110.791 40.4139 112.159 54.0093 112.933C84.0782 114.65 114.31 113.905 144.476 113.162C155.636 112.888 166.836 112.609 177.825 111.171C183.922 110.372 190.217 109.104 194.641 106.043C200.261 102.157 201.653 95.5799 197.887 90.7071C191.573 82.5358 174.11 80.4996 169.695 71.7373C167.266 66.9111 169.761 61.5298 173.292 57.0528C180.866 47.4506 193.564 39.0249 194.233 28.042C194.692 20.5027 188.589 12.9527 179.151 9.38548C169.258 5.64631 155.538 6.11729 148.241 12.3063C140.728 18.6886 127.523 21.1402 116.201 20.8125Z" fill="white"/>
<path d="M30.8239 112.143C29.4071 111.511 30.6056 104.643 33.686 94.0559C35.6538 87.2634 38.405 78.9398 41.7359 69.7531C41.9756 69.0941 42.2189 68.4333 42.4622 67.7653C42.7365 67.0167 43.0143 66.2622 43.2958 65.5017L43.3208 65.4391C43.3602 65.3298 43.4013 65.2224 43.4407 65.1149C44.5069 62.2497 45.6213 59.3181 46.7841 56.3203C46.8055 56.2595 46.8288 56.2004 46.852 56.1413L46.9111 55.989C47.1901 55.2727 47.4728 54.5564 47.7572 53.8276C47.7876 53.7523 47.8162 53.6736 47.8467 53.5983C47.8878 53.4927 47.9289 53.3906 47.9683 53.2867C47.9826 53.2545 47.9933 53.2205 48.0077 53.1918C48.0309 53.1292 48.056 53.0683 48.0792 53.0128C48.3654 52.2964 48.6499 51.5712 48.9343 50.8638C49.3994 49.7058 49.8609 48.5591 50.3189 47.4237C50.3988 47.2243 50.4793 47.0273 50.5604 46.8327C50.7905 46.2609 51.0213 45.6932 51.2526 45.1297C51.3421 44.9148 51.4315 44.6981 51.5174 44.485C51.5854 44.322 51.6516 44.1573 51.7178 43.9961C52.444 42.2376 53.1655 40.513 53.8823 38.8225C53.8841 38.8167 53.8841 38.8104 53.8823 38.8046C56.6103 32.3703 59.2488 26.4625 61.6996 21.2978C61.7139 21.271 61.7246 21.2423 61.7389 21.2155L61.9983 20.6675C68.288 7.46755 73.236 -0.678768 74.9085 0.0733649C76.6294 0.839824 74.4864 10.8432 69.7906 25.5492C69.7298 25.7444 69.6672 25.936 69.6028 26.1312C69.593 26.1694 69.5811 26.2071 69.567 26.244C69.3285 27.0057 69.0775 27.7817 68.8139 28.572C68.7996 28.6186 68.7835 28.6651 68.7674 28.7117C68.1711 30.5383 67.5366 32.4246 66.864 34.3706C66.7728 34.6321 66.6852 34.8989 66.5885 35.1639C65.551 38.1707 64.4419 41.301 63.2523 44.528C63.1808 44.7268 63.1074 44.9238 63.0341 45.1243C61.8445 48.3567 60.5905 51.684 59.2775 55.0793C59.1934 55.2942 59.1093 55.5109 59.027 55.7276C59.0091 55.7742 58.9913 55.8189 58.9716 55.8655C58.6436 56.7072 58.3139 57.5524 57.9823 58.4012C57.8875 58.6376 57.8035 58.874 57.7033 59.1086C57.4671 59.7085 57.231 60.3084 56.9877 60.8994C56.9681 60.9531 56.9466 61.0068 56.9251 61.0588C56.9037 61.1107 56.8911 61.1429 56.8732 61.1841C56.8339 61.288 56.7927 61.3901 56.7516 61.4922C56.6407 61.7697 56.5316 62.0473 56.4207 62.3213C56.2293 62.8012 56.0378 63.2758 55.8464 63.7539L55.7874 63.8972C55.7879 63.9037 55.7879 63.9103 55.7874 63.9169C55.0098 65.8402 54.2347 67.7307 53.4619 69.5883C53.2019 70.2151 52.9425 70.8377 52.6837 71.4561C52.4923 71.9128 52.3027 72.3676 52.1113 72.8171C50.6909 76.1784 49.2956 79.3965 47.9361 82.4462C39.7145 100.861 32.8524 113.049 30.8239 112.143Z" fill="white"/>
<path d="M34.1815 99.3584C33.3086 98.9824 34.3926 94.0971 36.8505 86.5077C38.4247 81.6403 40.566 75.6591 43.1115 69.0439L43.6679 67.6113C43.8766 67.0729 44.0889 66.5296 44.3047 65.9817C44.3115 65.9665 44.3174 65.9509 44.3226 65.9351L44.4156 65.7023C45.2278 63.6333 46.0751 61.5202 46.9576 59.3629C46.9737 59.3181 46.9916 59.2769 47.0095 59.234C47.0274 59.191 47.0381 59.1605 47.0542 59.1247C47.2653 58.6054 47.4781 58.0879 47.6928 57.565L47.7626 57.3984L47.8538 57.1746C47.8645 57.1513 47.8735 57.1262 47.8824 57.1047C47.8914 57.0832 47.92 57.017 47.9379 56.974C48.1549 56.4511 48.3702 55.9323 48.5837 55.4178C48.9343 54.5821 49.2819 53.7541 49.6266 52.934L49.8055 52.5078C49.9843 52.0941 50.1525 51.6858 50.326 51.2775L50.5246 50.8119C50.5765 50.6937 50.6247 50.5755 50.6748 50.4537C51.2198 49.1846 51.7607 47.9382 52.2973 46.7145C52.2984 46.7104 52.2984 46.7061 52.2973 46.702C54.3366 42.0459 56.2972 37.7731 58.0968 34.0286C58.1076 34.0089 58.1165 33.9874 58.1272 33.9677L58.3169 33.5701C62.9428 23.9948 66.4776 18.0368 67.508 18.4827C68.5688 18.9411 66.7334 26.0739 63.0538 36.6324L62.9071 37.0514C62.8981 37.0783 62.8892 37.1051 62.8784 37.132C62.6876 37.6788 62.4915 38.2345 62.2899 38.7992L62.2541 38.8995C61.7855 40.2128 61.2923 41.5684 60.7747 42.9664C60.705 43.1562 60.6352 43.3478 60.5619 43.5377C59.7605 45.6992 58.9036 47.9538 57.9984 50.2782L57.8321 50.7062C56.9233 53.0342 55.9693 55.4255 54.9699 57.8801C54.9073 58.0359 54.8447 58.1917 54.7803 58.3475C54.766 58.3815 54.7517 58.4138 54.7391 58.4478L53.9896 60.2762L53.7785 60.7866C53.5996 61.22 53.4207 61.6533 53.2419 62.0813C53.2275 62.1207 53.2114 62.1583 53.1953 62.1959C53.1792 62.2335 53.1703 62.2568 53.156 62.2873L53.0648 62.5075C52.9807 62.7081 52.8984 62.9087 52.8143 63.1074L52.3939 64.1497L52.3492 64.2536V64.2679C51.7625 65.6575 51.1805 67.0227 50.6033 68.3634C50.4089 68.8171 50.2139 69.2672 50.0183 69.7137C49.8752 70.0456 49.7321 70.3739 49.589 70.6986C48.5264 73.1269 47.4871 75.4567 46.4782 77.663C40.3692 91.0116 35.432 99.8993 34.1815 99.3584Z" fill="white"/>
<path d="M91.7328 63.1218C91.7328 62.6221 91.2444 62.88 91.1764 62.9015C90.9803 62.7402 90.7666 62.6015 90.5396 62.4878C89.4502 61.9202 87.8044 61.5745 86.4932 61.3722C86.4886 61.3705 86.4835 61.3705 86.4789 61.3722C85.3233 61.1931 84.4324 61.1322 84.4324 61.1322L83.7509 61.1412H83.4969C83.5861 61.0085 83.717 60.9095 83.8689 60.86C84.0586 60.8367 83.0675 60.7633 82.5971 60.7311H82.5774L82.3591 60.7167C81.3252 60.9603 79.3878 59.6297 79.3878 59.6297L79.1624 58.4944C79.9281 57.6652 79.8172 55.5933 79.8172 55.5933C79.8172 55.5933 79.8816 54.8985 80.5327 53.9422C81.1839 52.9859 80.4236 52.3806 80.4236 52.3806L81.5488 51.179C81.5004 50.9717 81.4935 50.7569 81.5285 50.547C81.5636 50.3371 81.6397 50.1362 81.7527 49.9559C81.8214 49.854 81.9066 49.7644 82.005 49.6908V49.6819L82.0228 49.6658C82.7581 49.1017 83.3788 47.1425 83.3788 47.1425C83.3788 47.1425 83.2357 46.7933 84.0407 45.846V45.8353C84.148 45.7099 84.2732 45.5756 84.4181 45.4252C84.4181 45.4126 84.4396 45.4019 84.4503 45.3894C85.7419 44.0928 85.2338 43.3765 85.2338 43.3765L83.665 41.4675C84.0353 40.8479 81.0622 36.4014 81.0622 36.4014C81.0622 36.4014 80.683 35.4863 80.8976 34.6106C80.9578 34.4043 80.964 34.186 80.9155 33.9766C80.8873 33.8584 80.8294 33.7493 80.7474 33.6597C80.6969 33.6057 80.6361 33.5624 80.5685 33.5325L80.4612 33.5236L80.5882 33.4304C80.64 33.3964 80.6901 33.3588 80.742 33.323C80.8529 33.366 80.9638 33.4036 81.0765 33.4376C82.1684 33.7907 83.3315 33.8633 84.4587 33.6486C85.5859 33.4339 86.6411 32.9389 87.5272 32.2091C87.5719 32.1751 87.6148 32.1375 87.656 32.0999C87.6971 32.0623 87.7687 32.0032 87.8241 31.9513C87.8492 31.928 87.8742 31.9065 87.8957 31.8832C87.9171 31.8599 87.9797 31.8008 88.0209 31.7578C88.0334 31.7972 88.0459 31.8349 88.0602 31.8742C88.1163 32.033 88.1839 32.1874 88.2624 32.3363C88.2691 32.35 88.2769 32.3632 88.2856 32.3757C88.285 32.381 88.285 32.3864 88.2856 32.3918C88.2982 32.4186 88.3143 32.4437 88.3286 32.4688C88.4305 32.6395 88.5544 32.796 88.6971 32.9344C88.732 32.9689 88.769 33.0012 88.808 33.0311C88.8637 33.0788 88.9236 33.1213 88.9869 33.1582C88.9962 33.1664 89.0064 33.1736 89.0173 33.1797C89.0279 33.1879 89.0393 33.1951 89.0513 33.2012C89.0978 33.1188 89.1425 33.0347 89.1854 32.9505C89.5653 32.2086 89.7865 31.3956 89.8348 30.5634C89.8369 30.4621 89.8453 30.361 89.8598 30.2607C89.8695 30.1842 89.8919 30.1097 89.926 30.0405C89.9922 29.9044 90.0991 29.7923 90.2319 29.7199C90.4465 29.6106 90.6719 29.5242 90.9045 29.4621L90.96 29.4424L91.028 29.4191L91.1603 29.3671L91.1818 29.3564C91.2212 29.3403 91.2569 29.3206 91.2945 29.3027C91.3058 29.2945 91.3177 29.2873 91.3303 29.2812C91.3731 29.2573 91.4138 29.2297 91.4519 29.1988L91.4698 29.1845C91.5045 29.1581 91.5368 29.1287 91.5664 29.0967C91.5807 29.0824 91.5897 29.0645 91.604 29.0502C91.6238 29.0285 91.6418 29.0051 91.6576 28.9803L91.7006 28.9177C91.7098 28.8978 91.7206 28.8786 91.7328 28.8603C91.8696 28.5827 91.9313 28.2739 91.9117 27.9649C91.8866 27.5208 91.756 27.091 91.7614 26.6451C91.7775 25.5796 92.5449 24.5624 92.4769 23.5041C92.4161 22.5872 91.7417 21.8745 91.0459 21.305C90.35 20.7355 89.5772 20.2037 89.1962 19.3888C88.9117 18.7782 88.8724 18.0672 88.6166 17.444C88.0799 16.1386 86.5057 15.4025 85.0836 15.7911C84.2321 16.0257 83.4915 16.5898 82.6632 16.9032C82.1159 17.1092 81.5416 17.2023 80.996 17.4118C80.3516 17.6611 79.7741 18.0572 79.3091 18.5687C79.2268 18.6582 79.1499 18.7477 79.0748 18.848L79.005 18.9429C78.9532 19.0146 78.9013 19.0862 78.8548 19.1614C78.8333 19.1937 78.8136 19.2241 78.7939 19.2581C78.7287 19.3618 78.669 19.4688 78.6151 19.5787C78.5632 19.6807 78.5185 19.7846 78.4737 19.8903C78.2251 20.492 78.0712 21.1331 77.7725 21.7061C77.7063 21.8366 77.631 21.9623 77.5471 22.0822C77.4308 22.2487 77.2967 22.4045 77.1643 22.5621C77.1285 22.6051 77.0927 22.6481 77.057 22.6875C77.0424 22.7084 77.0263 22.7281 77.0087 22.7466C76.9836 22.7806 76.955 22.8128 76.9282 22.8469C76.9013 22.8809 76.896 22.8881 76.8817 22.9078C76.8673 22.9275 76.828 22.9812 76.8047 23.0188C76.7815 23.0564 76.7779 23.0528 76.7654 23.0725C76.7296 23.128 76.6974 23.1853 76.6652 23.2426V23.2552C76.565 23.448 76.51 23.6611 76.5042 23.8784C76.5021 23.9859 76.5178 24.093 76.5507 24.1953C76.5593 24.2216 76.5694 24.2473 76.5811 24.2723C76.6081 24.33 76.6437 24.3831 76.6867 24.4299C76.6652 24.489 76.6402 24.5499 76.6205 24.609C76.574 24.7451 76.531 24.8848 76.4917 25.0227C76.4666 25.1176 76.447 25.2018 76.4255 25.3003C76.3421 25.6629 76.2888 26.0319 76.2663 26.4034L76.1518 26.4625C75.9503 26.5626 75.7431 26.6505 75.5311 26.7257H75.5096C75.3307 26.7651 74.0964 27.023 73.6635 26.9478L72.1197 26.6774C72.1197 26.6774 71.7619 26.5287 71.3702 26.3407C71.0745 26.2114 70.7987 26.0407 70.5509 25.8339C70.2557 25.5151 68.2146 24.2007 67.7853 24.2025C67.6101 24.1751 67.4503 24.0862 67.3345 23.9518C67.2048 23.793 67.0853 23.6261 66.9767 23.4522C66.9767 23.4522 66.9356 23.4307 66.8712 23.3913C66.7907 23.2784 66.7406 23.1943 66.7406 23.1943C66.7406 23.1943 66.1342 22.8612 65.517 22.478L65.2541 23.0152C65.2397 23.0421 65.2272 23.0707 65.2129 23.0994C62.7228 28.2389 60.0002 34.1074 57.163 40.4808C57.1641 40.4867 57.1641 40.4928 57.163 40.4987C56.4153 42.1701 55.661 43.8779 54.9001 45.6222L54.6908 46.1057L54.4118 46.7432L53.6837 48.4265L53.4297 49.0121C52.9467 50.1332 52.4601 51.2673 51.97 52.4146C51.6694 53.1178 51.3677 53.8276 51.0648 54.5439C51.0416 54.603 51.0147 54.6639 50.9897 54.723C50.9754 54.7534 50.9628 54.7856 50.9485 54.8179C50.9074 54.92 50.8627 55.022 50.8197 55.1259C50.7875 55.1993 50.7553 55.2781 50.7231 55.3515C50.4226 56.0678 50.1239 56.7842 49.8287 57.4862L49.6928 57.556L49.7661 57.6366C49.7411 57.6957 49.716 57.753 49.6928 57.8157C48.4584 60.7669 47.2659 63.659 46.115 66.492L45.9862 66.8108L45.9594 66.8735C45.6565 67.622 45.3583 68.3652 45.065 69.103C44.8026 69.762 44.542 70.4151 44.2832 71.0621C40.6858 80.1092 37.643 88.277 35.3801 94.9173C35.2728 94.9907 35.1583 95.0749 35.042 95.1698C35.1583 95.082 35.271 94.9907 35.3747 94.928C35.4642 94.8668 35.5574 94.8112 35.6538 94.7615C35.8644 94.6495 36.0577 94.5078 36.228 94.3407C36.3049 94.269 36.3801 94.1956 36.4534 94.1186C36.873 93.6478 37.2535 93.1435 37.5911 92.6107C37.6456 92.5461 37.7054 92.4862 37.77 92.4317L37.8648 92.3457L37.8791 92.3332C37.931 92.2884 37.9865 92.2383 38.0491 92.1863L38.0598 92.1774L38.1528 92.1004L38.1636 92.0914L38.2637 92.0072C38.5696 91.7565 38.9435 91.4611 39.2995 91.1817L39.4283 91.0832L39.863 90.7465L40.0776 90.5836L40.5517 90.2254C40.556 90.218 40.5608 90.2108 40.566 90.2039C40.6089 90.1484 40.7073 90.0248 40.8451 89.8547C40.8476 89.8507 40.8514 89.8476 40.8558 89.8458C40.872 89.8234 40.8893 89.8019 40.9077 89.7813C41.0973 89.5592 41.3441 89.2817 41.6232 89.0059C41.6572 88.9736 41.6912 88.9378 41.7288 88.9056L41.8307 88.8071L41.9971 88.6585C42.1607 88.5129 42.3327 88.3772 42.5123 88.252C42.7421 88.086 42.9619 87.9066 43.1706 87.7147L43.2153 87.6753C43.2457 87.6449 43.2797 87.6126 43.3155 87.5822C43.3412 87.5603 43.3657 87.537 43.3888 87.5124L43.4657 87.4407L43.5927 87.3207L43.6732 87.2437L43.8629 87.0647L44.0757 86.8534L44.1079 86.8211C44.2171 86.7101 44.328 86.5973 44.4407 86.4862L44.5712 86.3537C44.6249 86.2982 44.6786 86.2409 44.7322 86.1872C44.8235 86.0958 44.9111 86.0081 45.0042 85.9096L45.2027 85.7019C45.2671 85.632 45.3315 85.5676 45.3923 85.5031C45.4907 85.401 45.5837 85.3043 45.6714 85.2094L45.6911 85.1879L45.9183 84.9479C45.9183 84.9479 45.9183 84.9479 45.929 84.9354C45.9844 84.8799 46.0327 84.828 46.0793 84.776L46.124 84.7277C46.1687 84.6847 46.2081 84.6399 46.242 84.6041C46.3762 84.4626 46.4531 84.3785 46.4531 84.3785L48.0631 82.5429L49.7035 80.625L49.7768 80.5426C49.7768 80.5426 50.1954 79.9122 50.623 79.3911L50.6802 79.3213C50.8261 79.1379 50.9897 78.9694 51.1686 78.8181C51.3127 78.6971 51.445 78.5628 51.5639 78.4169C51.5728 78.4169 51.58 78.3972 51.5907 78.3865C52.0737 77.8206 52.698 76.9413 52.8984 76.653L52.9646 76.5599C53.131 76.4215 53.2843 76.268 53.4225 76.1014C53.5905 75.9067 53.7258 75.6859 53.8232 75.4478C53.9176 75.234 54.0378 75.0325 54.181 74.8479C54.1818 74.8449 54.1818 74.8419 54.181 74.8389L54.2096 74.7995L54.3116 74.667C54.438 74.6914 54.5659 74.707 54.6944 74.7136C55.2823 74.736 55.8698 74.661 56.4332 74.4915C56.4496 74.4872 56.4658 74.4818 56.4815 74.4754C56.6282 74.4414 56.7391 74.4091 56.7981 74.3912L56.85 74.3751L57.9609 72.7455L57.9877 72.7079C57.9877 72.7079 58.5745 72.1509 59.1362 71.5546C59.197 71.4901 59.256 71.4257 59.315 71.363C59.7157 70.9296 60.0699 70.5034 60.1397 70.2778C60.3186 69.7137 61.3043 68.5676 61.3043 68.5676C61.3043 68.5676 62.9947 66.4043 63.6548 65.5877C63.6816 65.5537 63.7085 65.5196 63.7317 65.4928L63.8212 65.3835C63.8414 65.3976 63.8605 65.4132 63.8784 65.4301C63.9282 65.4794 63.9731 65.5334 64.0126 65.5913C64.0162 65.5988 64.0204 65.606 64.0251 65.6128L64.0806 65.534C64.1181 65.4838 64.17 65.4068 64.2398 65.3119C64.2936 65.3626 64.3411 65.4198 64.3811 65.482L64.3972 65.5053C64.3972 65.5053 68.1359 60.3371 68.7191 58.8794C68.8536 58.5753 69.0222 58.2875 69.2218 58.0216C69.9856 56.9632 71.2736 55.7419 71.8782 55.1886L72.0571 55.0292C72.1501 54.9432 72.2056 54.8967 72.2056 54.8967L72.27 55.0363C72.27 55.0471 72.27 55.0578 72.2825 55.0704C72.4363 55.4196 72.7476 56.1932 72.5812 56.4063C72.3684 56.6857 71.7977 59.5062 71.7977 59.5062C71.7977 59.5062 71.0196 60.7454 71.524 62.649C72.0285 64.5526 74.1357 65.217 74.6062 65.1776C74.9085 65.1507 77.5525 66.2521 79.4254 67.0597L79.8869 67.2585L80.352 67.4573L81.0765 67.7742L81.1177 67.7922C81.1767 67.8208 81.2375 67.8477 81.2966 67.871L81.3341 67.8208L81.352 67.794L81.5309 67.8781L81.352 67.776C81.4254 67.6722 81.5524 67.4841 81.7098 67.2281C81.7176 67.2104 81.7272 67.1936 81.7384 67.1779L81.7885 67.0938L81.8726 66.9505C81.8815 66.9308 81.8922 66.9147 81.9012 66.8986L81.9871 66.7445C81.9925 66.7372 81.9973 66.7294 82.0014 66.7213C82.1194 66.5064 82.2429 66.2664 82.3591 66.0049C82.377 65.9709 82.3949 65.9333 82.411 65.8975L83.191 65.8312L83.3699 65.8169L83.6024 65.7936L83.7115 65.8151L88.1193 66.1339L88.4413 66.159C88.861 66.1959 89.2839 66.1446 89.6827 66.0085C90.0816 65.8724 90.4476 65.6544 90.7575 65.3685C91.0673 65.0826 91.3141 64.7351 91.482 64.3482C91.65 63.9613 91.7354 63.5436 91.7328 63.1218Z" fill="url(#paint0_linear_1007_38)"/>
<path d="M80.9406 67.9784C80.9406 67.9784 84.2929 63.4298 82.0014 60.9119L76.565 62.5648L76.8512 64.5616C76.8512 64.5616 79.2072 67.2854 80.9406 67.9784Z" fill="#65617D"/>
<path d="M76.565 62.5648L76.8512 64.5616C76.8512 64.5616 78.5149 66.4777 80.0712 67.5056C80.3467 67.6913 80.6397 67.8497 80.9459 67.9784C80.9459 67.9784 80.9656 67.9551 80.9996 67.905C81.0036 67.8993 81.0072 67.8933 81.0104 67.8871C81.4157 67.2988 81.77 66.677 82.0694 66.0282C82.1803 65.7829 82.2894 65.5197 82.3896 65.2528C82.7473 64.2339 82.9692 63.0806 82.6579 62.0598C82.5457 61.6818 82.3583 61.3303 82.1069 61.0266C82.0855 61.0015 82.064 60.9746 82.0389 60.9495C82.0293 60.9361 82.0185 60.9236 82.0067 60.9119L81.8869 60.9478L76.565 62.5648Z" fill="black"/>
<path d="M53.8698 48.6074L53.4136 49.0139L53.6676 48.4283L53.8698 48.6074Z" fill="#65617D"/>
<path d="M53.8698 48.6074L53.4136 49.0139L53.6676 48.4283L53.8698 48.6074Z" fill="black"/>
<path d="M82.5917 61.3399C82.5917 61.3399 80.2268 63.9205 81.6615 65.5555C81.6615 65.5555 82.352 65.756 83.3699 65.9441C85.715 66.3738 89.7883 66.732 91.0941 64.3789C92.9617 61.0086 84.0496 61.3131 84.0496 61.3131L83.3752 61.3256L82.5917 61.3399Z" fill="#FBBEBE"/>
<path d="M82.5917 61.3399C82.5917 61.3399 80.2268 63.9205 81.6615 65.5555C81.6615 65.5555 82.352 65.756 83.3699 65.9441L83.6704 65.9172C83.2785 65.7777 82.9219 65.554 82.6257 65.2618C82.2464 64.8696 81.9781 64.2804 82.2894 63.4531C82.4628 62.9802 82.6654 62.5184 82.8958 62.0706C83.0286 61.8059 83.1893 61.5561 83.3752 61.3256L82.5917 61.3399Z" fill="black"/>
<path d="M78.5972 66.3291L79.3914 66.261L83.4271 65.9082C83.0357 65.7689 82.6796 65.5452 82.3842 65.2528C82.005 64.8588 81.7348 64.2715 82.0461 63.4441C82.2204 62.9709 82.4229 62.5087 82.6525 62.0598C83.0353 61.3435 83.3305 61.0713 83.4933 61.0498C83.6561 61.0283 82.7008 60.9567 82.2411 60.9263H82.2232C82.0926 60.9155 82.0067 60.9119 82.0067 60.9119L81.8815 60.9478L80.0998 61.4635L80.0426 61.5047C79.6061 61.8217 76.9765 63.8793 78.5972 66.3291Z" fill="#E7EFFD"/>
<path d="M58.0056 67.3176L55.2543 73.6122C55.2543 73.6122 54.7767 74.1137 54.3474 74.6419C54.3406 74.6523 54.3328 74.6619 54.3241 74.6706L54.2204 74.8049C54.2092 74.8165 54.199 74.8291 54.19 74.8425C54.1907 74.8454 54.1907 74.8485 54.19 74.8515C54.0055 75.0729 53.8515 75.318 53.732 75.5803C53.6554 75.7681 53.5537 75.9446 53.4297 76.105C53.2745 76.3065 53.0989 76.4914 52.9056 76.6566C52.8973 76.6651 52.8883 76.6729 52.8787 76.6799C52.8787 76.6799 52.1632 77.706 51.5979 78.3901C51.5872 78.4008 51.58 78.4133 51.5711 78.4205C51.4269 78.6009 51.2671 78.7681 51.0934 78.9201C50.9457 79.042 50.8098 79.1775 50.6874 79.3249L50.6301 79.3947C50.1811 79.9319 49.7106 80.6286 49.7106 80.6286L48.0721 82.4964L46.403 84.3856L46.2438 84.5647L46.1258 84.6883L46.081 84.7366L45.9308 84.896C45.9308 84.896 45.9218 84.896 45.9201 84.9086L45.6929 85.1485L45.6732 85.17C45.5837 85.2613 45.4943 85.3598 45.3941 85.4637C45.3333 85.5282 45.2689 85.5926 45.2045 85.6625L45.0059 85.8702C44.9165 85.9615 44.8271 86.0493 44.734 86.1478C44.6804 86.2015 44.6267 86.2588 44.573 86.3143L44.4425 86.4468C44.3298 86.5579 44.2188 86.6707 44.1097 86.7817L44.0775 86.8139L43.8647 87.0253L43.675 87.2043L43.5945 87.2813L43.4675 87.4013L43.3906 87.473C43.3675 87.4976 43.343 87.5209 43.3173 87.5428C43.2833 87.5768 43.2493 87.6073 43.2171 87.6359L43.1724 87.6753C42.9585 87.8788 42.7314 88.0678 42.4926 88.2412C42.2609 88.4054 42.0404 88.5849 41.8325 88.7785L41.7305 88.8769C41.693 88.9092 41.659 88.945 41.625 88.9772C41.3477 89.253 41.1009 89.5306 40.9095 89.7526C40.8911 89.7732 40.8738 89.7948 40.8576 89.8171C40.8532 89.8189 40.8494 89.8221 40.8468 89.8261C40.7091 89.9926 40.6107 90.1198 40.5678 90.1753L40.5445 90.2039L40.0705 90.5621L39.8558 90.725L39.4211 91.0617L39.2923 91.1602C38.9346 91.4396 38.5625 91.735 38.2566 91.9858L38.1564 92.0699L38.1457 92.0789L38.0526 92.1559L38.0419 92.1648C37.9793 92.2168 37.9238 92.2669 37.872 92.3117L37.8577 92.3242L37.7628 92.4102C37.7062 92.4597 37.6541 92.5142 37.6072 92.5731C37.2655 93.1116 36.8789 93.6202 36.4516 94.0935C36.3783 94.1705 36.3031 94.2439 36.2262 94.3156C36.0659 94.4701 35.8854 94.602 35.6896 94.7078C35.5837 94.7605 35.4815 94.8203 35.3837 94.8868C37.6466 88.2466 40.6894 80.0788 44.2868 71.0317C44.5444 70.3834 44.805 69.7304 45.0686 69.0726C45.3655 68.3348 45.6636 67.5916 45.963 66.843L45.9898 66.7804L46.1186 66.4616C47.2635 63.6321 48.4561 60.74 49.6963 57.7852C49.7196 57.7261 49.7446 57.6688 49.7697 57.6061L49.6963 57.5256L49.8323 57.4557C50.1292 56.7394 50.428 56.0374 50.7267 55.3211C50.7589 55.2477 50.7911 55.1689 50.8233 55.0954C50.8662 54.9916 50.911 54.8895 50.9521 54.7874C50.9664 54.7552 50.979 54.723 50.9933 54.6925C51.0183 54.6316 51.0451 54.5707 51.0684 54.5134C51.3725 53.7971 51.6742 53.0874 51.9736 52.3842L55.1255 55.912L55.2579 56.0571L57.4582 58.4836L57.5924 58.6287L58.6478 59.7927L58.8267 59.9879L61.0306 62.418L61.0592 62.4502L61.1629 62.5631L58.0056 67.3176Z" fill="#3F3D56"/>
<path d="M73.7708 27.7053L73.3308 33.8853C73.3308 33.8853 78.6151 36.3924 78.7707 35.472C78.8333 35.1138 79.522 34.5228 80.3449 33.9355C81.6418 33.006 83.2715 32.0802 83.2715 32.0802C83.2715 32.0802 77.9568 24.0592 77.3253 25.7354C77.0945 26.3479 76.5597 26.7759 75.9729 27.0713C75.2775 27.3994 74.534 27.6134 73.7708 27.7053Z" fill="#FBBEBE"/>
<path d="M77.3253 25.7354C77.0945 26.3479 77.1464 26.4893 76.5615 26.7848C76.4273 28.6007 76.4309 30.7514 77.7654 32.193C78.478 32.9669 79.3613 33.5636 80.3449 33.9355C81.6418 33.006 83.2715 32.0802 83.2715 32.0802C83.2715 32.0802 77.9568 24.0592 77.3253 25.7354Z" fill="black"/>
<path d="M78.2609 22.4493C77.6048 23.0571 77.0746 23.7883 76.7008 24.6012C76.327 25.4141 76.1167 26.2927 76.0821 27.187C76.0475 28.0812 76.1891 28.9735 76.4989 29.8129C76.8088 30.6523 77.2808 31.4225 77.8879 32.0793C78.495 32.7361 79.2255 33.2668 80.0375 33.641C80.8495 34.0153 81.7272 34.2257 82.6204 34.2604C83.5137 34.2951 84.405 34.1533 85.2436 33.8431C86.0821 33.5329 86.8514 33.0605 87.5075 32.4527L87.5773 32.3846C88.8926 31.1479 89.6634 29.4387 89.7199 27.633C89.7764 25.8274 89.1141 24.0732 87.8787 22.7564C86.6432 21.4396 84.9359 20.6681 83.1322 20.6115C81.3285 20.5549 79.5762 21.2179 78.2609 22.4547V22.4493Z" fill="#FBBEBE"/>
<path d="M58.3598 65.6522C58.1344 65.9476 57.7605 65.8832 57.1595 65.097C56.8802 64.7543 56.5758 64.4329 56.2489 64.1354C56.1881 64.0781 56.1237 64.019 56.0611 63.9563C55.3939 63.342 54.5388 62.6096 53.6175 61.7787L53.5585 61.7267C53.1488 61.3561 52.7213 60.9639 52.2956 60.5574L52.0415 60.3138C51.4584 59.7497 50.8734 59.1516 50.3153 58.523L50.2902 58.498C50.0845 58.2687 49.8806 58.0359 49.6785 57.8103C49.7017 57.7512 49.7267 57.6939 49.7518 57.6312L49.6785 57.5506L49.8144 57.4808C50.1114 56.7645 50.4101 56.0625 50.7088 55.3462C50.741 55.2727 50.7732 55.1939 50.8054 55.1205C50.8484 55.0166 50.8931 54.9146 50.9342 54.8125C50.9485 54.7803 50.9611 54.748 50.9754 54.7176L51.1847 54.979C51.5246 55.4053 51.8716 55.8332 52.2222 56.2577L52.2526 56.2953C52.4512 56.5335 52.648 56.7716 52.8465 57.0116C52.8555 57.0116 52.8626 57.0313 52.8716 57.0385C53.0916 57.3017 53.317 57.5596 53.5442 57.8067L53.6766 57.9482C53.9198 58.2114 54.1631 58.4586 54.4064 58.6985C54.9788 59.2608 55.5441 59.773 56.0647 60.2028C56.1148 60.2458 56.1631 60.287 56.2149 60.3281C56.6747 60.7114 57.0986 61.0445 57.4671 61.3059L57.6335 61.4313L57.841 61.5799C58.324 61.9273 58.6192 62.1171 58.6192 62.1171C58.6192 62.1171 58.646 62.3625 58.6675 62.7242C58.68 62.9337 58.6925 63.1827 58.6979 63.4405C58.705 64.2786 58.6532 65.2672 58.3598 65.6522Z" fill="black"/>
<path d="M58.3598 65.6522C58.129 65.7901 57.7838 65.636 57.2865 64.9824C56.9958 64.6261 56.6783 64.2926 56.3366 63.9849L56.3187 63.9688L56.1488 63.8076C55.5048 63.2167 54.6944 62.5183 53.8232 61.7303C53.8029 61.7145 53.7838 61.6971 53.766 61.6784C53.2848 61.2486 52.7875 60.783 52.2866 60.3067C52.2025 60.2279 52.1185 60.1455 52.0326 60.0613C51.4959 59.5384 50.9593 58.9868 50.4441 58.412L50.4208 58.3851L49.7554 57.6402L49.682 57.5596L49.818 57.4897C50.1149 56.7734 50.4137 56.0714 50.7124 55.3551C50.7446 55.2817 50.7768 55.2029 50.809 55.1295C50.8519 55.0256 50.8967 54.9235 50.9378 54.8215C50.9521 54.7892 50.9646 54.757 50.979 54.7265C51.004 54.6657 51.0308 54.6048 51.0541 54.5475C51.4244 55.0113 51.8054 55.4858 52.19 55.955C52.1944 55.9584 52.1981 55.9627 52.2007 55.9676L52.3796 56.1896C52.5853 56.4385 52.7911 56.6839 52.9968 56.931C53.1757 57.1513 53.3689 57.3644 53.5567 57.5721C53.5889 57.6097 53.6229 57.6455 53.6569 57.6814C53.6909 57.7172 53.7445 57.778 53.7875 57.8246C54.5365 58.6216 55.3328 59.3727 56.172 60.0738C56.2203 60.1168 56.2704 60.158 56.3205 60.1992C56.7641 60.5681 57.1738 60.8887 57.5244 61.1519C57.5906 61.1985 57.6532 61.2468 57.714 61.2916L57.9215 61.4402C58.4278 61.7984 58.7372 62.0007 58.7372 62.0007C58.7372 62.0007 58.7802 62.4126 58.8034 62.9624C58.8124 63.1898 58.8177 63.4388 58.8159 63.693C58.8106 64.5455 58.714 65.4409 58.3598 65.6522Z" fill="#5F5D7E"/>
<path d="M79.4791 40.2784L59.2023 64.6099C59.0919 64.2969 58.9628 63.9907 58.8159 63.693C58.7766 63.6142 58.7355 63.5301 58.6889 63.4441C58.4138 62.8916 58.0418 62.393 57.5906 61.9721C57.5244 61.9148 57.4564 61.8611 57.3884 61.8127L57.2757 61.7375C57.1672 61.6694 57.0522 61.6124 56.9323 61.5674C56.5233 61.3798 56.1512 61.1202 55.8339 60.8009L55.6908 60.6684C54.9103 59.8766 54.1926 59.0252 53.5442 58.1219C53.503 58.0664 53.4637 58.0126 53.4279 57.9607C53.2168 57.6724 53.0916 57.4897 53.0916 57.4897C53.0916 57.4897 52.9556 57.325 52.7338 57.0796C52.5549 56.8719 52.3242 56.6069 52.0755 56.3383C51.6909 55.8953 51.265 55.4899 50.8036 55.1277C50.8466 55.0238 50.8913 54.9217 50.9324 54.8197C50.9468 54.7874 50.9593 54.7552 50.9736 54.7248C50.9986 54.6639 51.0255 54.603 51.0487 54.5457C51.3528 53.8294 51.6545 53.1196 51.9539 52.4164C52.444 51.2703 52.9306 50.1361 53.4136 49.0139L53.6676 48.4283L54.3957 46.745L54.6747 46.1075L54.884 45.6239C55.6461 43.8833 56.4004 42.1755 57.1469 40.5005L68.8228 30.1139L70.2289 29.4441L71.5831 28.803L72.5526 29.0824L72.6975 29.1218L73.6385 29.394H73.651L73.8782 29.4603L74.3451 29.5946L74.5758 32.6908V32.8037L75.0016 33.4161L75.2663 33.8011L75.3808 33.8459L75.8656 34.0339L76.0123 34.0895L76.0659 34.1109L77.6938 34.7431L77.9818 35.6385L78.1607 36.2151L78.2591 36.5249L78.3539 36.7506L79.4791 40.2784Z" fill="black"/>
<path d="M79.7295 40.0456L59.4492 64.3753L59.4331 64.3288C59.262 63.8558 59.0501 63.3986 58.7999 62.9624C58.7551 62.8836 58.705 62.803 58.655 62.7242C58.4173 62.3312 58.1183 61.9787 57.7695 61.6802C57.7015 61.6265 57.6335 61.5763 57.5637 61.5316C57.5119 61.4963 57.4582 61.464 57.4028 61.4348C57.3316 61.3972 57.2581 61.3643 57.1827 61.3364C56.7586 61.141 56.3736 60.8697 56.0468 60.5359L55.9019 60.4016C55.3677 59.8672 54.8671 59.3002 54.4028 58.7039C54.1542 58.3869 53.9342 58.095 53.7571 57.8551L53.6408 57.6939C53.6086 57.6509 53.58 57.6097 53.5531 57.5703C53.4136 57.3769 53.3331 57.2587 53.3331 57.2587C53.3331 57.2587 52.7964 56.6033 52.1936 55.9658C52.1909 55.9609 52.1873 55.9566 52.1829 55.9532C51.872 55.6084 51.5372 55.2858 51.1811 54.988C51.1022 54.9259 51.0184 54.8702 50.9307 54.8215C50.945 54.7892 50.9575 54.757 50.9718 54.7265C50.9968 54.6657 51.0237 54.6048 51.0469 54.5475C51.351 53.8311 51.6528 53.1214 51.9521 52.4182C52.4422 51.2721 52.9288 50.1379 53.4118 49.0157L53.6658 48.4301L54.3939 46.7468L54.6729 46.1093L54.8822 45.6257C55.6443 43.8851 56.3986 42.1773 57.1452 40.5023C57.1462 40.4964 57.1462 40.4903 57.1452 40.4844L69.0679 29.8757L71.8281 28.5631L72.7601 28.8317L72.905 28.8729L73.6653 29.0931L73.8442 29.1433L74.0553 29.2042L74.5919 29.36L74.8316 32.5691L74.9533 32.7482L74.9729 32.7768L74.998 32.8144L75.3683 33.3517L75.5185 33.5701L76.116 33.8029L77.9478 34.5139L78.3861 35.8874L78.4827 36.1883L78.5292 36.3351L78.5596 36.4264L79.7295 40.0456Z" fill="#E7EFFD"/>
<path d="M76.9478 35.5633C76.9478 35.5633 74.5973 35.6761 74.3433 35.9501C74.0892 36.2241 73.4792 36.8688 73.4792 36.8688L72.5562 39.2828C72.5562 39.2828 70.8639 41.7093 70.4239 42.1176C69.9838 42.5259 66.8461 46.7987 66.8461 46.7987L61.7873 53.1256L55.1184 61.374L52.1185 62.0491L52.0075 59.6548L64.077 45.1494L66.4329 42.2644C66.4329 42.2644 70.9301 37.3541 71.4417 36.892C71.9533 36.43 73.481 35.4326 73.481 35.4326C73.481 35.4326 74.4864 33.9999 73.7315 32.5852C72.9766 31.1705 73.871 32.6121 73.871 32.6121L74.998 32.7768L75.2914 33.5576C75.2914 33.5576 77.2233 34.684 76.9478 35.5633Z" fill="black"/>
<path d="M77.1893 35.5722C77.1893 35.5722 74.8388 35.6851 74.5848 35.959C74.3307 36.233 73.7207 36.8777 73.7207 36.8777L72.8084 39.2917C72.8084 39.2917 71.1072 41.7182 70.6618 42.123C70.2164 42.5277 67.0841 46.8059 67.0841 46.8059L62.027 53.1309L55.3581 61.3811L52.3582 62.0545L52.2508 59.6727L64.3185 45.1673L66.6762 42.2805C66.6762 42.2805 71.1734 37.3702 71.6761 36.9082C72.1787 36.4461 73.7154 35.4487 73.7154 35.4487C73.7154 35.4487 74.7207 34.016 73.9658 32.6031C73.2109 31.1902 74.1071 32.6282 74.1071 32.6282L75.2341 32.7929L75.5275 33.5737C75.5275 33.5737 77.4595 34.693 77.1893 35.5722Z" fill="white"/>
<path d="M80.073 34.2667C80.073 34.2667 80.1016 34.5515 79.302 35.3717C78.5024 36.1918 77.1553 38.5288 77.1553 38.5288C77.1553 38.5288 76.6455 34.9472 75.4685 34.0089L80.073 34.2667Z" fill="black"/>
<path d="M80.3216 34.0339C80.3216 34.0339 80.3521 34.3187 79.5524 35.1371C78.7528 35.9555 77.4058 38.296 77.4058 38.296C77.4058 38.296 76.896 34.7144 75.7171 33.7743L80.3216 34.0339Z" fill="#E7EFFD"/>
<path d="M75.227 27.6802L75.3915 33.9247C75.3915 33.9247 70.9909 32.621 70.2217 32.6318C69.4525 32.6425 73.6349 28.0652 73.6349 28.0652L75.227 27.6802Z" fill="black"/>
<path d="M75.3629 27.3203L75.5275 33.5648C75.5275 33.5648 71.1269 32.2611 70.3577 32.2718C69.5885 32.2826 73.769 27.7053 73.769 27.7053L75.3629 27.3203Z" fill="#E7EFFD"/>
<path d="M79.9639 34.1396C79.9639 34.1396 80.5005 34.3438 80.2876 35.2141C80.0748 36.0844 80.4433 36.9816 80.4433 36.9816C80.4433 36.9816 83.3699 41.3672 83.0014 41.9815L84.5469 43.8636C84.5469 43.8636 85.046 44.571 83.7831 45.8585C82.5201 47.1461 82.7098 47.5992 82.7098 47.5992C82.7098 47.5992 82.089 49.5404 81.3592 50.1063C80.6293 50.6722 80.878 51.607 80.878 51.607L71.6313 55.3014C71.6313 55.3014 68.728 57.8085 68.1574 59.2429C67.5867 60.6773 63.8641 65.8026 63.8641 65.8026C63.8641 65.8026 63.5976 65.3459 63.365 65.6002C63.1325 65.8545 60.7926 68.8434 60.7926 68.8434C60.7926 68.8434 59.8195 69.9805 59.6352 70.5392C59.451 71.098 57.4994 72.9496 57.4994 72.9496L56.3849 74.6061C56.3849 74.6061 53.8626 75.4621 52.9861 74.0098C52.1095 72.5575 54.8214 65.9405 54.8214 65.9405L58.6603 59.7694L62.7264 53.9726L65.8748 50.468L73.0302 42.9055L77.3861 37.5045C77.3861 37.5045 79.327 34.1772 79.9639 34.1396Z" fill="black"/>
<path d="M80.3216 34.0339C80.3216 34.0339 80.8583 34.2363 80.6454 35.0995C80.4325 35.9626 80.7993 36.867 80.7993 36.867C80.7993 36.867 83.7276 41.2526 83.3591 41.8669L84.9047 43.749C84.9047 43.749 85.4038 44.4564 84.1409 45.7439C82.8779 47.0315 83.0675 47.4846 83.0675 47.4846C83.0675 47.4846 82.4468 49.4258 81.7169 49.9917C80.9871 50.5576 81.2357 51.4924 81.2357 51.4924L71.9855 55.1796C71.9855 55.1796 69.0965 57.7028 68.5152 59.1355C67.9338 60.5681 64.2219 65.6934 64.2219 65.6934C64.2219 65.6934 63.9553 65.2367 63.7228 65.491C63.4902 65.7453 61.1504 68.7341 61.1504 68.7341C61.1504 68.7341 60.1773 69.8713 59.993 70.4318C59.8088 70.9923 57.8571 72.8404 57.8571 72.8404L56.7409 74.4987C56.7409 74.4987 54.2204 75.3529 53.342 73.9006C52.4637 72.4482 55.1899 65.8312 55.1899 65.8312L59.0342 59.662L63.1003 53.8652L66.2433 50.3606L73.3987 42.7981L77.7546 37.397C77.7546 37.397 79.6955 34.0644 80.3216 34.0339Z" fill="#65617D"/>
<path d="M76.565 62.5648L76.8512 64.5616C76.8512 64.5616 78.5149 66.4777 80.0712 67.5056L80.9996 67.905L81.1785 67.9856L80.9996 67.8871C80.1428 67.3767 79.6383 66.8251 79.3896 66.261C78.3754 64.0011 81.3932 61.5548 82.0998 61.0266C82.1695 60.9728 82.2143 60.9388 82.2339 60.9263H82.2429H82.216C82.1571 60.9386 82.0973 60.9464 82.0372 60.9495C81.9865 60.9522 81.9358 60.9522 81.8851 60.9495L80.0998 61.4635L80.0426 61.5047L76.565 62.5648Z" fill="black"/>
<path d="M80.8583 50.742L81.2357 51.4852L80.1177 52.6779C80.1177 52.6779 80.8619 53.2724 80.2197 54.2197C79.5775 55.1671 79.5041 55.853 79.5041 55.853C79.5041 55.853 79.6079 57.9034 78.8476 58.7182L79.0694 59.8518C79.0694 59.8518 80.9817 61.1609 82.0014 60.9173C82.0014 60.9173 75.8906 65.1776 80.9406 67.9838C80.9406 67.9838 74.7941 65.2976 74.3218 65.3406C73.8495 65.3835 71.7745 64.7353 71.2807 62.8532C70.787 60.971 71.5616 59.7461 71.5616 59.7461C71.5616 59.7461 72.1358 56.9525 72.3487 56.6767C72.5616 56.4009 71.9802 55.185 71.9802 55.185L74.6742 49.3345L80.8583 50.742Z" fill="#65617D"/>
<path d="M75.3611 27.3221V27.3328L75.1 27.7071L74.0606 29.2024L73.8817 29.4567L73.1662 30.4971L61.052 42.5026L56.1076 45.3679C56.1076 45.3679 55.401 45.726 54.6765 46.1021L54.8858 45.6186C55.6479 43.8779 56.4022 42.1701 57.1487 40.4951C57.1498 40.4892 57.1498 40.4831 57.1487 40.4772C59.9912 34.1038 62.7139 28.2354 65.1986 23.0958C65.2404 23.1144 65.2805 23.1366 65.3185 23.162C65.8784 23.5363 66.5403 23.9124 66.7925 24.0574L66.898 24.1165C67.0065 24.2905 67.126 24.4574 67.2558 24.6162C67.4615 24.8651 67.7173 25.1086 67.9284 25.1086C68.3542 25.1086 70.3684 26.3962 70.66 26.7204C70.7933 26.8434 70.9433 26.9471 71.1054 27.0284C71.5759 27.2916 72.2056 27.5513 72.2056 27.5513L73.676 27.8002L73.7333 27.8109H73.7511C74.1465 27.8629 75.0033 27.4886 75.2663 27.3632L75.3414 27.3292L75.3611 27.3221Z" fill="black"/>
<path d="M75.3647 27.3221L73.8585 29.1254L73.6671 29.3564L73.6528 29.3689L72.9372 30.2267L60.8231 42.234L55.8786 45.0992L54.8966 45.6025C55.6586 43.8618 56.4129 42.154 57.1595 40.479C57.1605 40.4731 57.1605 40.467 57.1595 40.4611C60.002 34.0877 62.7246 28.2192 65.2093 23.0797C65.2236 23.051 65.2362 23.0224 65.2505 22.9955C65.9249 23.4342 66.6816 23.8461 66.6816 23.8461C66.6816 23.8461 66.7299 23.9267 66.8086 24.0395C66.9459 24.2404 67.1023 24.4275 67.2755 24.5983C67.3894 24.7276 67.5452 24.8126 67.7155 24.8382C68.1413 24.8382 70.1555 26.1258 70.4471 26.4499C70.6615 26.6352 70.9028 26.7868 71.1627 26.8994C71.5741 27.1072 71.9927 27.2791 71.9927 27.2791L73.5186 27.5405C73.9229 27.6086 75.0373 27.3794 75.3075 27.3203C75.3223 27.3218 75.3373 27.3218 75.3522 27.3203H75.3629L75.3647 27.3221Z" fill="#65617D"/>
<path d="M46.1204 67.0651L45.9415 66.8717L45.9683 66.809C46.013 66.8978 46.0638 66.9834 46.1204 67.0651Z" fill="black"/>
<path d="M45.7555 69.1639L44.2671 71.0693C44.5247 70.421 44.7853 69.768 45.0489 69.1102L45.7555 69.1639Z" fill="black"/>
<path d="M52.9932 56.9292L52.8447 57.0152L52.7338 57.0796L50.4369 58.4192L50.4137 58.3923L49.7482 57.6473L49.6749 57.5667L49.8108 57.4969L52.2204 56.2738L52.3778 56.195C52.5836 56.4367 52.7875 56.6821 52.9932 56.9292Z" fill="#3F3D56"/>
<path d="M82.3591 46.3438C82.3591 46.3438 81.0855 45.8066 80.3037 46.1433C79.522 46.4799 82.3591 46.3438 82.3591 46.3438Z" fill="black"/>
<path d="M78.7117 55.0328C78.7117 55.0328 78.3181 57.898 77.184 57.9303C76.0498 57.9625 78.7117 55.0328 78.7117 55.0328Z" fill="black"/>
<path d="M55.4565 53.6521C55.4654 53.4085 57.0664 46.5444 56.0647 46.2221L55.4565 53.6521Z" fill="black"/>
<path d="M78.2609 22.4493C77.4381 23.211 76.8162 24.1646 76.4505 25.225L76.4917 25.2573C76.8495 25.5116 77.3736 25.3343 77.828 25.3629C78.1067 25.3809 78.3728 25.4857 78.589 25.6626C78.8052 25.8396 78.9607 26.0798 79.0337 26.3497C79.094 26.6352 79.0736 26.932 78.9747 27.2066C78.8758 27.4812 78.7023 27.7228 78.4737 27.9041C79.293 27.4403 79.9603 26.7293 80.7778 26.2619C81.5953 25.7945 82.7115 25.6315 83.3198 26.2619C83.5809 26.5341 83.7723 26.9567 84.1659 26.9657C84.402 26.9657 84.6238 26.8135 84.86 26.7615C86.0281 26.5323 86.9476 28.2819 87.0943 29.2078C87.2392 30.1032 87.2481 31.3567 87.5773 32.3757C88.2286 31.7633 88.753 31.0285 89.1206 30.2132C89.4883 29.3979 89.6919 28.5181 89.7199 27.6241C89.7479 26.73 89.5997 25.8392 89.2838 25.0025C88.9678 24.1657 88.4904 23.3995 87.8787 22.7475C87.267 22.0955 86.5329 21.5705 85.7185 21.2024C84.9041 20.8344 84.0253 20.6306 83.1322 20.6025C82.2391 20.5745 81.3492 20.7229 80.5134 21.0391C79.6776 21.3554 78.9122 21.8333 78.2609 22.4457V22.4493Z" fill="black"/>
<path d="M84.9852 26.6487C84.7491 26.6989 84.529 26.8582 84.2911 26.8529C83.8994 26.8529 83.7062 26.4213 83.445 26.1491C82.8386 25.5151 81.7223 25.6763 80.9048 26.1491C80.0873 26.6219 79.4201 27.3292 78.599 27.793C78.8282 27.6123 79.0021 27.3708 79.1011 27.096C79.2001 26.8213 79.2201 26.5242 79.1589 26.2386C79.0859 25.9688 78.9304 25.7285 78.7142 25.5516C78.498 25.3746 78.2319 25.2698 77.9532 25.2519C77.4988 25.2232 76.9782 25.4005 76.6187 25.1445C76.2591 24.8884 76.2806 24.3028 76.5078 23.8802C76.735 23.4575 77.1088 23.1244 77.3843 22.7287C77.9067 21.9801 78.048 21.0561 78.4576 20.2431C78.954 19.2604 79.7946 18.4954 80.8189 18.0941C81.3556 17.8864 81.9316 17.7915 82.4718 17.5855C83.2929 17.2739 84.0264 16.7116 84.8689 16.4788C86.2785 16.0884 87.8331 16.8119 88.359 18.1013C88.6112 18.7155 88.6452 19.4193 88.9243 20.021C89.2999 20.8269 90.0638 21.3516 90.7471 21.9103C91.4305 22.469 92.0959 23.1638 92.1514 24.0789C92.2158 25.1248 91.4537 26.133 91.4358 27.186C91.4358 27.6283 91.5557 28.0527 91.5771 28.4914C91.5986 28.9302 91.4895 29.4298 91.1264 29.7128C90.6577 30.0799 89.8742 30.019 89.613 30.5491C89.5484 30.7138 89.5168 30.8897 89.52 31.0666C89.4637 31.9891 89.1943 32.886 88.7329 33.6865C87.3429 32.8878 87.4556 30.5222 87.2266 29.1021C87.0728 28.1691 86.1551 26.4195 84.9852 26.6487Z" fill="#7C5C5C"/>
<path d="M76.9389 49.7499C76.9389 49.7499 72.1555 54.1839 72.0625 55.031C71.9694 55.878 76.9389 49.7499 76.9389 49.7499Z" fill="black"/>
<path d="M89.9582 30.0996C90.2087 29.582 90.9671 29.6268 91.4376 29.2866C91.369 29.4507 91.2601 29.5948 91.121 29.7056C90.7775 29.9742 90.2641 30.0154 89.9117 30.2249C89.923 30.1817 89.9385 30.1397 89.9582 30.0996Z" fill="black"/>
<path d="M78.9925 27.3185C79.7921 26.8564 80.4522 26.1616 81.2554 25.7068C82.0586 25.2519 83.1892 25.0764 83.7956 25.7068C84.0568 25.979 84.25 26.4016 84.6417 26.4105C84.8797 26.4105 85.0997 26.2565 85.3358 26.2064C86.5057 25.9772 87.4234 27.7268 87.5719 28.6526C87.7955 30.0405 87.6935 32.3255 88.9833 33.1762C88.9046 33.3552 88.8223 33.5146 88.7275 33.6794C87.3375 32.8807 87.4502 30.515 87.2213 29.0949C87.0728 28.1691 86.1479 26.4195 84.9852 26.6487C84.7491 26.6989 84.529 26.8582 84.2911 26.8529C83.8994 26.8529 83.7062 26.4213 83.445 26.1491C82.8386 25.5151 81.7223 25.6763 80.9048 26.1491C80.0873 26.6219 79.4201 27.3292 78.599 27.793C78.7601 27.6624 78.8939 27.5011 78.9925 27.3185Z" fill="black"/>
<path d="M76.8584 23.4325C76.6312 23.8551 76.6026 24.4371 76.9693 24.6968C77.336 24.9564 77.8494 24.7755 78.3038 24.8042C78.5826 24.8223 78.8489 24.9271 79.0654 25.104C79.2818 25.2809 79.4377 25.5211 79.5113 25.7909C79.5683 26.0628 79.552 26.345 79.464 26.6084C79.376 26.8719 79.2194 27.1071 79.0104 27.2898C79.1882 26.9679 79.241 26.5917 79.1589 26.2333C79.0859 25.9634 78.9304 25.7232 78.7142 25.5462C78.498 25.3693 78.2319 25.2645 77.9532 25.2465C77.4988 25.2179 76.9782 25.3952 76.6187 25.1391C76.2591 24.883 76.2806 24.2974 76.5078 23.8748C76.6485 23.6327 76.8146 23.4064 77.0033 23.1997C76.9506 23.2744 76.9022 23.3522 76.8584 23.4325Z" fill="black"/>
<path d="M78.8029 19.7954C78.3986 20.6084 78.2662 21.5324 77.7296 22.281C77.624 22.4332 77.5042 22.5747 77.3843 22.7161C77.9031 21.9694 78.0444 21.0471 78.4469 20.2377C78.629 19.8732 78.8615 19.5362 79.1374 19.2366C79.0115 19.4138 78.8996 19.6006 78.8029 19.7954Z" fill="black"/>
<path d="M91.7346 64.2464C91.7731 64.2464 91.8043 64.2151 91.8043 64.1766C91.8043 64.138 91.7731 64.1067 91.7346 64.1067C91.696 64.1067 91.6648 64.138 91.6648 64.1766C91.6648 64.2151 91.696 64.2464 91.7346 64.2464Z" fill="#E6E8EC"/>
<path d="M146.56 136.095C146.603 138.244 128.823 135.686 129.488 133.946L129.395 133.973C127.156 134.481 115.322 130.343 116.272 128.457C106.566 119.768 102.182 111.964 110.874 94.4374C110.913 94.3217 110.936 94.2012 110.942 94.0792C110.942 94.0362 110.958 93.9932 110.965 93.952C110.995 93.798 111.024 93.644 111.054 93.49C111.054 93.465 111.063 93.4417 111.069 93.4184C111.074 93.3951 111.085 93.3432 111.092 93.3056C111.342 92.0126 111.621 90.7143 111.927 89.4106C113.442 82.8085 115.583 76.3664 118.322 70.1721C118.38 70.0486 118.433 69.925 118.491 69.8032C118.523 69.7298 118.557 69.6564 118.591 69.5847L118.811 69.1048C118.82 69.0833 118.83 69.0636 118.839 69.0421C118.875 68.9705 118.907 68.8989 118.941 68.829C121.199 63.9939 123.725 59.7497 126.381 56.263C125.129 55.5467 121.081 50.0776 122.088 45.7654C123.161 41.1882 129.031 39.4403 130.487 39.7788C131.943 40.1173 132.258 44.1054 131.191 48.6826C130.946 49.7518 130.63 50.8035 130.245 51.8308C134.896 47.2213 139.765 45.0151 144.216 46.052C147.908 46.9133 150.869 49.9039 152.994 54.4346C153.037 54.2251 153.085 54.0138 153.134 53.8007C154.207 49.2234 156.241 45.7869 157.699 46.1254C159.157 46.4638 164.064 51.5246 162.997 56.1019C162.291 59.1462 156.558 60.6039 155.445 61.8664C157.634 71.6871 158.235 86.1675 159.776 100.639C161.819 119.874 158.282 130.151 146.56 136.095Z" fill="white"/>
<path d="M144.134 72.3479C143.325 75.8185 138.664 77.7472 133.388 76.9753C132.93 76.9085 132.469 76.8213 132.005 76.7139C131.624 76.6244 131.251 76.5235 130.887 76.4112C125.68 74.8121 122.235 70.9547 123.056 67.4304C123.671 64.7801 126.54 63.0269 130.211 62.692C131.009 62.6228 131.811 62.6175 132.61 62.6759C133.477 62.7408 134.337 62.8743 135.182 63.0752C141.003 64.4237 145.01 68.5783 144.134 72.3479Z" fill="black"/>
<path d="M141.792 74.4912C142.342 72.1275 139.959 69.5513 136.469 68.737C132.98 67.9227 129.704 69.1788 129.154 71.5425C128.604 73.9062 130.987 76.4825 134.476 77.2968C137.966 78.111 141.241 76.8549 141.792 74.4912Z" fill="#3F3D56"/>
<path d="M131.993 64.866C131.211 66.7374 130.683 66.261 130.025 65.9888C129.367 65.7166 128.839 65.7453 129.623 63.8739C129.793 63.4671 129.989 63.0718 130.209 62.6902C131.007 62.6211 131.809 62.6157 132.608 62.6741C132.5 63.4287 132.294 64.1657 131.993 64.866Z" fill="white"/>
<path d="M133.388 76.9753C132.93 76.9085 132.469 76.8213 132.005 76.7139C131.624 76.6244 131.251 76.5235 130.887 76.4112C131.308 74.4861 131.977 74.3321 132.655 74.4718C133.333 74.6115 133.776 75.018 133.388 76.9753Z" fill="white"/>
<path d="M137.055 58.9868C139.244 58.9868 141.018 57.2109 141.018 55.0202C141.018 52.8295 139.244 51.0536 137.055 51.0536C134.867 51.0536 133.093 52.8295 133.093 55.0202C133.093 57.2109 134.867 58.9868 137.055 58.9868Z" fill="black"/>
<path d="M128.626 48.2429C129.007 46.6045 128.6 45.109 127.716 44.9027C126.831 44.6964 125.805 45.8573 125.424 47.4958C125.042 49.1342 125.45 50.6296 126.334 50.8359C127.218 51.0423 128.245 49.8813 128.626 48.2429Z" fill="black"/>
<path d="M158.725 55.0435C159.74 53.7026 159.976 52.1706 159.252 51.6217C158.529 51.0728 157.119 51.7149 156.105 53.0558C155.09 54.3967 154.854 55.9287 155.577 56.4776C156.301 57.0265 157.71 56.3845 158.725 55.0435Z" fill="black"/>
<path d="M137.207 53.0701C137.135 53.0532 137.063 53.0406 136.989 53.0325C137.086 53.2514 137.109 53.496 137.054 53.7291C137.004 53.9411 136.894 54.1339 136.736 54.2838C136.578 54.4336 136.38 54.5338 136.166 54.5719C135.952 54.61 135.732 54.5844 135.532 54.4983C135.332 54.4121 135.162 54.2692 135.043 54.0872C134.975 54.2234 134.922 54.367 134.887 54.5152C134.801 54.8876 134.827 55.2771 134.961 55.6348C135.096 55.9924 135.334 56.3021 135.644 56.5247C135.954 56.7473 136.324 56.8728 136.705 56.8855C137.087 56.8981 137.464 56.7972 137.788 56.5956C138.113 56.3941 138.37 56.1008 138.528 55.7528C138.686 55.4048 138.737 55.0178 138.676 54.6406C138.614 54.2634 138.443 53.9129 138.182 53.6334C137.922 53.3538 137.584 53.1578 137.213 53.0701H137.207Z" fill="#3F3D56"/>
<path d="M131.544 60.2099C131.379 60.9173 131.172 60.6791 130.864 60.6075C130.556 60.5359 130.267 60.6576 130.431 59.9503C130.596 59.2429 131.462 58.0449 131.462 58.0449C131.462 58.0449 131.708 59.5026 131.544 60.2099Z" fill="black"/>
<path d="M139.12 49.2127C138.955 49.929 138.748 49.6819 138.44 49.6102C138.132 49.5386 137.842 49.6604 138.007 48.953C138.172 48.2457 139.037 47.0476 139.037 47.0476C139.037 47.0476 139.284 48.5035 139.12 49.2127Z" fill="black"/>
<path d="M146.152 53.8526C145.987 54.56 145.78 54.3218 145.472 54.2502C145.164 54.1786 144.874 54.3003 145.039 53.593C145.204 52.8856 146.069 51.6876 146.069 51.6876C146.069 51.6876 146.314 53.1453 146.152 53.8526Z" fill="black"/>
<path d="M148.094 60.3657C147.93 61.0731 147.724 60.8349 147.416 60.7633C147.109 60.6917 146.819 60.8134 146.984 60.1061C147.148 59.3987 148.012 58.2007 148.012 58.2007C148.012 58.2007 148.261 59.6566 148.094 60.3657Z" fill="black"/>
<path d="M129.488 133.57L129.395 133.965C127.156 134.474 115.322 130.336 116.272 128.45L129.488 133.57Z" fill="black"/>
<path d="M129.488 133.939L129.395 133.965L129.488 133.57C132.887 132.576 146.56 136.095 146.56 136.095C146.603 138.237 128.823 135.686 129.488 133.939Z" fill="black"/>
<path d="M131.304 73.7824C130.399 77.8564 126.637 83.2037 121.054 87.8007C117.994 90.3079 114.602 92.3786 110.974 93.9538C111.008 93.7748 111.044 93.5957 111.078 93.4166C111.335 92.0878 111.621 90.7519 111.936 89.4088C113.451 82.8067 115.592 76.3646 118.331 70.1703C118.389 70.0468 118.442 69.9232 118.499 69.8014C118.532 69.728 118.566 69.6546 118.6 69.583C122.328 67.828 125.737 67.1224 128.125 67.6704C128.936 67.8336 129.686 68.2171 130.293 68.7789C130.399 68.8796 130.498 68.9867 130.59 69.0994C131.121 69.7751 131.433 70.5966 131.485 71.4543C131.544 72.235 131.483 73.0202 131.304 73.7824Z" fill="black"/>
<path d="M131.007 73.3167C130.102 77.3908 126.34 82.7381 120.755 87.3351C117.814 89.7458 114.566 91.7542 111.095 93.3074C111.346 92.0144 111.624 90.7161 111.931 89.4124C113.446 82.8103 115.587 76.3682 118.326 70.1739C118.383 70.0503 118.437 69.9268 118.494 69.805C118.526 69.7316 118.56 69.6582 118.594 69.5865L118.814 69.1066L118.945 68.8308C122.422 67.2907 125.582 66.6926 127.83 67.2084C128.641 67.3717 129.391 67.7559 129.998 68.3186C130.104 68.4188 130.203 68.5252 130.295 68.6374C130.829 69.3125 131.145 70.1347 131.2 70.9941C131.255 71.7737 131.19 72.557 131.007 73.3167Z" fill="black"/>
<path d="M130.962 73.5066C130.052 77.5806 126.295 82.9279 120.712 87.5249C117.771 89.9339 114.523 91.9405 111.052 93.4918C111.052 93.4667 111.061 93.4435 111.067 93.4202C111.072 93.3969 111.083 93.345 111.09 93.3074C111.34 92.0144 111.619 90.7161 111.925 89.4124C113.44 82.8103 115.582 76.3682 118.321 70.1739C118.378 70.0504 118.432 69.9268 118.489 69.805C118.521 69.7316 118.555 69.6582 118.589 69.5865L118.809 69.1066C118.818 69.0851 118.829 69.0654 118.838 69.0439C122.338 67.4841 125.519 66.8771 127.782 67.3964C128.592 67.561 129.342 67.945 129.95 68.5067C130.056 68.607 130.155 68.7141 130.247 68.8272C130.778 69.5027 131.09 70.3243 131.141 71.1821C131.201 71.9615 131.14 72.7455 130.962 73.5066Z" fill="white"/>
<path d="M146.159 113.843C148.601 103.355 142.393 92.9431 132.293 90.5865C122.193 88.23 112.026 94.8213 109.584 105.309C107.143 115.796 113.351 126.208 123.451 128.565C133.551 130.921 143.718 124.33 146.159 113.843Z" fill="black"/>
<path d="M146.072 114.22C148.514 103.732 142.306 93.3203 132.206 90.9637C122.106 88.6071 111.939 95.1985 109.497 105.686C107.056 116.173 113.264 126.585 123.364 128.942C133.464 131.299 143.631 124.707 146.072 114.22Z" fill="white"/>
<path d="M129.336 104.742C129.3 104.898 129.233 105.046 129.14 105.177C129.046 105.307 128.928 105.418 128.792 105.503C128.516 105.674 128.184 105.729 127.869 105.656C127.553 105.582 127.279 105.386 127.108 105.11C126.937 104.835 126.882 104.503 126.955 104.186C127.109 103.527 127.564 103.988 128.22 104.14C128.877 104.292 129.485 104.084 129.336 104.742Z" fill="#65617D"/>
<path d="M142.395 46.2257C146.086 47.087 149.048 50.0777 151.173 54.6066C151.216 54.3988 151.262 54.1875 151.313 53.9744C151.441 53.4193 151.586 52.882 151.74 52.3627C149.731 48.9692 147.141 46.7342 144.032 46.009C142.585 45.6812 141.083 45.6738 139.633 45.9875C140.56 45.9355 141.49 46.0157 142.395 46.2257Z" fill="black"/>
<path d="M159.588 100.598C158.048 86.1263 157.441 71.6459 155.257 61.8252C156.37 60.5717 162.103 59.0997 162.81 56.0607C163.883 51.4834 158.965 46.4244 157.511 46.0842C157.153 46 156.745 46.1504 156.334 46.4961C158.148 47.5276 162.144 52.0994 161.178 56.2702C160.463 59.3145 154.738 60.7723 153.626 62.0348C155.812 71.8608 156.411 86.3412 157.958 100.813C160.005 120.046 156.468 130.321 144.746 136.27C144.746 136.532 144.488 136.723 144.03 136.856C145.461 136.791 146.399 136.548 146.388 136.055C158.098 130.108 161.634 119.831 159.588 100.598Z" fill="black"/>
<path d="M128.66 39.9525C130.116 40.291 130.431 44.2773 129.367 48.8563C129.12 49.9254 128.803 50.9771 128.419 52.0045C129.158 51.2739 129.901 50.6047 130.648 49.9971C130.775 49.5583 130.895 49.1017 131.005 48.6432C132.079 44.0642 131.755 40.0779 130.301 39.7376C129.918 39.6481 129.227 39.7054 128.403 39.9167C128.489 39.921 128.576 39.933 128.66 39.9525Z" fill="black"/>
<path d="M156.647 104.998C152.434 106.905 143.973 98.6153 139.594 88.9289C136.615 82.3352 135.601 75.874 136.588 71.8196C136.761 71.0572 137.049 70.3258 137.444 69.651C137.872 68.9045 138.518 68.3067 139.295 67.9372C139.427 67.8766 139.564 67.8246 139.703 67.7814C140.496 67.5465 141.338 67.5341 142.138 67.7456C146.213 68.7126 151.356 74.2892 154.847 82.02C159.225 91.7046 160.86 103.089 156.647 104.998Z" fill="black"/>
<path d="M141.143 75.129C140.671 75.5624 138.996 74.5041 137.386 72.7616C137.096 72.4464 136.83 72.1295 136.588 71.8196C136.761 71.0572 137.049 70.3258 137.444 69.651C138.035 70.1182 138.586 70.6333 139.093 71.1911C140.692 72.9246 141.606 74.6939 141.143 75.129Z" fill="black"/>
<path d="M142.138 67.7456C142.551 68.1085 142.946 68.4935 143.318 68.8989C144.917 70.6395 145.823 72.4017 145.357 72.8386C144.892 73.2756 143.211 72.2154 141.612 70.473C140.717 69.5077 140.046 68.5353 139.703 67.7868L142.138 67.7456Z" fill="black"/>
<path d="M157.2 104.331C152.987 106.24 144.526 97.9491 140.146 88.2645C137.166 81.669 136.152 75.2078 137.139 71.1535C137.312 70.391 137.601 69.6595 137.996 68.9848C138.424 68.2379 139.07 67.64 139.848 67.271C139.98 67.2118 140.116 67.1604 140.254 67.117C141.047 66.8803 141.89 66.8679 142.69 67.0812C146.764 68.0465 151.906 73.6248 155.4 81.3538C159.777 91.0384 161.411 102.422 157.2 104.331Z" fill="black"/>
<path d="M156.922 104.665C152.711 106.574 144.248 98.2822 139.871 88.5958C136.891 82.0021 135.876 75.5409 136.864 71.4866C137.037 70.724 137.326 69.9926 137.721 69.3179C138.148 68.5712 138.794 67.9732 139.57 67.6041C139.703 67.5443 139.839 67.4923 139.978 67.4483C140.771 67.2134 141.613 67.201 142.413 67.4125C146.488 68.3795 151.631 73.9579 155.125 81.6869C159.5 91.3697 161.135 102.756 156.922 104.665Z" fill="white"/>
<path d="M186.279 109.942C186.279 109.942 187.288 111.262 185.814 113.257C184.34 115.252 183.131 116.935 183.614 118.18C183.614 118.18 185.839 114.475 187.651 114.419C189.464 114.363 188.272 112.17 186.279 109.942Z" fill="white"/>
<path d="M186.279 109.942C186.368 110.069 186.437 110.208 186.485 110.356C188.253 112.435 189.195 114.374 187.496 114.423C185.913 114.467 184.015 117.3 183.56 118.017C183.576 118.07 183.594 118.126 183.614 118.18C183.614 118.18 185.839 114.475 187.651 114.419C189.464 114.363 188.272 112.17 186.279 109.942Z" fill="black"/>
<path d="M188.156 111.625C188.156 112.091 188.104 112.467 188.04 112.467C187.975 112.467 187.923 112.091 187.923 111.625C187.923 111.16 187.988 111.38 188.052 111.38C188.117 111.38 188.156 111.16 188.156 111.625Z" fill="#FFD037"/>
<path d="M188.8 112.181C188.392 112.403 188.036 112.539 188.006 112.481C187.975 112.424 188.279 112.198 188.687 111.976C189.095 111.754 188.936 111.915 188.966 111.976C188.997 112.037 189.208 111.964 188.8 112.181Z" fill="#FFD037"/>
<path d="M180.949 109.942C180.949 109.942 179.94 111.262 181.416 113.257C182.891 115.252 184.099 116.935 183.614 118.18C183.614 118.18 181.389 114.475 179.578 114.419C177.768 114.363 178.958 112.17 180.949 109.942Z" fill="white"/>
<path d="M180.949 109.942C180.861 110.069 180.791 110.209 180.743 110.356C178.975 112.435 178.035 114.374 179.734 114.423C181.315 114.467 183.213 117.3 183.669 118.017C183.655 118.072 183.637 118.126 183.616 118.18C183.616 118.18 181.39 114.475 179.58 114.419C177.77 114.363 178.958 112.17 180.949 109.942Z" fill="black"/>
<path d="M179.067 111.625C179.067 112.091 179.119 112.467 179.183 112.467C179.247 112.467 179.299 112.091 179.299 111.625C179.299 111.16 179.235 111.38 179.17 111.38C179.106 111.38 179.067 111.16 179.067 111.625Z" fill="#FFD037"/>
<path d="M178.43 112.181C178.838 112.403 179.194 112.539 179.224 112.481C179.255 112.424 178.949 112.198 178.541 111.976C178.133 111.754 178.294 111.915 178.264 111.976C178.233 112.037 178.022 111.964 178.43 112.181Z" fill="#FFD037"/>
<path d="M183.616 128.285C189.443 128.285 194.167 127.56 194.167 126.664C194.167 125.769 189.443 125.044 183.616 125.044C177.789 125.044 173.065 125.769 173.065 126.664C173.065 127.56 177.789 128.285 183.616 128.285Z" fill="white"/>
<path d="M189.045 116.398L188.995 116.812L188.923 117.394L188.895 117.637L188.823 118.219L188.793 118.463L188.723 119.045L187.914 125.671C187.843 126.263 186.877 126.724 185.712 126.724H181.517C180.351 126.724 179.387 126.263 179.315 125.671L178.507 119.045L178.435 118.463L178.407 118.219L178.335 117.637L178.305 117.394L178.235 116.812L178.183 116.398C178.144 116.063 178.666 115.782 179.324 115.782H187.911C188.564 115.782 189.084 116.063 189.045 116.398Z" fill="#65617D"/>
<path d="M188.995 116.812L188.925 117.394H178.306L178.235 116.812H188.995Z" fill="#9D9CB5"/>
<path d="M188.895 117.637L188.825 118.219L178.407 118.219L178.335 117.637H188.895Z" fill="#9D9CB5"/>
<path d="M188.793 118.463L188.723 119.045H178.507L178.437 118.463L188.793 118.463Z" fill="#9D9CB5"/>
<path d="M62.433 122.306C62.433 122.306 63.8462 124.156 61.7801 126.949C59.714 129.743 58.011 132.101 58.6997 133.844C58.6997 133.844 61.8177 128.65 64.3543 128.582C66.8909 128.514 65.2147 125.425 62.433 122.306Z" fill="white"/>
<path d="M62.433 122.306C62.5562 122.485 62.6537 122.68 62.7228 122.886C65.1968 125.798 66.517 128.514 64.136 128.582C61.9196 128.647 59.2614 132.613 58.6245 133.616C58.646 133.693 58.6711 133.769 58.6997 133.844C58.6997 133.844 61.8177 128.65 64.3543 128.582C66.8909 128.514 65.2147 125.425 62.433 122.306Z" fill="black"/>
<path d="M65.0519 124.664C65.0519 125.316 64.9786 125.842 64.8891 125.842C64.7997 125.842 64.7263 125.316 64.7263 124.664C64.7263 124.012 64.8176 124.32 64.9052 124.32C64.9929 124.32 65.0519 124.012 65.0519 124.664Z" fill="#FFD037"/>
<path d="M65.9535 125.441C65.3829 125.753 64.8802 125.941 64.8408 125.862C64.8015 125.783 65.2272 125.466 65.7979 125.146C66.3685 124.825 66.1431 125.062 66.1861 125.146C66.229 125.23 66.5241 125.13 65.9535 125.441Z" fill="#FFD037"/>
<path d="M54.9592 122.306C54.9592 122.306 53.5442 124.156 55.6103 126.949C57.6764 129.743 59.3794 132.101 58.6907 133.844C58.6907 133.844 55.5745 128.65 53.0379 128.582C50.5013 128.514 52.1685 125.425 54.9592 122.306Z" fill="white"/>
<path d="M54.9592 122.306C54.8349 122.485 54.7373 122.681 54.6694 122.888C52.1936 125.799 50.8752 128.516 53.2544 128.584C55.4708 128.649 58.1308 132.615 58.7677 133.618C58.7463 133.695 58.7206 133.771 58.6907 133.846C58.6907 133.846 55.5745 128.652 53.0379 128.584C50.5013 128.516 52.1685 125.425 54.9592 122.306Z" fill="black"/>
<path d="M52.3313 124.664C52.3313 125.316 52.4029 125.842 52.4941 125.842C52.5854 125.842 52.6569 125.316 52.6569 124.664C52.6569 124.012 52.5657 124.32 52.478 124.32C52.3904 124.32 52.3313 124.012 52.3313 124.664Z" fill="#FFD037"/>
<path d="M51.4297 125.441C52.0004 125.753 52.5031 125.941 52.5406 125.862C52.5782 125.783 52.156 125.466 51.5854 125.146C51.0147 124.825 51.2401 125.062 51.1954 125.146C51.1507 125.23 50.8573 125.13 51.4297 125.441Z" fill="#FFD037"/>
<path d="M58.6925 148C66.8541 148 73.4703 146.983 73.4703 145.729C73.4703 144.475 66.8541 143.458 58.6925 143.458C50.531 143.458 43.9147 144.475 43.9147 145.729C43.9147 146.983 50.531 148 58.6925 148Z" fill="white"/>
<path d="M66.2988 131.349L66.2272 131.928L66.127 132.744L65.9875 133.901L65.9446 134.241L65.8462 135.056L64.7138 144.338C64.6136 145.165 63.2613 145.812 61.6298 145.812H55.7534C54.1202 145.812 52.7714 145.165 52.6694 144.338L51.5371 135.065L51.3975 133.91L51.2956 133.093L51.156 131.937L51.0845 131.358C51.029 130.889 51.7589 130.495 52.6837 130.495H64.7013C65.6226 130.486 66.356 130.88 66.2988 131.349Z" fill="#65617D"/>
<path d="M66.2272 131.928L66.1288 132.744H51.2562L51.156 131.928L66.2272 131.928Z" fill="#9D9CB5"/>
<path d="M66.0877 133.084L65.9875 133.901H51.3975L51.2974 133.084H66.0877Z" fill="#9D9CB5"/>
<path d="M65.9446 134.241L65.8462 135.056L51.5371 135.056L51.4387 134.241L65.9446 134.241Z" fill="#9D9CB5"/>
<defs>
<linearGradient id="paint0_linear_1007_38" x1="45.5149" y1="160.666" x2="96.6076" y2="-23.0891" gradientUnits="userSpaceOnUse">
<stop stop-color="#808080" stop-opacity="0.25"/>
<stop offset="0.54" stop-color="#808080" stop-opacity="0.12"/>
<stop offset="1" stop-color="#808080" stop-opacity="0.1"/>
</linearGradient>
</defs>
</svg>
