<svg width="200" height="186" viewBox="0 0 200 186" fill="none" xmlns="http://www.w3.org/2000/svg">
<path d="M192.713 22.3277H194.699C196.22 10.6563 184.513 1.7932 171.085 0.711196C176.359 1.92006 181.185 4.58907 185.01 8.41231C188.835 12.2355 191.505 17.0583 192.713 22.3277Z" fill="#F2F2F2"/>
<path d="M161.806 57.1504C160.682 57.1367 159.605 57.0988 158.575 57.0367C159.644 57.2013 160.728 57.2394 161.806 57.1504Z" fill="#F2F2F2"/>
<path d="M136.815 28.674C137.074 13.3004 149.334 0.789005 164.724 0.789005C166.837 0.564782 168.967 0.538731 171.085 0.711196C166.883 -0.241581 162.52 -0.236987 158.32 0.724633C154.12 1.68625 150.191 3.58023 146.823 6.26611C143.455 8.95199 140.736 12.3609 138.867 16.2399C136.998 20.119 136.026 24.3688 136.025 28.674C136.025 43.2516 136.547 55.6885 158.575 57.0367C147.415 55.3431 136.611 40.7458 136.815 28.674Z" fill="#F2F2F2"/>
<path d="M192.383 29.1231C187.339 37.7459 167.504 44.0696 164.724 56.5594C163.777 56.8697 162.798 57.0681 161.806 57.1504C162.72 57.1615 163.663 57.1579 164.643 57.1354C180.317 57.1354 193.174 44.7239 193.416 29.1232L192.383 29.1231Z" fill="#F2F2F2"/>
<path d="M166.976 49.6282C163.308 41.6774 161.701 33.1085 162.826 23.721C162.653 22.6289 163.262 21.5345 164.188 21.2745L180.796 16.6387C181.722 16.3813 182.615 17.0564 182.791 18.1479L186.941 44.0552C187.114 45.1473 186.505 46.2417 185.579 46.5016L168.971 51.1374C168.044 51.3948 167.152 50.7197 166.976 49.6282Z" fill="#F2F2F2"/>
<path d="M174.842 19.5048C175.081 17.6538 174.021 15.9914 172.475 15.7918C170.929 15.5921 169.481 16.9308 169.242 18.7818C169.002 20.6328 170.062 22.2952 171.608 22.4948C173.155 22.6945 174.602 21.3558 174.842 19.5048Z" fill="#F2F2F2"/>
<path d="M144.472 36.9589C140.804 29.008 139.197 20.4392 140.322 11.0516C140.149 9.95954 140.758 8.86515 141.684 8.60522L158.292 3.96942C159.218 3.71198 160.111 4.38712 160.287 5.47862L164.437 31.3858C164.61 32.4779 164.001 33.5723 163.075 33.8322L146.467 38.468C145.541 38.7255 144.648 38.0504 144.472 36.9589Z" fill="#F2F2F2"/>
<path d="M152.338 6.83544C152.577 4.98444 151.517 3.32206 149.971 3.12243C148.425 2.9228 146.977 4.26151 146.738 6.11251C146.498 7.96351 147.558 9.62587 149.104 9.8255C150.651 10.0251 152.098 8.68644 152.338 6.83544Z" fill="#F2F2F2"/>
<path d="M167.202 123.034H0V123.578H167.202V123.034Z" fill="#3F3D56"/>
<path d="M68.012 58.8856C67.8147 58.1959 70.5723 64.5176 69.9163 64.5938C66.9285 64.9362 60.308 66.4802 58.227 67.3119C58.1333 67.301 58.0395 67.2902 57.9486 67.2766C57.7253 67.2521 57.5076 67.2168 57.2926 67.176C52.447 66.26 48.7812 62.2833 48.682 57.483C48.6765 57.4151 48.6765 57.3444 48.6765 57.2765C48.6758 56.945 48.6933 56.6138 48.7288 56.2843C48.7744 55.8344 48.8528 55.3883 48.9631 54.9497L48.9521 54.947C47.0227 53.1367 47.8358 49.7798 50.2944 48.3636C51.3627 47.7499 52.5474 47.3657 53.7728 47.2356C54.1051 47.1995 54.4391 47.1814 54.7734 47.1812H57.9128C58.5624 47.0413 59.2208 46.946 59.8835 46.8958H59.889C66.2092 46.4147 71.1925 50.2636 70.7267 54.947C70.724 54.9524 70.7184 54.9579 70.7157 54.9633C70.5806 55.1645 70.4621 55.3547 70.3574 55.5368C70.2554 55.7081 70.1699 55.8712 70.0955 56.0261C69.5195 57.2221 71.0002 58.7271 70.0184 59.0079C68.7125 59.3815 73.4529 71.661 68.284 71.661C70.7983 72.3752 68.5561 60.7883 68.012 58.8856Z" fill="#2F2E41"/>
<path d="M96.851 177.577L100.927 177.543L102.731 161.468L96.7158 161.518L96.851 177.577Z" fill="#FFB6B6"/>
<path d="M109.907 184.053C109.911 184.536 109.723 185.001 109.384 185.345C109.045 185.689 108.584 185.885 108.101 185.89L99.9964 185.958L98.5776 183.084L98.0565 185.972L94.9987 186L95.7708 175.7L96.8347 175.629L101.174 175.33L102.574 175.236L102.599 178.151L109.109 182.563C109.353 182.728 109.553 182.95 109.692 183.21C109.831 183.469 109.905 183.759 109.907 184.053Z" fill="#2F2E41"/>
<path d="M102.018 169.515C100.397 169.319 96.305 168.971 96.305 168.971C96.305 168.971 94.3734 164.943 94.6863 163.69C94.9937 162.431 95.7609 162.176 95.0481 161.518C93.3124 155.109 93.5899 144.698 93.5899 144.698C93.5899 144.698 84.2478 140.178 74.7887 134.945C65.5418 129.827 56.1833 124.029 55.3373 121.107C54.7788 119.017 54.4038 116.883 54.2164 114.728C54.075 113.314 53.9879 111.928 53.9335 110.686C53.8056 107.842 53.8573 105.741 53.8573 105.741L65.6452 105.546L73.4529 105.366H74.2691V106.725L76.3203 110.21C76.3203 110.21 79.8651 114.328 79.4489 114.711C78.9456 115.176 79.0979 115.589 80.8853 115.926C81.3935 116.015 81.9113 116.036 82.4251 115.989C85.3115 115.769 86.5194 117.419 86.5901 117.78C87.0744 120.332 91.9304 125.877 96.4791 130.61H96.4818C100.679 134.981 104.613 138.656 104.613 138.656L105.884 165.266C105.884 165.266 103.92 164.168 105.674 166.536C107.429 168.906 103.639 169.708 102.018 169.515Z" fill="#2F2E41"/>
<path d="M146.242 118.541L147.906 114.823L134.026 106.498L131.57 111.985L146.242 118.541Z" fill="#FFB6B6"/>
<path d="M157.567 109.371C158.008 109.569 158.353 109.933 158.525 110.384C158.698 110.835 158.684 111.336 158.487 111.777L155.178 119.169L151.973 119.263L154.385 120.937L153.138 123.727L144.084 118.741L144.462 117.745L145.995 113.678L146.492 112.367L149.155 113.557L155.878 109.477C156.13 109.324 156.415 109.235 156.71 109.216C157.004 109.198 157.298 109.251 157.567 109.371Z" fill="#2F2E41"/>
<path d="M139.102 109.541C139.093 109.563 139.081 109.582 139.072 109.599C138.314 110.99 137.069 114.208 136.991 114.407C136.989 114.41 136.988 114.414 136.988 114.418C136.988 114.418 132.881 114.207 131.831 113.454C130.78 112.696 132.371 113.895 129.946 112.31C128.692 111.486 124.398 110.199 120.551 109.148C116.973 108.17 113.784 107.401 113.784 107.401C113.784 107.401 110.965 109.964 106.881 113.507L106.879 113.509C103.086 116.791 98.1982 120.919 93.4614 124.616C83.3199 127.596 72.616 130.179 69.9402 128.728C68.0592 127.657 66.2752 126.424 64.6085 125.044L67.3639 117.827L74.6509 110.203L112.273 94.9309L137.465 103.649C137.465 103.649 135.71 105.066 138.566 104.319C141.383 103.583 139.895 108.05 139.102 109.541Z" fill="#2F2E41"/>
<path d="M59.5785 67.5837H67.7399L69.0249 70.4176L74.4906 72.8509C75.2014 73.1679 75.8278 73.6473 76.3191 74.2505C76.8104 74.8537 77.1529 75.5639 77.3191 76.3237C79.2872 85.313 76.7977 87.1807 76.7175 90.1445C76.4455 100.202 75.0437 102.202 75.2005 104.685C75.2474 105.428 75.7014 108.366 77.1616 108.089C78.6219 107.813 77.8347 108.974 78.1803 109.426C78.4789 109.816 80.0493 109.298 79.0635 110.594C78.0778 111.89 82.2921 115.423 79.7101 115.423C74.8132 115.423 65.0195 117.87 61.2108 117.87C57.4021 117.87 54.4589 118.998 52.7773 118.957C51.7524 118.932 52.0729 114.157 52.4825 110.022C52.5752 109.086 54.3748 109.11 52.7599 107.374C51.145 105.638 53.0459 104.736 53.0493 104.279C53.053 103.794 53.9648 102.571 52.827 100.571C51.6891 98.5708 52.738 99.3984 52.6886 98.7704C52.3077 93.9307 51.7619 87.7598 51.7619 87.7598L49.3561 80.9944C48.7411 79.2651 48.8224 77.3648 49.5828 75.6942C50.3433 74.0236 51.7233 72.7135 53.432 72.0401L56.2541 70.9278L59.5785 67.5837Z" fill="white"/>
<path d="M116.898 65.0883C116.716 65.4264 116.464 65.7211 116.157 65.952C115.851 66.1828 115.497 66.3444 115.122 66.4256C114.747 66.5067 114.359 66.5054 113.984 66.4218C113.609 66.3383 113.257 66.1743 112.952 65.9415L101.455 72.4449L98.873 69.7098L112.585 62.0853C113.015 61.6015 113.608 61.2922 114.252 61.2162C114.895 61.1401 115.545 61.3026 116.076 61.6727C116.608 62.0429 116.985 62.595 117.137 63.2245C117.288 63.8541 117.203 64.5172 116.898 65.0883Z" fill="#FFB6B6"/>
<path d="M65.132 80.4394L64.9569 82.5336L87.8454 82.2396L110.628 69.4424L107.298 64.3203L87.2728 72.7326L73.0403 73.021C71.0373 73.0616 69.1205 73.8423 67.6599 75.2124C66.1994 76.5824 65.2988 78.4446 65.132 80.4394Z" fill="white"/>
<path d="M62.37 66.0907C66.4751 66.0907 69.803 62.7657 69.803 58.6641C69.803 54.5625 66.4751 51.2375 62.37 51.2375C58.2649 51.2375 54.9371 54.5625 54.9371 58.6641C54.9371 62.7657 58.2649 66.0907 62.37 66.0907Z" fill="#FFB6B6"/>
<path d="M70.7267 55.352C70.6027 55.4172 70.4814 55.477 70.3574 55.5368C70.2278 55.5994 70.0983 55.6619 69.9687 55.7189C67.4798 56.847 65.454 56.972 64.2246 55.352C64.1917 54.4996 64.0001 53.6607 63.6596 52.8785C63.7197 53.7527 63.4891 54.6222 63.0036 55.352H60.5285C57.9789 57.0427 56.6697 57.2194 58.4392 62.7699C58.9326 64.3165 60.8943 73.3163 60.1226 74.651C59.8993 74.6265 57.5076 67.2168 57.2926 67.176C52.447 66.26 48.7812 62.2833 48.682 57.483C48.6875 57.2384 48.704 56.9938 48.7288 56.7546C49.048 56.2751 49.3989 55.8175 49.779 55.3846C49.777 54.1015 50.0723 52.8353 50.6417 51.6852C51.362 50.2281 52.4849 49.0075 53.8776 48.1679C54.7077 47.7657 55.5731 47.4409 56.4629 47.1975C56.485 47.1921 56.5043 47.1866 56.5263 47.1812C56.7992 47.1078 57.0776 47.0398 57.356 46.9828C57.9311 46.8614 58.5127 46.7734 59.098 46.7191C59.1393 46.7164 59.1806 46.7137 59.2192 46.7137C59.4529 46.7142 59.6822 46.7771 59.8835 46.8958C59.8862 46.8958 59.8862 46.8985 59.889 46.8985C60.0328 46.9825 60.1584 47.0943 60.2584 47.2274C60.4344 47.4514 60.5296 47.7282 60.5285 48.0129H63.2847C63.3867 48.0129 63.4887 48.0157 63.5907 48.0211C65.4303 48.0839 67.1802 48.8304 68.498 50.1143C69.8158 51.3983 70.6066 53.1275 70.7157 54.9633C70.724 55.0938 70.7267 55.2215 70.7267 55.352Z" fill="#2F2E41"/>
<path d="M52.2332 56.7111C54.9377 56.7111 57.1301 54.5205 57.1301 51.8184C57.1301 49.1162 54.9377 46.9257 52.2332 46.9257C49.5287 46.9257 47.3363 49.1162 47.3363 51.8184C47.3363 54.5205 49.5287 56.7111 52.2332 56.7111Z" fill="#2F2E41"/>
<path d="M58.2183 48.0129C58.3118 50.7135 56.0258 52.9056 53.3214 52.9056C52.0227 52.9056 50.7771 52.3902 49.8588 51.4726C48.9404 50.555 48.4245 49.3106 48.4245 48.0129C48.4245 45.3108 51.6998 45.2828 53.3214 43.1203C55.6153 40.061 58.0921 44.371 58.2183 48.0129Z" fill="#2F2E41"/>
<path d="M64.6208 124.551C63.8605 113.278 66.0864 102.674 72.2684 92.9566C72.4239 92.3173 72.8269 91.7658 73.3889 91.4229C73.9509 91.0801 74.626 90.974 75.2662 91.128L99.1475 96.8986C99.7874 97.054 100.339 97.4566 100.682 98.0182C101.026 98.5797 101.132 99.2543 100.978 99.8939L93.3301 131.489C93.1746 132.128 92.7717 132.679 92.2097 133.022C91.6477 133.365 90.9725 133.471 90.3323 133.317L66.451 127.547C65.8112 127.391 65.2592 126.989 64.9161 126.427C64.573 125.865 64.4668 125.191 64.6208 124.551Z" fill="#F2F2F2"/>
<path d="M69.3009 126.945C68.661 126.79 68.109 126.387 67.7659 125.826C67.4228 125.264 67.3166 124.59 67.4707 123.95C66.7103 112.677 68.9363 102.073 75.1182 92.3555C75.2224 91.9363 75.4356 91.552 75.7362 91.2415L75.2662 91.128C74.626 90.974 73.9509 91.0801 73.3889 91.4229C72.8269 91.7658 72.4239 92.3173 72.2684 92.9566C66.0864 102.674 63.8605 113.278 64.6208 124.551C64.4668 125.191 64.573 125.865 64.9161 126.427C65.2592 126.989 65.8112 127.391 66.451 127.547L90.3323 133.317C90.7569 133.418 91.2005 133.405 91.6185 133.28C92.0364 133.154 92.4137 132.921 92.7122 132.603L69.3009 126.945Z" fill="black"/>
<path d="M90.9231 113.645L74.9091 109.822C74.6545 109.761 74.4346 109.602 74.2976 109.379C74.1606 109.156 74.1179 108.888 74.1787 108.633C74.2396 108.379 74.399 108.159 74.6221 108.022C74.8451 107.885 75.1135 107.842 75.3682 107.902L91.3823 111.725C91.6363 111.787 91.8556 111.946 91.992 112.169C92.1284 112.392 92.171 112.66 92.1102 112.914C92.0495 113.168 91.8904 113.387 91.6679 113.524C91.4454 113.661 91.1776 113.705 90.9231 113.645Z" fill="white"/>
<path d="M79.6911 105.399L76.1681 104.558C75.9133 104.497 75.693 104.338 75.5554 104.116C75.4178 103.893 75.3743 103.625 75.4343 103.371C75.4943 103.116 75.653 102.896 75.8755 102.758C76.0981 102.62 76.3662 102.576 76.6211 102.636L76.6272 102.637L80.1503 103.478C80.4043 103.54 80.6236 103.7 80.76 103.923C80.8964 104.145 80.9389 104.413 80.8782 104.667C80.8175 104.921 80.6584 105.141 80.4359 105.278C80.2134 105.415 79.9456 105.458 79.6911 105.399Z" fill="white"/>
<path d="M88.9047 122.086L72.8907 118.263C72.6366 118.202 72.4172 118.042 72.2807 117.819C72.1441 117.597 72.1016 117.329 72.1624 117.075C72.2231 116.821 72.3822 116.601 72.6048 116.464C72.8274 116.327 73.0953 116.283 73.3498 116.343L89.3639 120.166C89.4903 120.196 89.6097 120.25 89.7152 120.325C89.8206 120.401 89.9101 120.497 89.9785 120.607C90.0469 120.717 90.0929 120.84 90.1138 120.968C90.1347 121.096 90.1302 121.227 90.1004 121.353C90.0706 121.48 90.0162 121.599 89.9403 121.704C89.8644 121.809 89.7684 121.899 89.6579 121.967C89.5474 122.035 89.4246 122.081 89.2964 122.102C89.1682 122.122 89.0372 122.118 88.9108 122.088L88.9047 122.086Z" fill="white"/>
<path d="M89.9139 117.866L73.8999 114.043C73.645 113.982 73.4246 113.823 73.2872 113.6C73.1498 113.377 73.1066 113.109 73.1672 112.854C73.2278 112.6 73.3871 112.379 73.6102 112.242C73.8333 112.105 74.1018 112.062 74.3568 112.122L74.359 112.123L90.373 115.946C90.6272 116.007 90.8466 116.167 90.9831 116.389C91.1196 116.612 91.1622 116.88 91.1014 117.134C91.0406 117.388 90.8815 117.608 90.659 117.745C90.4364 117.882 90.1684 117.926 89.9139 117.866Z" fill="white"/>
<path d="M86.5286 98.0403C88.8035 98.0403 90.6477 96.1977 90.6477 93.9247C90.6477 91.6517 88.8035 89.8091 86.5286 89.8091C84.2537 89.8091 82.4095 91.6517 82.4095 93.9247C82.4095 96.1977 84.2537 98.0403 86.5286 98.0403Z" fill="#3F3D56"/>
<path d="M65.7597 126.907C65.4237 126.722 65.132 126.466 64.9049 126.156C64.6778 125.847 64.5206 125.492 64.4442 125.116C64.3678 124.74 64.3741 124.352 64.4626 123.979C64.551 123.606 64.7196 123.256 64.9566 122.955L58.596 111.385L61.3664 108.84L68.8204 122.637C69.2991 123.073 69.601 123.67 69.6688 124.314C69.7366 124.958 69.5657 125.604 69.1885 126.13C68.8112 126.657 68.2538 127.027 67.6218 127.17C66.9899 127.313 66.3273 127.22 65.7597 126.907Z" fill="#FFB6B6"/>
<path d="M58.3305 75.6933L51.4893 75.0338C51.1702 75.003 50.8481 75.0392 50.5438 75.1402C50.2395 75.2411 49.9596 75.4045 49.7223 75.6199C49.4849 75.8353 49.2952 76.0979 49.1655 76.3908C49.0357 76.6838 48.9686 77.0006 48.9686 77.321V97.6617L61.4828 120.588L66.6517 117.326L58.4903 97.2117L58.3305 75.6933Z" fill="white"/>
<path d="M112.339 74.0426C113.925 62.8557 118.295 52.9396 126.352 44.7073C126.636 44.1139 127.145 43.6574 127.765 43.4379C128.386 43.2185 129.069 43.254 129.663 43.5367L151.837 54.111C152.431 54.395 152.888 54.9029 153.107 55.5231C153.327 56.1433 153.291 56.8253 153.008 57.4194L138.995 86.7547C138.711 87.3481 138.202 87.8046 137.582 88.0241C136.961 88.2435 136.278 88.208 135.684 87.9253L113.51 77.351C112.916 77.067 112.459 76.5591 112.24 75.9389C112.02 75.3186 112.056 74.6367 112.339 74.0426Z" fill="#F2F2F2"/>
<path d="M116.423 77.3509C115.829 77.0669 115.372 76.559 115.152 75.9388C114.933 75.3186 114.968 74.6366 115.251 74.0426C116.837 62.8556 121.207 52.9396 129.265 44.7072C129.453 44.3185 129.741 43.9865 130.1 43.7448L129.663 43.5367C129.069 43.254 128.386 43.2185 127.765 43.4379C127.145 43.6574 126.636 44.1139 126.352 44.7073C118.295 52.9396 113.925 62.8557 112.339 74.0426C112.056 74.6367 112.02 75.3186 112.24 75.9389C112.459 76.5591 112.916 77.067 113.51 77.351L135.684 87.9253C136.078 88.1118 136.515 88.1907 136.95 88.1542C137.385 88.1176 137.802 87.9669 138.16 87.7172L116.423 77.3509Z" fill="black"/>
<path d="M140.328 68.7992L125.45 61.7543C125.213 61.6422 125.03 61.4408 124.942 61.1942C124.854 60.9477 124.868 60.6763 124.98 60.4397C125.092 60.2031 125.294 60.0208 125.541 59.9328C125.787 59.8448 126.059 59.8583 126.296 59.9704L141.174 67.0153C141.41 67.128 141.592 67.3294 141.679 67.5756C141.766 67.8217 141.753 68.0924 141.641 68.3284C141.529 68.5644 141.328 68.7465 141.082 68.8347C140.836 68.923 140.565 68.9102 140.328 68.7992Z" fill="white"/>
<path d="M131.043 58.4127L127.77 56.8628C127.652 56.8077 127.547 56.7301 127.459 56.6343C127.372 56.5384 127.304 56.4263 127.26 56.3043C127.216 56.1823 127.196 56.0528 127.202 55.9233C127.208 55.7937 127.24 55.6666 127.295 55.5492C127.35 55.4318 127.428 55.3264 127.524 55.2391C127.62 55.1518 127.732 55.0843 127.854 55.0403C127.977 54.9964 128.106 54.977 128.236 54.9831C128.366 54.9893 128.493 55.0209 128.61 55.0762L128.616 55.0789L131.889 56.6288C132.125 56.7413 132.307 56.9428 132.394 57.189C132.482 57.4352 132.468 57.7061 132.356 57.9422C132.244 58.1783 132.043 58.3604 131.797 58.4486C131.551 58.5368 131.28 58.5239 131.043 58.4127Z" fill="white"/>
<path d="M136.609 76.6417L121.73 69.5969C121.494 69.4843 121.312 69.2828 121.225 69.0366C121.137 68.7904 121.151 68.5196 121.263 68.2834C121.375 68.0473 121.576 67.8652 121.822 67.777C122.068 67.6888 122.339 67.7018 122.576 67.813L137.455 74.8578C137.572 74.913 137.677 74.9907 137.765 75.0865C137.852 75.1824 137.92 75.2944 137.964 75.4164C138.008 75.5383 138.027 75.6677 138.021 75.7972C138.015 75.9267 137.984 76.0537 137.928 76.171C137.873 76.2883 137.795 76.3936 137.7 76.4809C137.604 76.5682 137.491 76.6357 137.369 76.6797C137.247 76.7236 137.118 76.7431 136.988 76.7371C136.859 76.731 136.732 76.6996 136.614 76.6444L136.609 76.6417Z" fill="white"/>
<path d="M138.468 72.7205L123.59 65.6756C123.353 65.5638 123.17 65.3625 123.082 65.1161C122.993 64.8697 123.007 64.5982 123.119 64.3615C123.23 64.1248 123.432 63.9422 123.679 63.8539C123.925 63.7656 124.197 63.7789 124.434 63.8907L124.436 63.8917L139.314 70.9366C139.55 71.0492 139.732 71.2507 139.819 71.4968C139.907 71.743 139.893 72.0138 139.781 72.2498C139.669 72.4859 139.468 72.668 139.222 72.7562C138.976 72.8444 138.705 72.8316 138.468 72.7205Z" fill="white"/>
<path d="M140.105 52.7127C142.38 52.7127 144.224 50.8701 144.224 48.5972C144.224 46.3242 142.38 44.4816 140.105 44.4816C137.83 44.4816 135.986 46.3242 135.986 48.5972C135.986 50.8701 137.83 52.7127 140.105 52.7127Z" fill="#3F3D56"/>
<path d="M175.65 88.5351C171.183 78.8522 169.227 68.4167 170.597 56.9842C170.385 55.6542 171.127 54.3214 172.255 54.0048L192.48 48.3592C193.609 48.0457 194.696 48.8679 194.911 50.1971L199.964 81.7481C200.176 83.0781 199.434 84.4108 198.305 84.7274L178.08 90.373C176.952 90.6866 175.864 89.8644 175.65 88.5351Z" fill="#F2F2F2"/>
<path d="M180.049 88.5523C178.92 88.8658 177.833 88.0436 177.619 86.7143C173.152 77.0314 171.196 66.5959 172.566 55.1634C172.501 54.7389 172.531 54.3054 172.653 53.8938L172.255 54.0048C171.127 54.3214 170.385 55.6542 170.597 56.9842C169.227 68.4167 171.183 78.8522 175.65 88.5351C175.864 89.8644 176.952 90.6866 178.08 90.373L198.305 84.7274C198.69 84.5983 199.036 84.3737 199.311 84.0747C199.586 83.7758 199.78 83.4121 199.876 83.0177L180.049 88.5523Z" fill="black"/>
<path d="M191.974 66.9648L178.428 70.7924C177.979 70.9185 177.546 70.5921 177.46 70.0632C177.412 69.8199 177.451 69.5673 177.571 69.3502C177.691 69.1331 177.885 68.9657 178.117 68.8775L191.663 65.05C192.112 64.9248 192.544 65.2523 192.629 65.7815C192.677 66.0242 192.638 66.2761 192.518 66.4927C192.398 66.7092 192.205 66.8765 191.974 66.9648Z" fill="white"/>
<path d="M180.554 64.6997L177.574 65.5418C177.126 65.6703 176.691 65.3461 176.604 64.8177C176.554 64.5742 176.593 64.321 176.712 64.1032C176.832 63.8854 177.025 63.7172 177.258 63.6283L177.263 63.6269L180.243 62.7849C180.692 62.6597 181.125 62.9872 181.209 63.5164C181.257 63.7591 181.218 64.011 181.098 64.2276C180.978 64.4441 180.786 64.6114 180.554 64.6997Z" fill="white"/>
<path d="M193.343 75.383L179.797 79.2105C179.348 79.3357 178.915 79.0082 178.831 78.479C178.783 78.2363 178.822 77.9844 178.942 77.7678C179.062 77.5513 179.254 77.384 179.486 77.2957L193.032 73.4681C193.48 73.3396 193.915 73.6638 194.002 74.1922C194.052 74.4357 194.013 74.6889 193.893 74.9067C193.774 75.1245 193.58 75.2927 193.348 75.3815L193.343 75.383Z" fill="white"/>
<path d="M192.659 71.1739L179.113 75.0014C178.664 75.1289 178.23 74.8037 178.143 74.2751C178.094 74.0316 178.133 73.7785 178.253 73.5609C178.373 73.3434 178.567 73.1755 178.799 73.0871L178.801 73.0866L192.347 69.2591C192.796 69.1339 193.229 69.4614 193.314 69.9906C193.362 70.2333 193.322 70.4852 193.202 70.7018C193.083 70.9183 192.89 71.0856 192.659 71.1739Z" fill="white"/>
<path d="M185.229 51.8495C185.521 49.5953 184.23 47.5708 182.347 47.3277C180.464 47.0846 178.701 48.7149 178.41 50.9691C178.118 53.2233 179.408 55.2478 181.292 55.491C183.175 55.7341 184.938 54.1038 185.229 51.8495Z" fill="#3F3D56"/>
</svg>
