<svg width="273" height="147" viewBox="0 0 273 147" fill="none" xmlns="http://www.w3.org/2000/svg">
<path d="M17.292 122.77L16.4404 127.032C16.3763 127.358 16.3092 127.689 16.2363 128.018C15.5246 127.871 14.7866 127.912 14.0958 128.137C14.6439 128.919 15.1351 129.738 15.5656 130.59C15.029 132.239 14.2416 133.764 12.9234 134.866C12.0431 135.586 10.9916 136.068 9.87035 136.264C8.74914 136.461 7.59604 136.366 6.52224 135.989L6.56015 135.82C5.14285 133.077 5.91275 129.618 7.67417 127.084C8.57256 125.834 9.637 124.712 10.8383 123.747C12.0281 122.758 13.3142 121.871 14.5886 120.995C14.8748 120.799 15.2133 120.692 15.5606 120.689C15.908 120.685 16.2485 120.785 16.5387 120.975C16.8289 121.166 17.0555 121.438 17.1897 121.758C17.3239 122.078 17.3595 122.43 17.292 122.77Z" fill="#E4E4E4"/>
<path d="M6.8255 146.244C6.46709 143.639 6.09847 141.002 6.34985 138.369C6.57324 136.031 7.28802 133.748 8.74381 131.876C9.51648 130.884 10.4567 130.034 11.5221 129.364C11.8 129.189 12.0555 129.628 11.779 129.802C9.93561 130.965 8.50976 132.681 7.70708 134.704C6.82054 136.953 6.67822 139.405 6.8322 141.794C6.92465 143.239 7.12033 144.674 7.31776 146.109C7.33366 146.174 7.32409 146.242 7.29102 146.3C7.25795 146.358 7.20388 146.402 7.13987 146.421C7.07476 146.439 7.00534 146.43 6.9467 146.397C6.88805 146.363 6.84492 146.309 6.82666 146.244L6.8255 146.244Z" fill="#F2F2F2"/>
<path d="M9.90138 15.6031C22.3938 15.3864 34.8876 15.3553 47.3828 15.5097C59.8761 15.6651 72.3652 16.0068 84.8502 16.535C91.856 16.8314 98.859 17.1864 105.859 17.6002C106.422 17.6334 106.42 16.7605 105.859 16.7274C93.3866 15.9912 80.905 15.4402 68.4143 15.0747C55.9253 14.7101 43.4328 14.5319 30.9366 14.5402C23.9245 14.5448 16.9127 14.6082 9.90138 14.7304C9.33903 14.7401 9.33725 15.6129 9.90138 15.6031Z" fill="#E6E6E6"/>
<path d="M96.962 10.1307L102.425 9.72512C102.983 9.68369 102.987 8.8106 102.425 8.85237L96.962 9.25794C96.4039 9.29938 96.3994 10.1725 96.962 10.1307Z" fill="#E6E6E6"/>
<path d="M96.962 15.3672L102.425 14.9617C102.983 14.9202 102.987 14.0471 102.425 14.0889L96.962 14.4945C96.4039 14.5359 96.3994 15.409 96.962 15.3672Z" fill="#E6E6E6"/>
<path d="M96.5511 12.9758L104.318 13.6797C104.878 13.7305 104.875 12.8574 104.318 12.8069L96.5511 12.1031C95.9906 12.0523 95.994 12.9253 96.5511 12.9758Z" fill="#E6E6E6"/>
<path d="M13.1342 8.95698C12.7543 8.95464 12.3822 9.06389 12.0641 9.2711C11.7461 9.47832 11.4962 9.77434 11.3456 10.1223C11.1772 10.4628 11.1252 10.849 11.1976 11.2218C11.27 11.5945 11.4628 11.9334 11.7465 12.1866C12.0132 12.4129 12.3331 12.5681 12.6763 12.6377C13.0194 12.7072 13.3747 12.6888 13.7088 12.5843C14.0505 12.4652 14.3468 12.2434 14.5569 11.9495C14.767 11.6555 14.8806 11.3037 14.8821 10.9427C14.8974 10.5421 14.7886 10.1466 14.5706 9.80987C14.3525 9.47315 14.0358 9.21158 13.6635 9.06075C13.5517 9.03043 13.4323 9.04546 13.3315 9.10255C13.2307 9.15965 13.1567 9.25417 13.1254 9.36553C13.0978 9.47701 13.1141 9.5948 13.171 9.69465C13.2278 9.79451 13.3209 9.86883 13.431 9.90233C13.5072 9.93171 13.3613 9.86494 13.4325 9.90363C13.4618 9.91953 13.4916 9.93391 13.5203 9.95089C13.5448 9.96533 13.5681 9.98113 13.5919 9.9966C13.6736 10.0498 13.5521 9.95757 13.6042 10.0054C13.6495 10.0468 13.6944 10.0873 13.7355 10.133C13.7511 10.1503 13.812 10.1984 13.7646 10.1648C13.7284 10.139 13.7507 10.1441 13.7646 10.1648C13.7752 10.1804 13.7864 10.1967 13.7969 10.2124C13.831 10.2639 13.862 10.3174 13.8897 10.3725C13.8962 10.3853 13.902 10.3983 13.9086 10.4111C13.9208 10.4348 13.9386 10.4411 13.9098 10.4113C13.8823 10.3828 13.8999 10.3839 13.9098 10.4113C13.9163 10.4293 13.9232 10.448 13.9295 10.466C13.95 10.5249 13.9672 10.5849 13.981 10.6456C13.9875 10.6737 13.9926 10.702 13.9981 10.7302C14.0177 10.8304 13.9953 10.6679 14 10.7424C14.0039 10.8045 14.0085 10.866 14.0075 10.9284C14.007 10.957 14.0057 10.9855 14.0037 11.014C14.0027 11.0282 14.0011 11.0423 14.0002 11.0566C13.9956 11.125 13.9955 11.0315 14.0051 11.0251C13.9851 11.0833 13.9718 11.1435 13.9656 11.2046C13.9577 11.2318 13.9484 11.2583 13.9397 11.2851C13.9093 11.3788 13.9683 11.2341 13.9359 11.2981C13.9092 11.3531 13.8793 11.4064 13.8465 11.458C13.8322 11.4796 13.7785 11.5284 13.8224 11.4944C13.8701 11.4576 13.7974 11.521 13.7819 11.5373C13.762 11.5583 13.7413 11.5785 13.7199 11.598C13.7062 11.6114 13.6917 11.624 13.6765 11.6357C13.6737 11.6343 13.7496 11.5851 13.7087 11.6111C13.6567 11.6442 13.6075 11.6796 13.5527 11.7084C13.5463 11.7117 13.4763 11.7441 13.4766 11.7452C13.4736 11.7335 13.5666 11.7126 13.5028 11.7331C13.4894 11.7375 13.4762 11.7427 13.4628 11.7472C13.4047 11.7667 13.3453 11.7825 13.2851 11.7944C13.2714 11.7971 13.2568 11.7985 13.2432 11.802C13.198 11.8137 13.2864 11.7952 13.2891 11.7967C13.2556 11.7953 13.2222 11.7982 13.1895 11.8055C13.1275 11.809 13.0652 11.809 13.0032 11.8055C12.9888 11.8047 12.9745 11.8032 12.9601 11.8024C12.9268 11.8005 12.9023 11.7765 12.9467 11.8025C12.9809 11.8226 12.9781 11.808 12.9478 11.8024C12.9336 11.7997 12.9193 11.7975 12.9051 11.7949C12.8437 11.7834 12.783 11.7686 12.7232 11.7504C12.691 11.7406 12.6595 11.7293 12.6277 11.7182C12.6139 11.7142 12.6004 11.709 12.5875 11.7027C12.5873 11.6992 12.6693 11.7418 12.626 11.7186C12.5714 11.6892 12.5149 11.6646 12.4615 11.6325C12.433 11.6153 12.4057 11.5967 12.378 11.5783C12.3658 11.571 12.3542 11.5628 12.3434 11.5536C12.3443 11.5499 12.4112 11.6118 12.3761 11.5784C12.3317 11.5362 12.2841 11.4984 12.2421 11.4534C12.2325 11.4431 12.2234 11.4323 12.2138 11.422L12.2045 11.4115C12.1808 11.3825 12.1803 11.3827 12.2032 11.4119C12.2252 11.4448 12.2264 11.4187 12.2032 11.4119C12.1953 11.4001 12.1871 11.3879 12.1793 11.3762C12.1438 11.3257 12.1135 11.2717 12.0889 11.2151C12.091 11.2135 12.1268 11.3201 12.0994 11.2396C12.0943 11.2244 12.0885 11.2095 12.0834 11.1942C12.0733 11.164 12.0645 11.1334 12.0569 11.1025C12.0493 11.0719 12.0454 11.0403 12.0378 11.0098C12.0249 10.9584 12.0453 11.0504 12.043 11.0481C12.0357 11.0409 12.0388 10.9963 12.0382 10.9857C12.0347 10.9172 12.0426 10.8507 12.0438 10.7827C12.0447 10.7299 12.0394 10.8238 12.0383 10.821C12.0386 10.8052 12.0414 10.7896 12.0466 10.7747C12.0545 10.7388 12.0619 10.7029 12.0716 10.6674C12.0827 10.6268 12.0955 10.5866 12.1099 10.547C12.1153 10.5321 12.1219 10.5175 12.1269 10.5026C12.1454 10.4478 12.0905 10.5687 12.1207 10.5193C12.1624 10.4513 12.1934 10.3778 12.2375 10.3106C12.248 10.2947 12.3117 10.206 12.2779 10.2508C12.2442 10.2954 12.3125 10.2109 12.3254 10.1965C12.379 10.1369 12.4421 10.088 12.4977 10.0309C12.5306 9.99715 12.4747 10.0476 12.4714 10.0499C12.4887 10.0377 12.5055 10.0249 12.5229 10.013C12.5533 9.99207 12.5844 9.97233 12.6163 9.95373C12.6522 9.93274 12.6927 9.91711 12.7275 9.89491C12.7686 9.86868 12.6961 9.90642 12.6948 9.90721C12.7136 9.89792 12.7332 9.89046 12.7534 9.88493C12.7873 9.87295 12.9346 9.80953 12.9655 9.82936C12.9641 9.82847 12.8536 9.83823 12.9429 9.83251C12.964 9.83116 12.985 9.82911 13.0062 9.82823C13.0489 9.82647 13.0915 9.82754 13.1342 9.82975C13.25 9.82899 13.3608 9.78277 13.4427 9.7011C13.5246 9.61942 13.5709 9.50887 13.5717 9.39337C13.5692 9.27841 13.5223 9.16884 13.4408 9.08753C13.3593 9.00623 13.2494 8.95945 13.1342 8.95698Z" fill="#E6E6E6"/>
<path d="M19.2583 8.95698C18.8785 8.95464 18.5063 9.06389 18.1883 9.2711C17.8702 9.47832 17.6203 9.77434 17.4698 10.1223C17.3013 10.4628 17.2493 10.849 17.3217 11.2218C17.3941 11.5945 17.5869 11.9334 17.8706 12.1866C18.1374 12.4129 18.4572 12.5681 18.8004 12.6377C19.1436 12.7072 19.4988 12.6888 19.8329 12.5843C20.1746 12.4652 20.4709 12.2434 20.681 11.9495C20.8912 11.6555 21.0048 11.3037 21.0062 10.9427C21.0215 10.5421 20.9127 10.1466 20.6947 9.80987C20.4767 9.47315 20.16 9.21158 19.7877 9.06075C19.6758 9.03043 19.5565 9.04546 19.4557 9.10255C19.3549 9.15965 19.2808 9.25417 19.2496 9.36553C19.222 9.47701 19.2383 9.5948 19.2951 9.69465C19.3519 9.79451 19.445 9.86883 19.5551 9.90233C19.6313 9.93171 19.4854 9.86494 19.5566 9.90363C19.5859 9.91953 19.6157 9.93391 19.6445 9.95089C19.6689 9.96533 19.6923 9.98113 19.7161 9.9966C19.7977 10.0498 19.6762 9.95757 19.7284 10.0054C19.7737 10.0468 19.8185 10.0873 19.8596 10.133C19.8752 10.1503 19.9361 10.1984 19.8888 10.1648C19.8525 10.139 19.8748 10.1441 19.8888 10.1648C19.8994 10.1804 19.9106 10.1967 19.921 10.2124C19.9551 10.2639 19.9861 10.3174 20.0139 10.3725C20.0203 10.3853 20.0262 10.3983 20.0327 10.4111C20.045 10.4348 20.0627 10.4411 20.0339 10.4113C20.0064 10.3828 20.0241 10.3839 20.0339 10.4113C20.0404 10.4293 20.0473 10.448 20.0536 10.466C20.0741 10.5249 20.0913 10.5849 20.1052 10.6456C20.1116 10.6737 20.1168 10.702 20.1223 10.7302C20.1418 10.8304 20.1194 10.6679 20.1241 10.7424C20.1281 10.8045 20.1327 10.866 20.1316 10.9284C20.1311 10.957 20.1299 10.9855 20.1279 11.014C20.1269 11.0282 20.1253 11.0423 20.1243 11.0566C20.1198 11.125 20.1196 11.0315 20.1292 11.0251C20.1093 11.0833 20.096 11.1435 20.0897 11.2046C20.0819 11.2318 20.0726 11.2583 20.0639 11.2851C20.0334 11.3788 20.0924 11.2341 20.06 11.2981C20.0333 11.3531 20.0035 11.4064 19.9706 11.458C19.9564 11.4796 19.9026 11.5284 19.9466 11.4944C19.9943 11.4576 19.9216 11.521 19.9061 11.5373C19.8861 11.5583 19.8655 11.5785 19.844 11.598C19.8303 11.6114 19.8158 11.624 19.8006 11.6357C19.7979 11.6343 19.8737 11.5851 19.8328 11.6111C19.7809 11.6442 19.7316 11.6796 19.6769 11.7084C19.6705 11.7117 19.6005 11.7441 19.6007 11.7452C19.5977 11.7335 19.6908 11.7126 19.6269 11.7331C19.6135 11.7375 19.6003 11.7427 19.587 11.7472C19.5288 11.7667 19.4695 11.7825 19.4093 11.7944C19.3955 11.7971 19.3809 11.7985 19.3673 11.802C19.3221 11.8137 19.4106 11.7952 19.4132 11.7967C19.3798 11.7953 19.3463 11.7982 19.3137 11.8055C19.2516 11.809 19.1894 11.809 19.1273 11.8055C19.113 11.8047 19.0986 11.8032 19.0843 11.8024C19.0509 11.8005 19.0265 11.7765 19.0708 11.8025C19.1051 11.8226 19.1022 11.808 19.0719 11.8024C19.0577 11.7997 19.0435 11.7975 19.0293 11.7949C18.9679 11.7834 18.9071 11.7686 18.8473 11.7504C18.8151 11.7406 18.7836 11.7293 18.7519 11.7182C18.738 11.7142 18.7246 11.709 18.7116 11.7027C18.7114 11.6992 18.7934 11.7418 18.7501 11.7186C18.6955 11.6892 18.639 11.6646 18.5856 11.6325C18.5572 11.6153 18.5298 11.5967 18.5021 11.5783C18.49 11.571 18.4784 11.5628 18.4675 11.5536C18.4684 11.5499 18.5353 11.6118 18.5002 11.5784C18.4558 11.5362 18.4083 11.4984 18.3662 11.4534C18.3566 11.4431 18.3475 11.4323 18.3379 11.422L18.3286 11.4115C18.3049 11.3825 18.3045 11.3827 18.3273 11.4119C18.3493 11.4448 18.3505 11.4187 18.3273 11.4119C18.3195 11.4001 18.3113 11.3879 18.3034 11.3762C18.2679 11.3257 18.2376 11.2717 18.213 11.2151C18.2152 11.2135 18.2509 11.3201 18.2236 11.2396C18.2184 11.2244 18.2126 11.2095 18.2075 11.1942C18.1975 11.164 18.1886 11.1334 18.181 11.1025C18.1734 11.0719 18.1696 11.0403 18.1619 11.0098C18.1491 10.9584 18.1694 11.0504 18.1671 11.0481C18.1598 11.0409 18.1629 10.9963 18.1624 10.9857C18.1589 10.9172 18.1667 10.8507 18.1679 10.7827C18.1689 10.7299 18.1636 10.8238 18.1624 10.821C18.1627 10.8052 18.1655 10.7896 18.1708 10.7747C18.1787 10.7388 18.186 10.7029 18.1957 10.6674C18.2068 10.6268 18.2196 10.5866 18.2341 10.547C18.2395 10.5321 18.2461 10.5175 18.2511 10.5026C18.2695 10.4478 18.2146 10.5687 18.2449 10.5193C18.2865 10.4513 18.3175 10.3778 18.3617 10.3106C18.3722 10.2947 18.4358 10.206 18.402 10.2508C18.3684 10.2954 18.4366 10.2109 18.4495 10.1965C18.5032 10.1369 18.5663 10.088 18.6218 10.0309C18.6547 9.99715 18.5989 10.0476 18.5956 10.0499C18.6128 10.0377 18.6296 10.0249 18.6471 10.013C18.6774 9.99207 18.7085 9.97233 18.7404 9.95373C18.7763 9.93274 18.8169 9.91711 18.8517 9.89491C18.8927 9.86868 18.8202 9.90642 18.8189 9.90721C18.8377 9.89792 18.8573 9.89046 18.8775 9.88493C18.9114 9.87295 19.0587 9.80953 19.0896 9.82936C19.0882 9.82847 18.9778 9.83823 19.0671 9.83251C19.0882 9.83116 19.1092 9.82911 19.1303 9.82823C19.1731 9.82647 19.2157 9.82754 19.2584 9.82975C19.3741 9.82899 19.485 9.78277 19.5668 9.7011C19.6487 9.61942 19.695 9.50887 19.6958 9.39337C19.6933 9.27841 19.6464 9.16884 19.5649 9.08753C19.4834 9.00623 19.3736 8.95945 19.2583 8.95698Z" fill="#E6E6E6"/>
<path d="M25.3825 8.95698C25.0026 8.95464 24.6305 9.06389 24.3124 9.2711C23.9943 9.47832 23.7445 9.77434 23.5939 10.1223C23.4255 10.4628 23.3735 10.849 23.4459 11.2218C23.5183 11.5945 23.7111 11.9334 23.9948 12.1866C24.2615 12.4129 24.5814 12.5681 24.9245 12.6377C25.2677 12.7072 25.623 12.6888 25.9571 12.5843C26.2988 12.4652 26.5951 12.2434 26.8052 11.9495C27.0153 11.6555 27.1289 11.3037 27.1304 10.9427C27.1456 10.5421 27.0369 10.1466 26.8188 9.80987C26.6008 9.47315 26.2841 9.21158 25.9118 9.06075C25.8 9.03043 25.6806 9.04546 25.5798 9.10255C25.479 9.15965 25.4049 9.25417 25.3737 9.36553C25.3461 9.47701 25.3624 9.5948 25.4193 9.69465C25.4761 9.79451 25.5691 9.86883 25.6792 9.90233C25.7555 9.93171 25.6096 9.86494 25.6808 9.90363C25.71 9.91953 25.7399 9.93391 25.7686 9.95089C25.793 9.96533 25.8164 9.98113 25.8402 9.9966C25.9219 10.0498 25.8003 9.95757 25.8525 10.0054C25.8978 10.0468 25.9426 10.0873 25.9838 10.133C25.9993 10.1503 26.0603 10.1984 26.0129 10.1648C25.9767 10.139 25.999 10.1441 26.0129 10.1648C26.0235 10.1804 26.0347 10.1967 26.0452 10.2124C26.0793 10.2639 26.1103 10.3174 26.138 10.3725C26.1444 10.3853 26.1503 10.3983 26.1569 10.4111C26.1691 10.4348 26.1869 10.4411 26.1581 10.4113C26.1306 10.3828 26.1482 10.3839 26.1581 10.4113C26.1645 10.4293 26.1715 10.448 26.1777 10.466C26.1983 10.5249 26.2155 10.5849 26.2293 10.6456C26.2357 10.6737 26.2409 10.702 26.2464 10.7302C26.2659 10.8304 26.2436 10.6679 26.2483 10.7424C26.2522 10.8045 26.2568 10.866 26.2557 10.9284C26.2552 10.957 26.254 10.9855 26.252 11.014C26.251 11.0282 26.2494 11.0423 26.2485 11.0566C26.2439 11.125 26.2438 11.0315 26.2534 11.0251C26.2334 11.0833 26.2201 11.1435 26.2139 11.2046C26.206 11.2318 26.1967 11.2583 26.188 11.2851C26.1576 11.3788 26.2166 11.2341 26.1841 11.2981C26.1574 11.3531 26.1276 11.4064 26.0948 11.458C26.0805 11.4796 26.0268 11.5284 26.0707 11.4944C26.1184 11.4576 26.0457 11.521 26.0302 11.5373C26.0103 11.5583 25.9896 11.5785 25.9682 11.598C25.9544 11.6114 25.94 11.624 25.9248 11.6357C25.922 11.6343 25.9979 11.5851 25.957 11.6111C25.905 11.6442 25.8558 11.6796 25.801 11.7084C25.7946 11.7117 25.7246 11.7441 25.7249 11.7452C25.7219 11.7335 25.8149 11.7126 25.751 11.7331C25.7376 11.7375 25.7245 11.7427 25.7111 11.7472C25.653 11.7667 25.5936 11.7825 25.5334 11.7944C25.5196 11.7971 25.5051 11.7985 25.4915 11.802C25.4463 11.8137 25.5347 11.7952 25.5374 11.7967C25.5039 11.7953 25.4705 11.7982 25.4378 11.8055C25.3757 11.809 25.3135 11.809 25.2515 11.8055C25.2371 11.8047 25.2228 11.8032 25.2084 11.8024C25.1751 11.8005 25.1506 11.7765 25.195 11.8025C25.2292 11.8226 25.2264 11.808 25.196 11.8024C25.1819 11.7997 25.1676 11.7975 25.1534 11.7949C25.092 11.7834 25.0312 11.7686 24.9715 11.7504C24.9393 11.7406 24.9078 11.7293 24.876 11.7182C24.8622 11.7142 24.8487 11.709 24.8358 11.7027C24.8356 11.6992 24.9176 11.7418 24.8743 11.7186C24.8196 11.6892 24.7631 11.6646 24.7098 11.6325C24.6813 11.6153 24.654 11.5967 24.6263 11.5783C24.6141 11.571 24.6025 11.5628 24.5917 11.5536C24.5926 11.5499 24.6595 11.6118 24.6244 11.5784C24.5799 11.5362 24.5324 11.4984 24.4904 11.4534C24.4807 11.4431 24.4716 11.4323 24.4621 11.422L24.4528 11.4115C24.4291 11.3825 24.4286 11.3827 24.4515 11.4119C24.4734 11.4448 24.4746 11.4187 24.4515 11.4119C24.4436 11.4001 24.4354 11.3879 24.4276 11.3762C24.3921 11.3257 24.3618 11.2717 24.3372 11.2151C24.3393 11.2135 24.3751 11.3201 24.3477 11.2396C24.3426 11.2244 24.3367 11.2095 24.3317 11.1942C24.3216 11.164 24.3128 11.1334 24.3051 11.1025C24.2976 11.0719 24.2937 11.0403 24.2861 11.0098C24.2732 10.9584 24.2936 11.0504 24.2913 11.0481C24.284 11.0409 24.2871 10.9963 24.2865 10.9857C24.283 10.9172 24.2908 10.8507 24.2921 10.7827C24.293 10.7299 24.2877 10.8238 24.2866 10.821C24.2869 10.8052 24.2897 10.7896 24.2949 10.7747C24.3028 10.7388 24.3102 10.7029 24.3199 10.6674C24.331 10.6268 24.3438 10.5866 24.3582 10.547C24.3636 10.5321 24.3702 10.5175 24.3752 10.5026C24.3936 10.4478 24.3388 10.5687 24.369 10.5193C24.4106 10.4513 24.4416 10.3778 24.4858 10.3106C24.4963 10.2947 24.56 10.206 24.5262 10.2508C24.4925 10.2954 24.5607 10.2109 24.5737 10.1965C24.6273 10.1369 24.6904 10.088 24.746 10.0309C24.7789 9.99715 24.723 10.0476 24.7197 10.0499C24.7369 10.0377 24.7538 10.0249 24.7712 10.013C24.8016 9.99207 24.8327 9.97233 24.8645 9.95373C24.9004 9.93274 24.941 9.91711 24.9758 9.89491C25.0169 9.86868 24.9444 9.90642 24.9431 9.90721C24.9618 9.89792 24.9815 9.89046 25.0017 9.88493C25.0355 9.87295 25.1829 9.80953 25.2138 9.82936C25.2124 9.82847 25.1019 9.83823 25.1912 9.83251C25.2123 9.83116 25.2333 9.82911 25.2545 9.82823C25.2972 9.82647 25.3398 9.82754 25.3825 9.82975C25.4983 9.82899 25.6091 9.78277 25.691 9.7011C25.7728 9.61942 25.8192 9.50887 25.8199 9.39337C25.8175 9.27841 25.7706 9.16884 25.6891 9.08753C25.6076 9.00623 25.4977 8.95945 25.3825 8.95698Z" fill="#E6E6E6"/>
<path d="M113.854 105.603H6.56332C5.20662 105.602 3.90591 105.064 2.94656 104.107C1.98722 103.15 1.44758 101.852 1.44605 100.499V5.10486C1.44757 3.75143 1.9872 2.45387 2.94654 1.49685C3.90589 0.539836 5.2066 0.00151767 6.56332 0H113.854C115.211 0.00151768 116.511 0.539835 117.471 1.49685C118.43 2.45387 118.97 3.75143 118.971 5.10486V100.499C118.97 101.852 118.43 103.15 117.471 104.107C116.511 105.064 115.211 105.602 113.854 105.603ZM6.56332 0.581837C5.36125 0.583202 4.20879 1.06017 3.3588 1.90811C2.5088 2.75604 2.03067 3.90569 2.0293 5.10486V100.499C2.0307 101.698 2.50885 102.848 3.35884 103.695C4.20884 104.543 5.36127 105.02 6.56332 105.022H113.854C115.056 105.02 116.208 104.543 117.058 103.695C117.908 102.848 118.387 101.698 118.388 100.499V5.10486C118.387 3.9057 117.908 2.75604 117.058 1.90811C116.208 1.06017 115.056 0.583203 113.854 0.581837H6.56332Z" fill="#E6E6E6"/>
<path d="M6.38556 64.9057L102.829 64.613C102.942 64.6091 103.05 64.5614 103.128 64.48C103.207 64.3986 103.251 64.2898 103.251 64.1767C103.251 64.0635 103.207 63.9547 103.128 63.8733C103.05 63.7919 102.942 63.7442 102.829 63.7403L6.38556 64.0329C6.27216 64.0368 6.16473 64.0845 6.0859 64.1659C6.00707 64.2473 5.96301 64.3561 5.96301 64.4693C5.96301 64.5825 6.00707 64.6913 6.0859 64.7727C6.16473 64.8541 6.27216 64.9018 6.38556 64.9057Z" fill="#E6E6E6"/>
<path d="M25.4199 64.1981L25.6532 50.456C25.6627 49.8942 24.7879 49.8941 24.7783 50.456L24.545 64.1981C24.5355 64.7599 25.4103 64.7601 25.4199 64.1981Z" fill="#E6E6E6"/>
<path d="M43.4527 64.3468L44.1836 42.1385C44.2021 41.5767 43.3272 41.5774 43.3088 42.1385L42.5778 64.3468C42.5593 64.9086 43.4342 64.9079 43.4527 64.3468Z" fill="#E6E6E6"/>
<path d="M61.4367 33.9506C61.0938 40.0686 60.4593 58.1143 60.1163 64.2323C60.0849 64.7935 60.9598 64.7917 60.9912 64.2323C61.3341 58.1143 61.9687 40.0686 62.3116 33.9506C62.3431 33.3894 61.4681 33.3912 61.4367 33.9506Z" fill="#E6E6E6"/>
<path d="M79.3343 58.0933L79.2271 63.9737C79.2168 64.5355 80.0917 64.5356 80.1019 63.9737C80.2286 57.0285 80.5534 57.2549 80.5892 55.2948C80.5994 54.7329 79.7245 54.7329 79.7143 55.2948C79.7143 55.2948 79.461 51.1481 79.3343 58.0933Z" fill="#E6E6E6"/>
<path d="M96.8645 42.6454L96.9918 63.8669C96.9957 63.9801 97.0435 64.0872 97.1251 64.1659C97.2067 64.2445 97.3157 64.2885 97.4292 64.2885C97.5427 64.2885 97.6517 64.2445 97.7333 64.1659C97.8149 64.0872 97.8627 63.9801 97.8666 63.8669L97.7394 42.6454C97.7354 42.5323 97.6876 42.4251 97.606 42.3464C97.5244 42.2678 97.4154 42.2238 97.3019 42.2238C97.1885 42.2238 97.0794 42.2678 96.9978 42.3464C96.9162 42.4251 96.8684 42.5323 96.8645 42.6454Z" fill="#E6E6E6"/>
<path d="M6.45591 64.4147C5.73173 62.4295 7.36417 60.5201 9.04154 59.6621C11.0511 58.6342 13.3629 58.4013 15.3938 57.4103C18.4216 55.9331 20.6269 53.2818 22.5892 50.6279C24.6089 47.8964 26.457 44.9648 29.0234 42.6952C30.3758 41.4727 31.973 40.5506 33.7094 39.9899C35.8973 39.3088 38.2176 39.2621 40.4783 39.5366C45.1498 40.1038 49.4802 42.0286 53.9876 43.2519C58.2372 44.4053 62.9194 45.0538 67.0905 43.2603C69.2097 42.349 70.9427 40.8208 72.8041 39.4982C74.6055 38.2049 76.6196 37.2356 78.7557 36.6342C82.9428 35.4727 87.5155 35.7829 91.4137 37.7464C94.9971 39.5281 97.8343 42.5154 99.4246 46.1809C101.273 50.5849 101.032 55.5065 100.428 60.142C100.272 61.3402 100.087 62.5345 99.8989 63.7281C99.8125 64.2775 100.655 64.5142 100.743 63.9601C101.494 59.1801 102.244 54.2487 101.308 49.4386C100.5 45.2385 98.1845 41.4763 94.7961 38.8559C91.3934 36.2285 87.1634 34.8968 82.8653 35.0998C80.6129 35.2041 78.3956 35.696 76.3112 36.5539C74.1475 37.4467 72.3154 38.77 70.4543 40.1624C68.5409 41.594 66.5684 42.7781 64.1928 43.2451C61.8885 43.6979 59.4914 43.5282 57.1972 43.1006C52.4634 42.2183 48.0511 40.1957 43.3575 39.1594C39.0089 38.1993 34.3163 38.1033 30.4223 40.554C27.4269 42.4392 25.3103 45.3658 23.279 48.1918C21.2655 50.993 19.2265 53.9884 16.2823 55.902C14.4862 57.0693 12.4673 57.5 10.4581 58.1564C8.44377 58.8145 6.50997 59.9248 5.68864 61.9836C5.33466 62.8315 5.30746 63.78 5.61228 64.6467C5.8033 65.1703 6.64908 64.9442 6.45591 64.4147Z" fill="#E6E6E6"/>
<path d="M26.6466 47.753C26.4444 47.3958 26.1218 47.1216 25.7362 46.9792C25.3505 46.8369 24.9267 46.8354 24.5401 46.9753C24.3479 47.0452 24.1718 47.1529 24.0221 47.292C23.8723 47.4311 23.7521 47.5987 23.6684 47.7849C23.6517 47.8245 23.6419 47.8661 23.6282 47.9067C23.6093 47.9373 23.5865 47.9649 23.5695 47.9968C23.3882 48.3573 23.3385 48.7695 23.4291 49.1626C23.5197 49.5556 23.7448 49.9048 24.0657 50.1501C24.3866 50.3953 24.7832 50.5213 25.1872 50.5062C25.5912 50.4912 25.9773 50.336 26.279 50.0676C26.596 49.7817 26.8054 49.3961 26.8723 48.975C26.9391 48.5539 26.8595 48.1227 26.6466 47.753ZM25.5509 48.4941C25.5531 48.5364 25.5545 48.5162 25.5509 48.4941V48.4941ZM25.4395 48.2415C25.4352 48.2366 25.4357 48.2371 25.4395 48.2415V48.2415ZM24.9486 48.4384C24.9414 48.4266 24.942 48.4283 24.9486 48.4384V48.4384ZM25.0649 48.5368C25.0817 48.5443 25.0927 48.5462 25.0649 48.5368V48.5368ZM25.1169 48.5615L25.1292 48.5558C25.1263 48.556 25.1228 48.556 25.1203 48.5546L25.1292 48.5558L25.1313 48.5549L25.1261 48.5537C25.1306 48.5536 25.131 48.5542 25.1313 48.5549C25.1834 48.5312 25.1483 48.5426 25.1181 48.5519L25.1161 48.5514C25.0972 48.5419 25.077 48.5354 25.0561 48.5322C25.0542 48.5311 25.0519 48.5304 25.0503 48.5292C25.0335 48.5173 24.9489 48.4513 25.0274 48.5205C25.0103 48.5054 24.9934 48.4907 24.9773 48.4744C24.9678 48.4647 24.9593 48.4542 24.9517 48.4429C24.9414 48.4253 24.9314 48.4075 24.9217 48.3896L24.9202 48.3799C24.9189 48.3719 24.918 48.3685 24.9169 48.3637C24.9174 48.3587 24.9182 48.3533 24.919 48.3481C24.9249 48.3325 24.9286 48.316 24.9301 48.2994L24.9335 48.2951C24.9461 48.2776 24.9571 48.2572 24.9691 48.239C24.9057 48.3351 24.9938 48.2284 25.0004 48.2149C25.0016 48.2126 24.9996 48.2139 25.0001 48.2123C25.0026 48.2108 25.0019 48.2118 25.005 48.21C25.0246 48.1985 25.0432 48.1856 25.0632 48.1746C25.0869 48.1614 25.1805 48.1349 25.0835 48.1626C25.1055 48.1563 25.1267 48.1484 25.149 48.1426C25.153 48.1415 25.1857 48.137 25.2033 48.1338C25.2188 48.1334 25.2338 48.133 25.2353 48.133C25.2426 48.1331 25.2499 48.1339 25.2571 48.1343C25.241 48.1364 25.3124 48.1518 25.3336 48.1551C25.3367 48.1575 25.3382 48.159 25.3424 48.162C25.3603 48.1751 25.3821 48.1867 25.4011 48.1989C25.3165 48.1444 25.4022 48.2033 25.4183 48.2194C25.428 48.229 25.4369 48.2393 25.446 48.2494C25.4543 48.2591 25.4618 48.2694 25.4685 48.2803C25.4824 48.3056 25.4971 48.3313 25.5117 48.3562L25.5157 48.3626C25.5157 48.3635 25.5156 48.3643 25.5156 48.3651C25.5232 48.4056 25.5344 48.4453 25.5491 48.4837C25.5498 48.487 25.5505 48.4908 25.5509 48.4941C25.5522 48.5163 25.554 48.5378 25.554 48.5601L25.5538 48.5646C25.4865 48.5296 25.4117 48.511 25.3357 48.5105C25.2598 48.51 25.1848 48.5274 25.1169 48.5615Z" fill="#E6E6E6"/>
<path d="M45.3106 39.6073C45.1084 39.2501 44.7859 38.9759 44.4002 38.8335C44.0145 38.6911 43.5908 38.6897 43.2042 38.8295C43.012 38.8995 42.8358 39.0072 42.6861 39.1463C42.5364 39.2854 42.4162 39.453 42.3325 39.6392C42.3157 39.6788 42.306 39.7204 42.2923 39.761C42.2733 39.7915 42.2505 39.8191 42.2336 39.8511C42.0522 40.2116 42.0026 40.6238 42.0932 41.0168C42.1837 41.4099 42.4089 41.7591 42.7298 42.0044C43.0507 42.2496 43.4473 42.3756 43.8513 42.3605C44.2553 42.3454 44.6413 42.1903 44.943 41.9219C45.2601 41.636 45.4694 41.2504 45.5363 40.8293C45.6032 40.4082 45.5236 39.9769 45.3106 39.6073ZM44.2149 40.3484C44.2172 40.3907 44.2185 40.3704 44.2149 40.3484V40.3484ZM44.1035 40.0958C44.0993 40.0909 44.0998 40.0914 44.1035 40.0958V40.0958ZM43.6126 40.2927C43.6054 40.2809 43.6061 40.2826 43.6126 40.2927V40.2927ZM43.729 40.3911C43.7457 40.3985 43.7567 40.4005 43.729 40.3911V40.3911ZM43.781 40.4158L43.7932 40.4101C43.7904 40.4103 43.7868 40.4102 43.7843 40.4089L43.7932 40.4101L43.7954 40.4092L43.7901 40.408C43.7947 40.4079 43.7951 40.4085 43.7954 40.4092C43.8474 40.3855 43.8123 40.3968 43.7821 40.4062L43.7801 40.4057C43.7613 40.3962 43.741 40.3897 43.7201 40.3865C43.7182 40.3854 43.7159 40.3846 43.7143 40.3835C43.6975 40.3716 43.6129 40.3056 43.6914 40.3748C43.6743 40.3597 43.6574 40.3449 43.6414 40.3287C43.6319 40.319 43.6233 40.3085 43.6157 40.2972C43.6054 40.2796 43.5954 40.2618 43.5857 40.2439L43.5843 40.2342C43.583 40.2261 43.582 40.2228 43.581 40.218C43.5815 40.213 43.5823 40.2076 43.583 40.2024C43.5889 40.1867 43.5926 40.1703 43.5942 40.1536L43.5975 40.1494C43.6101 40.1319 43.6211 40.1115 43.6331 40.0933C43.5697 40.1894 43.6579 40.0827 43.6645 40.0692C43.6656 40.0669 43.6636 40.0682 43.6641 40.0666C43.6667 40.0651 43.6659 40.0661 43.669 40.0643C43.6886 40.0528 43.7073 40.0399 43.7272 40.0289C43.751 40.0157 43.8446 39.9892 43.7475 40.0169C43.7696 40.0106 43.7907 40.0027 43.813 39.9969C43.8171 39.9958 43.8497 39.9913 43.8673 39.9881C43.8828 39.9877 43.8978 39.9872 43.8994 39.9873C43.9066 39.9873 43.9139 39.9882 43.9212 39.9886C43.9051 39.9907 43.9764 40.0061 43.9976 40.0093C44.0007 40.0117 44.0023 40.0133 44.0064 40.0163C44.0244 40.0294 44.0462 40.041 44.0651 40.0532C43.9805 39.9987 44.0662 40.0575 44.0824 40.0737C44.092 40.0833 44.1009 40.0936 44.11 40.1037C44.1183 40.1134 44.1259 40.1237 44.1325 40.1346C44.1464 40.1599 44.1612 40.1856 44.1757 40.2105L44.1798 40.2169C44.1797 40.2177 44.1797 40.2186 44.1797 40.2194C44.1873 40.2598 44.1985 40.2995 44.2132 40.338C44.2139 40.3413 44.2145 40.3451 44.2149 40.3484C44.2163 40.3706 44.218 40.3921 44.2181 40.4144L44.2179 40.4189C44.1505 40.3839 44.0758 40.3653 43.9998 40.3648C43.9238 40.3642 43.8488 40.3817 43.781 40.4158Z" fill="#E6E6E6"/>
<path d="M63.3914 31.4615C63.1892 31.1043 62.8666 30.8302 62.481 30.6878C62.0953 30.5454 61.6716 30.544 61.285 30.6838C61.0928 30.7538 60.9166 30.8615 60.7669 31.0006C60.6172 31.1396 60.4969 31.3072 60.4133 31.4935C60.3965 31.5331 60.3867 31.5747 60.3731 31.6152C60.3541 31.6458 60.3313 31.6734 60.3144 31.7054C60.133 32.0658 60.0834 32.4781 60.174 32.8711C60.2645 33.2642 60.4897 33.6134 60.8106 33.8586C61.1315 34.1039 61.5281 34.2298 61.9321 34.2148C62.3361 34.1997 62.7221 34.0446 63.0238 33.7761C63.3409 33.4902 63.5502 33.1047 63.6171 32.6836C63.684 32.2625 63.6044 31.8312 63.3914 31.4615ZM62.2957 32.2027C62.298 32.245 62.2993 32.2247 62.2957 32.2027V32.2027ZM62.1843 31.9501C62.1801 31.9451 62.1806 31.9457 62.1843 31.9501V31.9501ZM61.6934 32.147C61.6862 32.1352 61.6869 32.1369 61.6934 32.147V32.147ZM61.8098 32.2454C61.8265 32.2528 61.8375 32.2548 61.8098 32.2454V32.2454ZM61.8618 32.2701L61.8733 32.2648C61.8704 32.2651 61.8676 32.2645 61.8651 32.2632L61.8745 32.2643L61.8761 32.2635L61.8709 32.2623C61.8755 32.2621 61.8758 32.2628 61.8761 32.2635C61.9282 32.2397 61.8931 32.2511 61.8629 32.2604L61.8609 32.26C61.8421 32.2504 61.8218 32.244 61.8009 32.2408C61.799 32.2397 61.7967 32.2389 61.7951 32.2378C61.7783 32.2259 61.6937 32.1599 61.7722 32.2291C61.7551 32.214 61.7382 32.1992 61.7222 32.183C61.7127 32.1733 61.7041 32.1627 61.6965 32.1515C61.6862 32.1339 61.6762 32.1161 61.6665 32.0981L61.6651 32.0885C61.6638 32.0804 61.6628 32.0771 61.6618 32.0723C61.6623 32.0673 61.6631 32.0619 61.6638 32.0567C61.6697 32.041 61.6734 32.0246 61.6749 32.0079L61.6783 32.0037C61.6909 31.9862 61.7019 31.9658 61.7139 31.9476C61.6505 32.0437 61.7387 31.937 61.7453 31.9235C61.7464 31.9212 61.7444 31.9224 61.7449 31.9208C61.7475 31.9194 61.7467 31.9204 61.7498 31.9186C61.7694 31.907 61.7881 31.8942 61.808 31.8831C61.8318 31.87 61.9254 31.8435 61.8283 31.8712C61.8504 31.8649 61.8715 31.8569 61.8938 31.8511C61.8978 31.8501 61.9305 31.8455 61.9481 31.8424C61.9636 31.842 61.9786 31.8415 61.9802 31.8415C61.9874 31.8416 61.9947 31.8425 62.002 31.8428C61.9858 31.845 62.0572 31.8604 62.0784 31.8636C62.0815 31.866 62.0831 31.8676 62.0872 31.8706C62.1052 31.8837 62.127 31.8953 62.1459 31.9075C62.0613 31.8529 62.147 31.9118 62.1631 31.9279C62.1728 31.9376 62.1817 31.9479 62.1908 31.958C62.1991 31.9676 62.2067 31.978 62.2133 31.9888C62.2272 32.0142 62.242 32.0398 62.2565 32.0648L62.2606 32.0712C62.2605 32.072 62.2605 32.0728 62.2605 32.0737C62.2681 32.1141 62.2793 32.1538 62.294 32.1923C62.2947 32.1955 62.2953 32.1994 62.2957 32.2027C62.2971 32.2248 62.2988 32.2464 62.2989 32.2687L62.2987 32.2732C62.2313 32.2381 62.1566 32.2196 62.0806 32.2191C62.0046 32.2185 61.9296 32.236 61.8618 32.2701Z" fill="#E6E6E6"/>
<path d="M81.7639 53.8623C81.5617 53.5051 81.2391 53.2309 80.8534 53.0885C80.4678 52.9461 80.044 52.9447 79.6574 53.0845C79.4652 53.1545 79.2891 53.2622 79.1393 53.4013C78.9896 53.5404 78.8694 53.708 78.7857 53.8942C78.769 53.9338 78.7592 53.9754 78.7455 54.016C78.7265 54.0465 78.7038 54.0742 78.6868 54.1061C78.5055 54.4666 78.4558 54.8788 78.5464 55.2719C78.637 55.6649 78.8621 56.0141 79.183 56.2594C79.5039 56.5046 79.9005 56.6306 80.3045 56.6155C80.7085 56.6005 81.0946 56.4453 81.3962 56.1769C81.7133 55.891 81.9227 55.5054 81.9895 55.0843C82.0564 54.6632 81.9768 54.2319 81.7639 53.8623ZM80.6681 54.6034C80.6704 54.6457 80.6717 54.6255 80.6681 54.6034V54.6034ZM80.5568 54.3508C80.5525 54.3459 80.553 54.3464 80.5568 54.3508V54.3508ZM80.0659 54.5477C80.0587 54.5359 80.0593 54.5376 80.0659 54.5477V54.5477ZM80.1822 54.6461C80.199 54.6536 80.2099 54.6555 80.1822 54.6461V54.6461ZM80.2342 54.6708L80.2457 54.6656C80.2429 54.6658 80.24 54.6653 80.2375 54.6639L80.2469 54.665L80.2486 54.6642L80.2434 54.663C80.2479 54.6629 80.2483 54.6635 80.2486 54.6642C80.3006 54.6405 80.2655 54.6519 80.2353 54.6612L80.2333 54.6607C80.2145 54.6512 80.1942 54.6447 80.1733 54.6415C80.1714 54.6404 80.1691 54.6397 80.1675 54.6385C80.1508 54.6266 80.0661 54.5606 80.1446 54.6298C80.1275 54.6147 80.1107 54.5999 80.0946 54.5837C80.0851 54.574 80.0765 54.5635 80.0689 54.5522C80.0586 54.5346 80.0486 54.5168 80.0389 54.4989L80.0375 54.4892C80.0362 54.4812 80.0352 54.4778 80.0342 54.473C80.0347 54.468 80.0355 54.4626 80.0363 54.4574C80.0421 54.4417 80.0459 54.4253 80.0474 54.4087L80.0508 54.4044C80.0633 54.3869 80.0743 54.3665 80.0863 54.3483C80.0229 54.4444 80.1111 54.3377 80.1177 54.3242C80.1188 54.3219 80.1169 54.3232 80.1173 54.3216C80.1199 54.3201 80.1191 54.3211 80.1222 54.3193C80.1419 54.3078 80.1605 54.2949 80.1804 54.2839C80.2042 54.2707 80.2978 54.2442 80.2007 54.2719C80.2228 54.2656 80.2439 54.2577 80.2662 54.2519C80.2703 54.2508 80.3029 54.2463 80.3206 54.2431C80.336 54.2427 80.351 54.2422 80.3526 54.2423C80.3599 54.2424 80.3671 54.2432 80.3744 54.2436C80.3583 54.2457 80.4297 54.2611 80.4509 54.2644C80.4539 54.2668 80.4555 54.2683 80.4597 54.2713C80.4776 54.2844 80.4994 54.296 80.5183 54.3082C80.4337 54.2537 80.5194 54.3125 80.5356 54.3287C80.5452 54.3383 80.5541 54.3486 80.5632 54.3587C80.5716 54.3684 80.5791 54.3787 80.5858 54.3896C80.5996 54.4149 80.6144 54.4406 80.629 54.4655L80.633 54.4719C80.6329 54.4727 80.6329 54.4736 80.6329 54.4744C80.6405 54.5149 80.6517 54.5546 80.6664 54.593C80.6671 54.5963 80.6678 54.6001 80.6681 54.6034C80.6695 54.6256 80.6712 54.6471 80.6713 54.6694L80.6711 54.6739C80.6037 54.6389 80.529 54.6203 80.453 54.6198C80.377 54.6193 80.302 54.6367 80.2342 54.6708Z" fill="#E6E6E6"/>
<path d="M98.9698 40.48C98.7676 40.1228 98.445 39.8487 98.0593 39.7063C97.6737 39.5639 97.2499 39.5625 96.8633 39.7023C96.6711 39.7723 96.495 39.88 96.3453 40.019C96.1955 40.1581 96.0753 40.3257 95.9916 40.512C95.9749 40.5515 95.9651 40.5932 95.9514 40.6337C95.9325 40.6643 95.9097 40.6919 95.8927 40.7239C95.7114 41.0843 95.6617 41.4966 95.7523 41.8896C95.8429 42.2826 96.068 42.6318 96.3889 42.8771C96.7098 43.1224 97.1064 43.2483 97.5104 43.2333C97.9144 43.2182 98.3005 43.0631 98.6021 42.7946C98.9192 42.5087 99.1286 42.1231 99.1955 41.702C99.2623 41.2809 99.1827 40.8497 98.9698 40.48ZM97.8741 41.2212C97.8763 41.2634 97.8777 41.2432 97.8741 41.2212V41.2212ZM97.7627 40.9685C97.7584 40.9636 97.7589 40.9641 97.7627 40.9685V40.9685ZM97.2718 41.1654C97.2646 41.1537 97.2652 41.1554 97.2718 41.1654V41.1654ZM97.3881 41.2639C97.4049 41.2713 97.4158 41.2733 97.3881 41.2639V41.2639ZM97.4401 41.2886L97.4516 41.2833C97.4488 41.2836 97.4459 41.283 97.4434 41.2817L97.4528 41.2827L97.4545 41.282L97.4493 41.2808C97.4538 41.2806 97.4542 41.2813 97.4545 41.282C97.5065 41.2582 97.4714 41.2696 97.4412 41.2789L97.4392 41.2785C97.4204 41.2689 97.4001 41.2624 97.3793 41.2593C97.3773 41.2582 97.375 41.2574 97.3734 41.2562C97.3567 41.2443 97.272 41.1784 97.3506 41.2475C97.3335 41.2325 97.3166 41.2177 97.3005 41.2014C97.291 41.1917 97.2824 41.1812 97.2748 41.17C97.2645 41.1523 97.2545 41.1346 97.2449 41.1166L97.2434 41.1069C97.2421 41.0989 97.2412 41.0956 97.2401 41.0907C97.2406 41.0857 97.2414 41.0804 97.2422 41.0752C97.248 41.0595 97.2518 41.0431 97.2533 41.0264L97.2567 41.0221C97.2692 41.0046 97.2802 40.9842 97.2922 40.9661C97.2288 41.0621 97.317 40.9555 97.3236 40.942C97.3247 40.9396 97.3228 40.9409 97.3233 40.9393C97.3258 40.9379 97.325 40.9389 97.3281 40.937C97.3478 40.9255 97.3664 40.9126 97.3864 40.9016C97.4101 40.8885 97.5037 40.862 97.4066 40.8896C97.4287 40.8834 97.4499 40.8754 97.4722 40.8696C97.4762 40.8686 97.5089 40.864 97.5265 40.8608C97.5419 40.8605 97.5569 40.86 97.5585 40.86C97.5658 40.8601 97.573 40.861 97.5803 40.8613C97.5642 40.8635 97.6356 40.8788 97.6568 40.8821C97.6598 40.8845 97.6614 40.886 97.6656 40.8891C97.6835 40.9021 97.7053 40.9138 97.7242 40.926C97.6396 40.8714 97.7253 40.9303 97.7415 40.9464C97.7512 40.956 97.7601 40.9663 97.7691 40.9765C97.7775 40.9861 97.785 40.9964 97.7917 41.0073C97.8056 41.0327 97.8203 41.0583 97.8349 41.0833L97.8389 41.0897C97.8388 41.0905 97.8388 41.0913 97.8388 41.0921C97.8464 41.1326 97.8576 41.1723 97.8723 41.2108C97.873 41.214 97.8737 41.2178 97.8741 41.2212C97.8754 41.2433 97.8772 41.2649 97.8772 41.2872L97.877 41.2917C97.8096 41.2566 97.7349 41.2381 97.6589 41.2375C97.583 41.237 97.508 41.2545 97.4401 41.2886Z" fill="#E6E6E6"/>
<path d="M92.7379 54.6151L79.1783 55.3669C79.1018 55.3712 79.0267 55.346 78.9683 55.2966C78.9099 55.2472 78.8727 55.1774 78.8644 55.1014C78.8561 55.0255 78.8774 54.9493 78.9237 54.8885C78.9701 54.8278 79.0381 54.787 79.1136 54.7748L92.973 52.525L92.7379 54.6151Z" fill="#3F3D56"/>
<path d="M109.97 84.7299L115.08 76.1541L118.857 77.9335C118.857 77.9335 112.349 86.0419 112.142 86.2752C112.23 86.6693 112.197 87.081 112.046 87.4559C111.895 87.8307 111.634 88.151 111.297 88.3745C110.959 88.5979 110.562 88.7139 110.157 88.7071C109.752 88.7003 109.359 88.5711 109.029 88.3365C108.7 88.1019 108.449 87.773 108.311 87.3934C108.173 87.0137 108.153 86.6011 108.255 86.2101C108.357 85.8192 108.576 85.4684 108.882 85.2041C109.188 84.9398 109.568 84.7744 109.97 84.7299Z" fill="#FFB6B6"/>
<path d="M112.096 64.8091L120.374 69.1178C120.892 69.4896 121.326 69.965 121.648 70.5136C121.971 71.0622 122.175 71.6719 122.248 72.3038C122.321 72.9358 122.261 73.5759 122.072 74.1834C121.883 74.7908 121.569 75.3523 121.15 75.8317L115.443 82.3627L112.957 79.0017L114.873 75.0046L111.162 74.0285L112.096 64.8091Z" fill="white"/>
<path d="M88.5042 54.7552L87.5718 64.6881L83.395 64.695C83.395 64.695 85.7913 54.5868 85.8784 54.2874C85.6289 53.9693 85.4821 53.5831 85.4573 53.1799C85.4326 52.7767 85.5312 52.3755 85.74 52.0294C85.9488 51.6833 86.258 51.4086 86.6267 51.2416C86.9954 51.0747 87.4063 51.0233 87.8049 51.0943C88.2035 51.1653 88.5711 51.3554 88.8591 51.6394C89.1471 51.9234 89.3418 52.2879 89.4176 52.6847C89.4934 53.0815 89.4467 53.4919 89.2836 53.8616C89.1205 54.2313 88.8487 54.5429 88.5042 54.7552Z" fill="#FFB6B6"/>
<path d="M96.8182 75.0677L87.2049 73.309C83.1567 72.8233 81.4954 70.1662 82.2259 67.5745L84.5765 59.2338L88.2668 61.2074L88.2526 65.6382L93.4182 64.9337L96.8182 75.0677Z" fill="white"/>
<path d="M92.8831 143.711H90.2398L88.9823 133.54H92.8837L92.8831 143.711Z" fill="#FFB6B6"/>
<path d="M92.9763 146.462L84.8477 146.462V146.36C84.8477 145.523 85.1811 144.72 85.7744 144.128C86.3678 143.536 87.1725 143.203 88.0116 143.203L89.4965 142.08L92.2668 143.204L92.9764 143.204L92.9763 146.462Z" fill="#2F2E41"/>
<path d="M111.587 143.711H114.23L115.487 133.54H111.586L111.587 143.711Z" fill="#FFB6B6"/>
<path d="M111.493 146.462L119.622 146.462V146.36C119.622 145.523 119.289 144.72 118.695 144.128C118.102 143.536 117.297 143.203 116.458 143.203L114.973 142.08L112.203 143.204L111.493 143.204L111.493 146.462Z" fill="#2F2E41"/>
<path d="M88.866 126.066C88.9051 125.486 89.2155 122.276 89.2155 122.276L89.959 115.469L91.2693 97.4261L92.4374 92.6834L98.2191 94.9303L102.91 92.6867L108.487 94.4649L112.829 96.0892C112.829 96.0892 112.836 96.7845 112.869 97.6245C112.914 98.724 112.992 100.072 113.178 100.422C113.488 101.042 113.41 104.366 113.41 104.366C113.41 104.366 113.719 111.131 114.107 111.872C114.496 112.614 114.574 114.158 114.457 114.468C114.34 114.778 114.845 122.901 114.845 122.901C114.845 122.901 116.143 137.276 115.329 139.444C114.515 141.611 111.438 140.191 111.438 140.191C111.438 140.191 111.587 139.613 110.695 139.34C109.803 139.068 107.085 118.685 107.085 118.685C107.085 118.685 106.58 114.505 106.115 113.307C105.65 112.11 105.223 108.744 105.223 108.744C105.223 108.744 102.353 103.174 102.316 101.935C102.316 101.935 101.94 100.777 101.585 102.052C101.23 103.328 100.184 106.384 100.184 106.384L99.1633 110.137L97.9626 115.744L97.1856 120.465C97.1856 120.465 96.0221 126.73 95.8362 127.001C95.6503 127.271 95.8362 132.995 95.8362 132.995C95.8362 132.995 94.9366 137.87 93.6652 138.721C92.3939 139.572 89.0255 138.735 89.0255 138.735C89.0255 138.735 88.827 126.646 88.866 126.066Z" fill="#2F2E41"/>
<path d="M93.1882 77.4229L92.4494 86.9702L91.3394 88.1162C91.2393 88.2195 91.1612 88.3419 91.1097 88.4761C91.0581 88.6102 91.0343 88.7534 91.0395 88.897C91.0447 89.0405 91.079 89.1816 91.1401 89.3117C91.2013 89.4417 91.2882 89.5582 91.3955 89.654L90.784 90.7001L90.5675 93.9962C90.5057 94.2527 90.5015 94.5196 90.5551 94.7779C90.6087 95.0362 90.7188 95.2794 90.8776 95.4904C91.0363 95.7013 91.2398 95.8746 91.4735 95.9981C91.7072 96.1215 91.9653 96.1918 92.2294 96.2042L111.369 97.1013C111.632 97.1136 111.894 97.0682 112.137 96.9684C112.38 96.8685 112.599 96.7166 112.776 96.5235C112.954 96.3303 113.087 96.1005 113.167 95.8503C113.246 95.6002 113.269 95.3358 113.234 95.0758L111.606 82.8532V81.9393L110.878 80.1743L111.252 74.2616L112.123 64.8769L107.06 63.5722L104.315 61.688L99.5453 61.7637L96.6513 64.1348L92.7926 64.7376L89.8744 65.3163L89.5027 66.1222L90.2462 65.961L92.941 76.4461L93.1882 77.4229Z" fill="white"/>
<path d="M101.823 60.4086C104.926 60.4086 107.442 57.8993 107.442 54.8038C107.442 51.7084 104.926 49.199 101.823 49.199C98.7204 49.199 96.2049 51.7084 96.2049 54.8038C96.2049 57.8993 98.7204 60.4086 101.823 60.4086Z" fill="#FFB6B6"/>
<path d="M100.469 60.0471L104.528 59.8405C105.048 59.814 105.616 59.7682 105.994 59.4112C106.198 59.1906 106.354 58.9312 106.454 58.6486C106.83 57.779 107.205 56.9094 107.571 56.0357C108.077 54.8273 108.573 53.5513 108.444 52.2481C108.414 51.6529 108.164 51.09 107.742 50.6681C107.527 50.4648 107.25 50.3383 106.955 50.3085C106.66 50.2787 106.363 50.3472 106.112 50.5033C106.049 50.0911 105.893 49.6985 105.656 49.3551C105.419 49.0118 105.107 48.7267 104.743 48.5214C104.009 48.1166 103.17 47.9392 102.334 48.0118C101.121 48.0899 99.9624 48.5452 99.0221 49.3139C98.7576 49.5573 98.4752 49.7806 98.1772 49.9818C98.0273 50.0818 97.8586 50.1502 97.6813 50.183C97.504 50.2157 97.3219 50.212 97.1461 50.1721C96.9719 50.1257 96.8205 50.018 96.7198 49.8688C96.6191 49.7196 96.5759 49.5392 96.5983 49.3607C96.3124 49.574 96.1163 49.8858 96.0484 50.2354C95.9805 50.585 96.0456 50.9473 96.231 51.2516C96.0203 51.3397 95.7903 51.3719 95.5634 51.3451C95.3365 51.3184 95.1204 51.2335 94.9361 51.0988C94.7387 51.1966 94.5638 51.3344 94.4229 51.5034C94.2819 51.6724 94.1778 51.869 94.1174 52.0805C94.057 52.2919 94.0415 52.5136 94.0719 52.7314C94.1023 52.9492 94.178 53.1583 94.2941 53.3452C94.4102 53.5321 94.5641 53.6928 94.7461 53.8169C94.928 53.9411 95.1339 54.026 95.3507 54.0661C95.5674 54.1063 95.7901 54.1008 96.0046 54.0502C96.2191 53.9995 96.4206 53.9047 96.5963 53.7719C96.8426 54.1161 96.7509 54.5839 96.7188 55.0057C96.6867 55.4274 96.8001 55.9516 97.2077 56.0682C97.7587 56.2257 98.205 55.4856 98.7781 55.4935C98.9195 55.505 99.0559 55.5511 99.1751 55.6277C99.2943 55.7044 99.3928 55.8092 99.4617 55.9329C99.5967 56.1815 99.6892 56.4508 99.7353 56.7298L100.469 60.0241" fill="#2F2E41"/>
<path d="M258.747 110.443C258.747 109.576 258.455 108.871 258.096 108.87H160.301C159.941 108.871 159.65 109.576 159.648 110.443V146.171C159.648 146.252 159.618 146.329 159.564 146.389C159.51 146.449 159.435 146.486 159.355 146.494C159.092 146.519 158.83 146.542 158.567 146.564C158.561 146.564 158.554 146.566 158.548 146.566C158.405 146.579 158.262 146.588 158.119 146.6H158.118C158.044 146.464 157.972 146.327 157.9 146.19C157.876 146.143 157.863 146.091 157.863 146.039V108.402C157.863 108.162 157.873 107.921 157.889 107.683C157.912 107.356 157.953 107.03 158.011 106.708C158.285 105.204 158.905 104.185 159.609 104.182H258.786C258.889 104.183 258.99 104.204 259.085 104.245C259.223 104.306 259.348 104.394 259.453 104.502C259.595 104.65 259.717 104.816 259.815 104.996C260.219 105.8 260.452 106.678 260.498 107.576C260.498 107.585 260.5 107.595 260.5 107.605C260.523 107.867 260.534 108.134 260.533 108.402L260.63 122.74L260.701 146.413C260.701 146.499 260.667 146.582 260.606 146.642C260.545 146.703 260.463 146.737 260.377 146.737H259.072C258.986 146.737 258.903 146.703 258.842 146.642C258.781 146.582 258.747 146.499 258.747 146.413V110.443Z" fill="#E6E6E6"/>
<path d="M232.173 87.9447H221.635C221.486 87.9449 221.343 88.0042 221.238 88.1095C221.133 88.2148 221.074 88.3575 221.074 88.5062V105.112H232.736V88.5062C232.736 88.4324 232.721 88.3594 232.693 88.2913C232.665 88.2231 232.623 88.1612 232.571 88.1091C232.519 88.0569 232.457 88.0156 232.388 87.9874C232.32 87.9592 232.247 87.9447 232.173 87.9447ZM226.94 97.38C226.61 97.3785 226.294 97.2472 226.061 97.0147C225.828 96.7823 225.697 96.4674 225.695 96.1387V94.2233C225.695 93.8941 225.826 93.5784 226.06 93.3456C226.293 93.1128 226.61 92.9821 226.94 92.9821C227.27 92.9821 227.586 93.1128 227.819 93.3456C228.053 93.5784 228.184 93.8941 228.184 94.2233V96.1387C228.182 96.4674 228.051 96.7823 227.818 97.0147C227.585 97.2472 227.269 97.3785 226.94 97.38Z" fill="#CCCCCC"/>
<path d="M221.038 104.581V106.183C221.038 106.266 221.071 106.346 221.13 106.404C221.189 106.463 221.269 106.496 221.352 106.496H232.458C232.541 106.496 232.621 106.463 232.68 106.404C232.738 106.345 232.772 106.266 232.772 106.183V104.581H221.038Z" fill="#3F3D56"/>
<path d="M249.622 62.0292H204.578C204.191 62.0299 203.82 62.1835 203.547 62.4565C203.273 62.7295 203.119 63.0995 203.118 63.4856V93.8079C203.119 94.194 203.273 94.5642 203.546 94.8372C203.82 95.1103 204.191 95.2638 204.578 95.2642H249.622C250.009 95.2638 250.38 95.1103 250.654 94.8372C250.928 94.5642 251.082 94.194 251.082 93.8079V63.4856C251.082 63.0995 250.928 62.7295 250.654 62.4565C250.38 62.1835 250.009 62.0299 249.622 62.0292Z" fill="#E6E6E6"/>
<path d="M249.246 63.0812H204.954C204.747 63.0816 204.549 63.164 204.402 63.3103C204.256 63.4567 204.174 63.6549 204.174 63.8616V93.4323C204.174 93.6388 204.256 93.8367 204.403 93.9827C204.549 94.1287 204.748 94.2108 204.954 94.2112H249.246C249.453 94.2108 249.652 94.1287 249.798 93.9827C249.944 93.8367 250.027 93.6388 250.027 93.4323V63.8616C250.027 63.6549 249.945 63.4567 249.798 63.3103C249.652 63.164 249.453 63.0816 249.246 63.0812Z" fill="white"/>
<path d="M240.619 107.054H214.268C214.196 107.054 214.124 107.038 214.059 107.007C213.994 106.976 213.937 106.931 213.891 106.875C213.846 106.819 213.814 106.754 213.797 106.684C213.78 106.614 213.779 106.541 213.793 106.471L214.202 104.533C214.226 104.425 214.285 104.328 214.372 104.258C214.458 104.188 214.566 104.15 214.677 104.149H240.21C240.321 104.15 240.429 104.188 240.515 104.258C240.601 104.328 240.661 104.425 240.684 104.533L241.093 106.471C241.108 106.541 241.107 106.614 241.09 106.684C241.073 106.754 241.041 106.819 240.995 106.875C240.95 106.931 240.893 106.976 240.827 107.007C240.762 107.038 240.691 107.054 240.619 107.054Z" fill="#CCCCCC"/>
<path d="M215.533 104.498H215.006C214.927 104.498 214.864 104.562 214.864 104.64V104.842C214.864 104.92 214.927 104.984 215.006 104.984H215.533C215.612 104.984 215.675 104.92 215.675 104.842V104.64C215.675 104.562 215.612 104.498 215.533 104.498Z" fill="#E6E6E6"/>
<path d="M217.156 104.498H216.629C216.551 104.498 216.487 104.562 216.487 104.64V104.842C216.487 104.92 216.551 104.984 216.629 104.984H217.156C217.235 104.984 217.298 104.92 217.298 104.842V104.64C217.298 104.562 217.235 104.498 217.156 104.498Z" fill="#E6E6E6"/>
<path d="M218.779 104.498H218.252C218.174 104.498 218.11 104.562 218.11 104.64V104.842C218.11 104.92 218.174 104.984 218.252 104.984H218.779C218.858 104.984 218.922 104.92 218.922 104.842V104.64C218.922 104.562 218.858 104.498 218.779 104.498Z" fill="#E6E6E6"/>
<path d="M220.402 104.498H219.876C219.797 104.498 219.733 104.562 219.733 104.64V104.842C219.733 104.92 219.797 104.984 219.876 104.984H220.402C220.481 104.984 220.545 104.92 220.545 104.842V104.64C220.545 104.562 220.481 104.498 220.402 104.498Z" fill="#E6E6E6"/>
<path d="M222.026 104.498H221.499C221.42 104.498 221.356 104.562 221.356 104.64V104.842C221.356 104.92 221.42 104.984 221.499 104.984H222.026C222.104 104.984 222.168 104.92 222.168 104.842V104.64C222.168 104.562 222.104 104.498 222.026 104.498Z" fill="#E6E6E6"/>
<path d="M223.649 104.498H223.122C223.043 104.498 222.98 104.562 222.98 104.64V104.842C222.98 104.92 223.043 104.984 223.122 104.984H223.649C223.727 104.984 223.791 104.92 223.791 104.842V104.64C223.791 104.562 223.727 104.498 223.649 104.498Z" fill="#E6E6E6"/>
<path d="M225.272 104.498H224.745C224.667 104.498 224.603 104.562 224.603 104.64V104.842C224.603 104.92 224.667 104.984 224.745 104.984H225.272C225.351 104.984 225.414 104.92 225.414 104.842V104.64C225.414 104.562 225.351 104.498 225.272 104.498Z" fill="#E6E6E6"/>
<path d="M226.895 104.498H226.368C226.29 104.498 226.226 104.562 226.226 104.64V104.842C226.226 104.92 226.29 104.984 226.368 104.984H226.895C226.974 104.984 227.038 104.92 227.038 104.842V104.64C227.038 104.562 226.974 104.498 226.895 104.498Z" fill="#E6E6E6"/>
<path d="M228.518 104.498H227.992C227.913 104.498 227.849 104.562 227.849 104.64V104.842C227.849 104.92 227.913 104.984 227.992 104.984H228.518C228.597 104.984 228.661 104.92 228.661 104.842V104.64C228.661 104.562 228.597 104.498 228.518 104.498Z" fill="#E6E6E6"/>
<path d="M230.142 104.498H229.615C229.536 104.498 229.472 104.562 229.472 104.64V104.842C229.472 104.92 229.536 104.984 229.615 104.984H230.142C230.22 104.984 230.284 104.92 230.284 104.842V104.64C230.284 104.562 230.22 104.498 230.142 104.498Z" fill="#E6E6E6"/>
<path d="M231.765 104.498H231.238C231.159 104.498 231.096 104.562 231.096 104.64V104.842C231.096 104.92 231.159 104.984 231.238 104.984H231.765C231.843 104.984 231.907 104.92 231.907 104.842V104.64C231.907 104.562 231.843 104.498 231.765 104.498Z" fill="#E6E6E6"/>
<path d="M233.388 104.498H232.861C232.782 104.498 232.719 104.562 232.719 104.64V104.842C232.719 104.92 232.782 104.984 232.861 104.984H233.388C233.467 104.984 233.53 104.92 233.53 104.842V104.64C233.53 104.562 233.467 104.498 233.388 104.498Z" fill="#E6E6E6"/>
<path d="M235.011 104.498H234.484C234.406 104.498 234.342 104.562 234.342 104.64V104.842C234.342 104.92 234.406 104.984 234.484 104.984H235.011C235.09 104.984 235.153 104.92 235.153 104.842V104.64C235.153 104.562 235.09 104.498 235.011 104.498Z" fill="#E6E6E6"/>
<path d="M236.634 104.498H236.107C236.029 104.498 235.965 104.562 235.965 104.64V104.842C235.965 104.92 236.029 104.984 236.107 104.984H236.634C236.713 104.984 236.777 104.92 236.777 104.842V104.64C236.777 104.562 236.713 104.498 236.634 104.498Z" fill="#E6E6E6"/>
<path d="M238.257 104.498H237.731C237.652 104.498 237.588 104.562 237.588 104.64V104.842C237.588 104.92 237.652 104.984 237.731 104.984H238.257C238.336 104.984 238.4 104.92 238.4 104.842V104.64C238.4 104.562 238.336 104.498 238.257 104.498Z" fill="#E6E6E6"/>
<path d="M239.881 104.498H239.354C239.275 104.498 239.211 104.562 239.211 104.64V104.842C239.211 104.92 239.275 104.984 239.354 104.984H239.881C239.959 104.984 240.023 104.92 240.023 104.842V104.64C240.023 104.562 239.959 104.498 239.881 104.498Z" fill="#E6E6E6"/>
<path d="M215.514 105.308H214.987C214.908 105.308 214.845 105.371 214.845 105.45V105.652C214.845 105.73 214.908 105.794 214.987 105.794H215.514C215.592 105.794 215.656 105.73 215.656 105.652V105.45C215.656 105.371 215.592 105.308 215.514 105.308Z" fill="#E6E6E6"/>
<path d="M217.137 105.308H216.61C216.531 105.308 216.468 105.371 216.468 105.45V105.652C216.468 105.73 216.531 105.794 216.61 105.794H217.137C217.216 105.794 217.279 105.73 217.279 105.652V105.45C217.279 105.371 217.216 105.308 217.137 105.308Z" fill="#E6E6E6"/>
<path d="M218.76 105.308H218.233C218.155 105.308 218.091 105.371 218.091 105.45V105.652C218.091 105.73 218.155 105.794 218.233 105.794H218.76C218.839 105.794 218.902 105.73 218.902 105.652V105.45C218.902 105.371 218.839 105.308 218.76 105.308Z" fill="#E6E6E6"/>
<path d="M220.383 105.308H219.856C219.778 105.308 219.714 105.371 219.714 105.45V105.652C219.714 105.73 219.778 105.794 219.856 105.794H220.383C220.462 105.794 220.526 105.73 220.526 105.652V105.45C220.526 105.371 220.462 105.308 220.383 105.308Z" fill="#E6E6E6"/>
<path d="M222.006 105.308H221.48C221.401 105.308 221.337 105.371 221.337 105.45V105.652C221.337 105.73 221.401 105.794 221.48 105.794H222.006C222.085 105.794 222.149 105.73 222.149 105.652V105.45C222.149 105.371 222.085 105.308 222.006 105.308Z" fill="#E6E6E6"/>
<path d="M223.63 105.308H223.103C223.024 105.308 222.96 105.371 222.96 105.45V105.652C222.96 105.73 223.024 105.794 223.103 105.794H223.63C223.708 105.794 223.772 105.73 223.772 105.652V105.45C223.772 105.371 223.708 105.308 223.63 105.308Z" fill="#E6E6E6"/>
<path d="M225.253 105.308H224.726C224.647 105.308 224.584 105.371 224.584 105.45V105.652C224.584 105.73 224.647 105.794 224.726 105.794H225.253C225.331 105.794 225.395 105.73 225.395 105.652V105.45C225.395 105.371 225.331 105.308 225.253 105.308Z" fill="#E6E6E6"/>
<path d="M226.876 105.308H226.349C226.271 105.308 226.207 105.371 226.207 105.45V105.652C226.207 105.73 226.271 105.794 226.349 105.794H226.876C226.955 105.794 227.018 105.73 227.018 105.652V105.45C227.018 105.371 226.955 105.308 226.876 105.308Z" fill="#E6E6E6"/>
<path d="M228.499 105.308H227.972C227.894 105.308 227.83 105.371 227.83 105.45V105.652C227.83 105.73 227.894 105.794 227.972 105.794H228.499C228.578 105.794 228.642 105.73 228.642 105.652V105.45C228.642 105.371 228.578 105.308 228.499 105.308Z" fill="#E6E6E6"/>
<path d="M230.122 105.308H229.596C229.517 105.308 229.453 105.371 229.453 105.45V105.652C229.453 105.73 229.517 105.794 229.596 105.794H230.122C230.201 105.794 230.265 105.73 230.265 105.652V105.45C230.265 105.371 230.201 105.308 230.122 105.308Z" fill="#E6E6E6"/>
<path d="M231.746 105.308H231.219C231.14 105.308 231.076 105.371 231.076 105.45V105.652C231.076 105.73 231.14 105.794 231.219 105.794H231.746C231.824 105.794 231.888 105.73 231.888 105.652V105.45C231.888 105.371 231.824 105.308 231.746 105.308Z" fill="#E6E6E6"/>
<path d="M233.369 105.308H232.842C232.763 105.308 232.7 105.371 232.7 105.45V105.652C232.7 105.73 232.763 105.794 232.842 105.794H233.369C233.447 105.794 233.511 105.73 233.511 105.652V105.45C233.511 105.371 233.447 105.308 233.369 105.308Z" fill="#E6E6E6"/>
<path d="M234.992 105.308H234.465C234.386 105.308 234.323 105.371 234.323 105.45V105.652C234.323 105.73 234.386 105.794 234.465 105.794H234.992C235.071 105.794 235.134 105.73 235.134 105.652V105.45C235.134 105.371 235.071 105.308 234.992 105.308Z" fill="#E6E6E6"/>
<path d="M236.615 105.308H236.088C236.01 105.308 235.946 105.371 235.946 105.45V105.652C235.946 105.73 236.01 105.794 236.088 105.794H236.615C236.694 105.794 236.757 105.73 236.757 105.652V105.45C236.757 105.371 236.694 105.308 236.615 105.308Z" fill="#E6E6E6"/>
<path d="M238.238 105.308H237.711C237.633 105.308 237.569 105.371 237.569 105.45V105.652C237.569 105.73 237.633 105.794 237.711 105.794H238.238C238.317 105.794 238.381 105.73 238.381 105.652V105.45C238.381 105.371 238.317 105.308 238.238 105.308Z" fill="#E6E6E6"/>
<path d="M239.861 105.308H239.335C239.256 105.308 239.192 105.371 239.192 105.45V105.652C239.192 105.73 239.256 105.794 239.335 105.794H239.861C239.94 105.794 240.004 105.73 240.004 105.652V105.45C240.004 105.371 239.94 105.308 239.861 105.308Z" fill="#E6E6E6"/>
<path d="M228.986 106.279H222.778C222.7 106.279 222.636 106.343 222.636 106.421V106.623C222.636 106.702 222.7 106.765 222.778 106.765H228.986C229.065 106.765 229.129 106.702 229.129 106.623V106.421C229.129 106.343 229.065 106.279 228.986 106.279Z" fill="#E6E6E6"/>
<path d="M247.02 67.1553H205.576C205.533 67.1544 205.492 67.1366 205.462 67.1059C205.432 67.0752 205.415 67.0339 205.415 66.9909C205.415 66.9479 205.432 66.9067 205.462 66.8759C205.492 66.8452 205.533 66.8275 205.576 66.8265H247.02C247.063 66.8275 247.104 66.8452 247.134 66.8759C247.164 66.9067 247.181 66.9479 247.181 66.9909C247.181 67.0339 247.164 67.0752 247.134 67.1059C247.104 67.1366 247.063 67.1544 247.02 67.1553Z" fill="#CACACA"/>
<path d="M208.397 65.9871C208.931 65.9871 209.363 65.5461 209.363 65.0021C209.363 64.4581 208.931 64.0171 208.397 64.0171C207.864 64.0171 207.431 64.4581 207.431 65.0021C207.431 65.5461 207.864 65.9871 208.397 65.9871Z" fill="#CCCCCC"/>
<path d="M211.734 65.9871C212.267 65.9871 212.7 65.5461 212.7 65.0021C212.7 64.4581 212.267 64.0171 211.734 64.0171C211.2 64.0171 210.768 64.4581 210.768 65.0021C210.768 65.5461 211.2 65.9871 211.734 65.9871Z" fill="#CCCCCC"/>
<path d="M215.07 65.9871C215.604 65.9871 216.036 65.5461 216.036 65.0021C216.036 64.4581 215.604 64.0171 215.07 64.0171C214.537 64.0171 214.105 64.4581 214.105 65.0021C214.105 65.5461 214.537 65.9871 215.07 65.9871Z" fill="#CCCCCC"/>
<path d="M245.011 64.2612H242.641C242.594 64.2621 242.549 64.2814 242.516 64.3149C242.483 64.3484 242.465 64.3934 242.465 64.4402C242.465 64.4871 242.483 64.5321 242.516 64.5656C242.549 64.5991 242.594 64.6184 242.641 64.6193H245.011C245.058 64.6184 245.103 64.5991 245.135 64.5656C245.168 64.5321 245.187 64.4871 245.187 64.4402C245.187 64.3934 245.168 64.3484 245.135 64.3149C245.103 64.2814 245.058 64.2621 245.011 64.2612Z" fill="#CCCCCC"/>
<path d="M245.011 64.9332H242.641C242.594 64.9342 242.549 64.9535 242.516 64.9869C242.483 65.0204 242.465 65.0654 242.465 65.1123C242.465 65.1591 242.483 65.2041 242.516 65.2376C242.549 65.2711 242.594 65.2903 242.641 65.2913H245.011C245.058 65.2903 245.103 65.2711 245.135 65.2376C245.168 65.2041 245.187 65.1591 245.187 65.1123C245.187 65.0654 245.168 65.0204 245.135 64.9869C245.103 64.9535 245.058 64.9342 245.011 64.9332Z" fill="#CCCCCC"/>
<path d="M245.011 65.6044H242.641C242.594 65.6053 242.549 65.6246 242.516 65.658C242.483 65.6915 242.465 65.7365 242.465 65.7834C242.465 65.8303 242.483 65.8753 242.516 65.9088C242.549 65.9422 242.594 65.9615 242.641 65.9624H245.011C245.058 65.9615 245.103 65.9422 245.135 65.9088C245.168 65.8753 245.187 65.8303 245.187 65.7834C245.187 65.7365 245.168 65.6915 245.135 65.658C245.103 65.6246 245.058 65.6053 245.011 65.6044Z" fill="#CCCCCC"/>
<path d="M229.644 76.1127H224.465C224.077 76.1127 223.761 76.4272 223.761 76.8152C223.761 77.2033 224.077 77.5178 224.465 77.5178H229.644C230.033 77.5178 230.348 77.2033 230.348 76.8152C230.348 76.4272 230.033 76.1127 229.644 76.1127Z" fill="white"/>
<path d="M232.99 78.923H221.12C220.731 78.923 220.416 79.2376 220.416 79.6256C220.416 80.0136 220.731 80.3282 221.12 80.3282H232.99C233.379 80.3282 233.694 80.0136 233.694 79.6256C233.694 79.2376 233.379 78.923 232.99 78.923Z" fill="#E6E6E6"/>
<path d="M232.99 81.7334H221.12C220.731 81.7334 220.416 82.0479 220.416 82.436C220.416 82.824 220.731 83.1385 221.12 83.1385H232.99C233.379 83.1385 233.694 82.824 233.694 82.436C233.694 82.0479 233.379 81.7334 232.99 81.7334Z" fill="#E6E6E6"/>
<path d="M153.024 125.516L150.636 124.377L153.916 114.422L157.439 116.103L153.024 125.516Z" fill="#FFB6B6"/>
<path d="M169.029 123.911C168.855 124.02 168.682 124.126 168.506 124.233C168.157 124.446 167.805 124.656 167.452 124.863C167.275 124.966 167.096 125.069 166.919 125.171V125.176L166.909 125.178L166.905 125.179L166.635 125.246L166.069 123.754L162.916 115.448L166.705 114.515L166.847 115.094H166.849L166.919 115.381L168.513 121.833L168.522 121.866L168.685 122.52L168.825 123.087L168.981 123.72L169.029 123.911Z" fill="#FFB6B6"/>
<path d="M191.634 101.365C191.394 101.75 191.149 102.133 190.901 102.513C190.442 103.22 189.97 103.916 189.486 104.602C189.486 104.603 189.484 104.603 189.483 104.605C189.2 104.866 188.888 105.093 188.553 105.282C188.539 105.293 188.524 105.3 188.51 105.308C188.263 105.445 188 105.55 187.727 105.622C187.629 105.646 187.529 105.671 187.431 105.695C187.077 105.779 186.726 105.851 186.377 105.914C185.756 106.024 185.143 106.103 184.532 106.152C184.483 106.157 184.434 106.16 184.385 106.164C181.876 106.348 179.433 106.052 176.883 105.567C175.624 105.329 174.339 105.044 173.008 104.749C172.573 104.651 172.136 104.554 171.695 104.458C171.661 104.451 171.626 104.443 171.591 104.436C170.96 104.297 170.318 104.161 169.66 104.026C168.833 103.857 167.979 103.692 167.091 103.536L167.155 104.784C167.207 105.743 167.407 106.689 167.747 107.588C168.126 108.693 168.426 109.568 167.793 111.389L167.488 112.271C167.646 112.709 167.7 113.177 167.646 113.639C167.592 114.101 167.432 114.545 167.177 114.935L167.116 115.028L169.66 121.449L169.825 121.866L168.522 121.866L164.203 121.867L160.284 114.024L160.096 113.649V113.63L160.501 98.5561C160.507 98.4231 160.517 98.2884 160.535 98.1555C160.606 97.5511 160.798 96.9669 161.098 96.4371C161.398 95.9073 161.801 95.4425 162.283 95.0697C162.745 94.7094 163.274 94.4444 163.84 94.2901C164.406 94.1357 164.996 94.0951 165.578 94.1705L171.591 94.9472L171.63 94.9525L177.323 95.6872L177.732 94.0253L177.807 93.9973L188.495 90.0894L188.516 90.0824L189.062 89.8829L189.127 89.9879C189.146 90.0194 189.165 90.0509 189.183 90.0824C189.722 91.0463 190.161 92.0627 190.493 93.1157C191.051 94.8358 191.511 96.5862 191.869 98.3584C191.885 98.4354 191.899 98.5053 191.911 98.5683L191.917 98.5876C191.922 98.6173 191.925 98.6365 191.927 98.6418C192.092 99.559 191.99 100.504 191.634 101.365Z" fill="#2F2E41"/>
<path d="M191.984 95.8103C191.958 95.6983 191.925 95.5846 191.89 95.4744C191.611 94.6397 191.287 93.821 190.918 93.0219C190.504 92.1123 190.008 91.1379 189.417 90.083C189.131 89.5722 188.824 89.041 188.495 88.4894C188.33 88.213 188.159 87.9314 187.981 87.6445C187.974 87.6313 187.966 87.6184 187.958 87.606L187.907 87.522L176.649 89.0247L176.467 90.5431L176.423 90.9192C176.421 90.9192 176.421 90.9192 176.423 90.921L176.3 91.9461V91.9478L176.137 93.3018L176.123 93.3L164.409 91.7869C163.828 91.7113 163.237 91.7518 162.671 91.9062C162.106 92.0606 161.576 92.3257 161.114 92.686C160.632 93.0589 160.229 93.5238 159.929 94.0536C159.629 94.5834 159.438 95.1675 159.366 95.7718C159.35 95.8943 159.34 96.0202 159.335 96.1444L156.967 101.741C155.551 105.087 154.649 108.628 154.291 112.243L152.555 117.78L157.453 118.235L159.592 115.119C159.836 114.764 160.068 114.399 160.283 114.024C160.638 113.413 160.954 112.779 161.228 112.128L165.856 101.142C166.214 101.203 166.568 101.262 166.919 101.317C168.541 101.58 170.098 101.794 171.59 101.959C176.442 102.5 180.644 102.542 184.384 102.083C185.435 101.956 186.45 101.788 187.43 101.58C187.79 101.504 188.145 101.423 188.495 101.336C188.577 101.317 188.658 101.298 188.738 101.277C189.463 101.091 190.129 100.726 190.676 100.216C191.223 99.7062 191.633 99.0678 191.869 98.3591C192.15 97.5378 192.19 96.6535 191.984 95.8103Z" fill="#2F2E41"/>
<path d="M151.203 122.655L150.798 122.461L150.151 124.046L145.634 125.038C145.411 125.087 145.209 125.206 145.058 125.377C144.907 125.548 144.815 125.764 144.796 125.991C144.776 126.218 144.83 126.446 144.949 126.64C145.068 126.835 145.247 126.986 145.459 127.072L149.872 128.869L151.273 127.611L150.93 129.299L152.592 129.976L154.414 124.191L151.203 122.655Z" fill="#2F2E41"/>
<path d="M169.66 121.449L169.825 121.866L169.66 121.866L169.66 121.449Z" fill="#2F2E41"/>
<path d="M166.054 122.89L165.629 123.037L166.288 124.617L163.777 128.492C163.653 128.684 163.593 128.91 163.607 129.138C163.621 129.365 163.707 129.583 163.854 129.758C164 129.933 164.199 130.057 164.421 130.112C164.643 130.166 164.876 130.148 165.088 130.061L169.491 128.24L169.6 126.362L170.546 127.803L172.205 127.117L169.419 121.728L166.054 122.89Z" fill="#2F2E41"/>
<path d="M152.334 64.0746C152.462 64.324 152.644 64.5423 152.866 64.7141C153.088 64.8859 153.345 65.0071 153.619 65.0691C153.893 65.1311 154.177 65.1323 154.452 65.0728C154.726 65.0133 154.985 64.8944 155.208 64.7246L160.9 68.4936L160.91 64.9524L155.504 61.9162C155.193 61.5604 154.762 61.3307 154.293 61.2707C153.824 61.2107 153.349 61.3245 152.958 61.5905C152.567 61.8566 152.288 62.2564 152.173 62.7142C152.058 63.172 152.115 63.6561 152.334 64.0746Z" fill="#FFB6B6"/>
<path d="M156.585 65.7113L159.241 62.6978L170.053 69.1008L184.385 67.7914C185.093 67.7267 185.807 67.8184 186.476 68.0599C187.145 68.3015 187.752 68.687 188.255 69.189C188.758 69.6911 189.144 70.2974 189.385 70.9649C189.627 71.6325 189.718 72.3449 189.652 73.0515C189.533 74.3278 188.91 75.5044 187.922 76.3234C186.933 77.1424 185.66 77.5368 184.38 77.42L168.238 75.9296L156.585 65.7113Z" fill="#CCCCCC"/>
<path d="M189.85 65.7578L189.825 65.7266C187.809 65.5282 185.778 65.9174 183.98 66.8472C182.181 67.7771 180.691 69.2075 179.691 70.9651L178.474 73.1025C174.54 77.9006 177.399 81.2096 177.57 81.7016L176.204 87.983L176.51 90.0852L176.663 90.7096L192.252 98.8352C193.139 94.5813 192.281 90.9564 189.048 88.1873L192.176 78.477C192.87 76.3299 193.021 74.0451 192.615 71.8259C192.209 69.6068 191.259 67.5222 189.85 65.7578Z" fill="#CCCCCC"/>
<path d="M177.455 112.932H172.455C172.18 112.932 171.914 112.833 171.707 112.653C171.499 112.473 171.363 112.224 171.325 111.953C171.016 109.686 171.016 107.389 171.325 105.122C171.363 104.854 171.496 104.608 171.699 104.428C171.903 104.249 172.164 104.147 172.436 104.143C174.009 103.439 175.703 103.439 177.472 104.143C177.637 104.145 177.8 104.183 177.948 104.254C178.096 104.326 178.227 104.429 178.332 104.556C178.44 104.688 178.518 104.843 178.559 105.009C178.601 105.176 178.604 105.349 178.57 105.516C178.168 107.51 178.168 109.564 178.57 111.558C178.604 111.726 178.601 111.899 178.559 112.065C178.518 112.232 178.44 112.386 178.332 112.519C178.226 112.648 178.092 112.753 177.94 112.824C177.789 112.896 177.623 112.933 177.455 112.932Z" fill="white"/>
<path d="M176.932 106.747H172.723C172.688 106.747 172.654 106.741 172.622 106.728C172.589 106.714 172.56 106.695 172.536 106.671C172.511 106.646 172.491 106.617 172.478 106.585C172.465 106.553 172.458 106.519 172.458 106.484C172.458 106.45 172.465 106.415 172.478 106.383C172.491 106.352 172.511 106.322 172.536 106.298C172.56 106.274 172.589 106.254 172.622 106.241C172.654 106.228 172.688 106.222 172.723 106.222H176.932C176.966 106.222 177.001 106.228 177.033 106.241C177.065 106.254 177.094 106.274 177.119 106.298C177.144 106.322 177.163 106.352 177.177 106.383C177.19 106.415 177.197 106.45 177.197 106.484C177.197 106.519 177.19 106.553 177.177 106.585C177.163 106.617 177.144 106.646 177.119 106.671C177.094 106.695 177.065 106.714 177.033 106.728C177.001 106.741 176.966 106.747 176.932 106.747Z" fill="white"/>
<path d="M176.932 108.846H172.723C172.688 108.846 172.654 108.84 172.622 108.827C172.589 108.814 172.56 108.794 172.536 108.77C172.511 108.746 172.491 108.717 172.478 108.685C172.465 108.653 172.458 108.618 172.458 108.584C172.458 108.549 172.465 108.515 172.478 108.483C172.491 108.451 172.511 108.422 172.536 108.397C172.56 108.373 172.589 108.354 172.622 108.341C172.654 108.327 172.688 108.321 172.723 108.321H176.932C176.966 108.321 177.001 108.327 177.033 108.341C177.065 108.354 177.094 108.373 177.119 108.397C177.144 108.422 177.163 108.451 177.177 108.483C177.19 108.515 177.197 108.549 177.197 108.584C177.197 108.618 177.19 108.653 177.177 108.685C177.163 108.717 177.144 108.746 177.119 108.77C177.094 108.794 177.065 108.814 177.033 108.827C177.001 108.84 176.966 108.846 176.932 108.846Z" fill="white"/>
<path d="M176.932 110.945H172.723C172.688 110.946 172.654 110.939 172.622 110.926C172.589 110.913 172.56 110.894 172.535 110.869C172.511 110.845 172.491 110.816 172.478 110.784C172.464 110.752 172.458 110.718 172.458 110.683C172.458 110.648 172.464 110.614 172.478 110.582C172.491 110.55 172.511 110.521 172.535 110.496C172.56 110.472 172.589 110.453 172.622 110.44C172.654 110.427 172.688 110.42 172.723 110.42H176.932C176.966 110.42 177.001 110.427 177.033 110.44C177.065 110.453 177.095 110.472 177.119 110.496C177.144 110.521 177.164 110.55 177.177 110.582C177.19 110.614 177.197 110.648 177.197 110.683C177.197 110.718 177.19 110.752 177.177 110.784C177.164 110.816 177.144 110.845 177.119 110.869C177.095 110.894 177.065 110.913 177.033 110.926C177.001 110.939 176.966 110.946 176.932 110.945Z" fill="white"/>
<path d="M153.25 65.8034H148.25C147.975 65.8032 147.709 65.704 147.502 65.5241C147.294 65.3442 147.159 65.0955 147.12 64.8239C146.811 62.5574 146.811 60.2597 147.12 57.9932C147.158 57.7249 147.291 57.4788 147.495 57.2994C147.698 57.1199 147.959 57.0186 148.231 57.0139C149.804 56.3104 151.498 56.3105 153.268 57.0138C153.432 57.016 153.595 57.0541 153.743 57.1255C153.891 57.1969 154.022 57.2999 154.127 57.4271C154.235 57.5595 154.313 57.7144 154.355 57.8805C154.396 58.0467 154.399 58.2199 154.365 58.3876C153.963 60.3817 153.963 62.4355 154.365 64.4295C154.399 64.5972 154.396 64.7705 154.355 64.9366C154.313 65.1027 154.235 65.2576 154.127 65.39C154.021 65.5195 153.887 65.6238 153.735 65.6953C153.584 65.7669 153.418 65.8038 153.25 65.8034Z" fill="white"/>
<path d="M152.727 59.618H148.518C148.483 59.6183 148.449 59.6118 148.417 59.5987C148.385 59.5857 148.355 59.5664 148.331 59.542C148.306 59.5176 148.286 59.4886 148.273 59.4566C148.26 59.4246 148.253 59.3903 148.253 59.3556C148.253 59.321 148.26 59.2867 148.273 59.2547C148.286 59.2227 148.306 59.1937 148.331 59.1693C148.355 59.1449 148.385 59.1256 148.417 59.1125C148.449 59.0995 148.483 59.0929 148.518 59.0932H152.727C152.761 59.0929 152.796 59.0995 152.828 59.1125C152.86 59.1256 152.889 59.1449 152.914 59.1693C152.939 59.1937 152.958 59.2227 152.972 59.2547C152.985 59.2867 152.992 59.321 152.992 59.3556C152.992 59.3903 152.985 59.4246 152.972 59.4566C152.958 59.4886 152.939 59.5176 152.914 59.542C152.889 59.5664 152.86 59.5857 152.828 59.5987C152.796 59.6118 152.761 59.6183 152.727 59.618Z" fill="white"/>
<path d="M152.727 61.7172H148.518C148.483 61.7175 148.449 61.711 148.417 61.6979C148.385 61.6849 148.355 61.6656 148.331 61.6412C148.306 61.6168 148.286 61.5878 148.273 61.5558C148.26 61.5238 148.253 61.4895 148.253 61.4548C148.253 61.4202 148.26 61.3858 148.273 61.3539C148.286 61.3219 148.306 61.2928 148.331 61.2684C148.355 61.244 148.385 61.2248 148.417 61.2117C148.449 61.1987 148.483 61.1921 148.518 61.1924H152.727C152.761 61.1921 152.796 61.1987 152.828 61.2117C152.86 61.2248 152.889 61.244 152.914 61.2684C152.939 61.2928 152.958 61.3219 152.972 61.3539C152.985 61.3858 152.992 61.4202 152.992 61.4548C152.992 61.4895 152.985 61.5238 152.972 61.5558C152.958 61.5878 152.939 61.6168 152.914 61.6412C152.889 61.6656 152.86 61.6849 152.828 61.6979C152.796 61.711 152.761 61.7175 152.727 61.7172Z" fill="white"/>
<path d="M152.727 63.8164H148.518C148.483 63.8167 148.449 63.8102 148.417 63.7972C148.384 63.7841 148.355 63.7648 148.331 63.7404C148.306 63.716 148.286 63.687 148.273 63.655C148.259 63.623 148.253 63.5887 148.253 63.554C148.253 63.5193 148.259 63.485 148.273 63.453C148.286 63.421 148.306 63.392 148.331 63.3676C148.355 63.3432 148.384 63.3239 148.417 63.3109C148.449 63.2978 148.483 63.2913 148.518 63.2916H152.727C152.761 63.2913 152.796 63.2978 152.828 63.3109C152.86 63.3239 152.89 63.3432 152.914 63.3676C152.939 63.392 152.959 63.421 152.972 63.453C152.985 63.485 152.992 63.5193 152.992 63.554C152.992 63.5887 152.985 63.623 152.972 63.655C152.959 63.687 152.939 63.716 152.914 63.7404C152.89 63.7648 152.86 63.7841 152.828 63.7972C152.796 63.8102 152.761 63.8167 152.727 63.8164Z" fill="white"/>
<path d="M65.471 78.6038H60.4708C60.1957 78.6036 59.93 78.5045 59.7224 78.3245C59.5148 78.1446 59.3792 77.8959 59.3406 77.6243C59.0319 75.3578 59.0319 73.0601 59.3406 70.7937C59.3788 70.5253 59.5116 70.2793 59.7152 70.0998C59.9188 69.9203 60.1799 69.8191 60.4516 69.8143C62.0248 69.1108 63.7191 69.1109 65.4882 69.8142C65.653 69.8164 65.8153 69.8545 65.9637 69.9259C66.1121 69.9973 66.2431 70.1003 66.3474 70.2275C66.4561 70.3599 66.5339 70.5148 66.5752 70.681C66.6164 70.8471 66.62 71.0203 66.5857 71.188C66.1841 73.1821 66.1841 75.2359 66.5857 77.2299C66.62 77.3976 66.6164 77.5709 66.5752 77.737C66.5339 77.9032 66.4561 78.058 66.3474 78.1904C66.2412 78.3199 66.1075 78.4242 65.9559 78.4958C65.8043 78.5673 65.6387 78.6042 65.471 78.6038Z" fill="white"/>
<path d="M64.9473 72.4184H60.7388C60.704 72.4188 60.6696 72.4122 60.6374 72.3991C60.6052 72.3861 60.5759 72.3668 60.5513 72.3424C60.5266 72.318 60.507 72.289 60.4937 72.257C60.4803 72.225 60.4734 72.1907 60.4734 72.1561C60.4734 72.1214 60.4803 72.0871 60.4937 72.0551C60.507 72.0231 60.5266 71.9941 60.5513 71.9697C60.5759 71.9453 60.6052 71.926 60.6374 71.913C60.6696 71.8999 60.704 71.8933 60.7388 71.8937H64.9473C64.9821 71.8933 65.0165 71.8999 65.0487 71.913C65.0809 71.926 65.1102 71.9453 65.1348 71.9697C65.1595 71.9941 65.1791 72.0231 65.1925 72.0551C65.2058 72.0871 65.2127 72.1214 65.2127 72.1561C65.2127 72.1907 65.2058 72.225 65.1925 72.257C65.1791 72.289 65.1595 72.318 65.1348 72.3424C65.1102 72.3668 65.0809 72.3861 65.0487 72.3991C65.0165 72.4122 64.9821 72.4188 64.9473 72.4184Z" fill="white"/>
<path d="M64.9473 74.5176H60.7388C60.704 74.5179 60.6696 74.5114 60.6374 74.4983C60.6052 74.4853 60.5759 74.466 60.5513 74.4416C60.5266 74.4172 60.507 74.3882 60.4937 74.3562C60.4803 74.3242 60.4734 74.2899 60.4734 74.2552C60.4734 74.2206 60.4803 74.1863 60.4937 74.1543C60.507 74.1223 60.5266 74.0933 60.5513 74.0689C60.5759 74.0445 60.6052 74.0252 60.6374 74.0121C60.6696 73.9991 60.704 73.9925 60.7388 73.9928H64.9473C64.9821 73.9925 65.0165 73.9991 65.0487 74.0121C65.0809 74.0252 65.1102 74.0445 65.1348 74.0689C65.1595 74.0933 65.1791 74.1223 65.1925 74.1543C65.2058 74.1863 65.2127 74.2206 65.2127 74.2552C65.2127 74.2899 65.2058 74.3242 65.1925 74.3562C65.1791 74.3882 65.1595 74.4172 65.1348 74.4416C65.1102 74.466 65.0809 74.4853 65.0487 74.4983C65.0165 74.5114 64.9821 74.5179 64.9473 74.5176Z" fill="white"/>
<path d="M64.9473 76.6168H60.7388C60.704 76.6172 60.6695 76.6106 60.6373 76.5976C60.6051 76.5845 60.5758 76.5653 60.5512 76.5409C60.5265 76.5165 60.5069 76.4874 60.4935 76.4554C60.4801 76.4234 60.4732 76.3891 60.4732 76.3544C60.4732 76.3198 60.4801 76.2854 60.4935 76.2534C60.5069 76.2215 60.5265 76.1924 60.5512 76.168C60.5758 76.1436 60.6051 76.1243 60.6373 76.1113C60.6695 76.0983 60.704 76.0917 60.7388 76.092H64.9473C64.9821 76.0917 65.0166 76.0983 65.0488 76.1113C65.081 76.1243 65.1102 76.1436 65.1349 76.168C65.1596 76.1924 65.1792 76.2215 65.1926 76.2534C65.206 76.2854 65.2129 76.3198 65.2129 76.3544C65.2129 76.3891 65.206 76.4234 65.1926 76.4554C65.1792 76.4874 65.1596 76.5165 65.1349 76.5409C65.1102 76.5653 65.081 76.5845 65.0488 76.5976C65.0166 76.6106 64.9821 76.6172 64.9473 76.6168Z" fill="white"/>
<path d="M178.92 106.556C179.162 106.413 179.37 106.22 179.529 105.988C179.688 105.757 179.794 105.494 179.839 105.217C179.885 104.94 179.869 104.657 179.794 104.387C179.718 104.117 179.584 103.867 179.4 103.655L182.834 97.7637L179.29 97.9629L176.572 103.527C176.235 103.857 176.031 104.3 175.998 104.771C175.966 105.242 176.108 105.708 176.398 106.082C176.687 106.455 177.104 106.71 177.569 106.797C178.034 106.884 178.515 106.799 178.92 106.556Z" fill="#FFB6B6"/>
<path d="M180.306 102.225L177.133 99.7593L182.899 88.6129L180.738 74.4184C180.631 73.7167 180.681 73.0002 180.883 72.3198C181.085 71.6393 181.435 71.0116 181.907 70.4811C182.38 69.9506 182.964 69.5304 183.617 69.2504C184.271 68.9703 184.978 68.8372 185.689 68.8606C186.973 68.9042 188.188 69.4542 189.066 70.3899C189.944 71.3257 190.414 72.5707 190.373 73.8519L189.84 90.0143L180.306 102.225Z" fill="#CCCCCC"/>
<path d="M26.9419 99.1794C27.1418 98.979 27.2952 98.7373 27.3913 98.4714C27.4874 98.2055 27.5239 97.9218 27.4982 97.6403C27.4725 97.3588 27.3852 97.0863 27.2425 96.8421C27.0999 96.5979 26.9053 96.3878 26.6724 96.2268L29.7584 80.936L26.3505 82.0275L23.8803 96.8175C23.635 97.2257 23.5483 97.7094 23.6366 98.1771C23.7249 98.6448 23.9822 99.0639 24.3596 99.355C24.7369 99.6461 25.2082 99.7891 25.6842 99.7567C26.1601 99.7243 26.6077 99.5189 26.9419 99.1794Z" fill="#9E616A"/>
<path d="M31.4986 66.8281L29.3841 65.2359C29.3841 65.2359 27.5189 65.1042 27.1885 68.4598C26.8582 71.8154 26.1798 78.355 26.1798 78.355L22.9443 93.3043L27.4231 94.2849L30.8886 78.152L32.9675 73.3611L31.4986 66.8281Z" fill="#CCCCCC"/>
<path d="M28.0127 91.2388L39.9277 91.0407L40.9206 82.9185H28.0127V91.2388Z" fill="#9E616A"/>
<path d="M38.7361 141.22H41.4867L42.7952 130.636L38.7355 130.636L38.7361 141.22Z" fill="#9E616A"/>
<path d="M21.5039 141.474L24.2545 141.455L25.4887 130.862L21.9113 131.681L21.5039 141.474Z" fill="#9E616A"/>
<path d="M30.1069 75.924L29.4837 77.5403L29.6082 79.1569L41.806 83.3715L41.2009 76.2969L39.8297 74.6803L30.1069 75.924Z" fill="#FFB6B6"/>
<path d="M35.3399 61.3767C37.7459 61.3767 39.6964 59.4309 39.6964 57.0307C39.6964 54.6304 37.7459 52.6847 35.3399 52.6847C32.9338 52.6847 30.9833 54.6304 30.9833 57.0307C30.9833 59.4309 32.9338 61.3767 35.3399 61.3767Z" fill="#9E616A"/>
<path d="M38.0538 139.866L42.402 139.607V141.466L46.536 144.314C46.7401 144.455 46.8939 144.657 46.9748 144.891C47.0558 145.125 47.0596 145.378 46.9857 145.615C46.9119 145.851 46.7643 146.058 46.5644 146.204C46.3645 146.351 46.1229 146.43 45.8747 146.43H40.6981L39.8058 144.592L39.4574 146.43H37.5056L38.0538 139.866Z" fill="#2F2E41"/>
<path d="M20.563 140.127L24.9092 139.838L24.9223 141.696L29.0761 144.515C29.2813 144.654 29.4365 144.855 29.519 145.089C29.6016 145.322 29.6072 145.576 29.535 145.813C29.4628 146.049 29.3166 146.257 29.1178 146.405C28.9189 146.553 28.6778 146.634 28.4297 146.636L23.2532 146.672L22.348 144.84L22.0125 146.681L20.0608 146.694L20.563 140.127Z" fill="#2F2E41"/>
<path d="M20.648 133.359L22.6509 117.388L25.0339 100.55C23.2888 97.3166 27.2183 87.2769 27.2183 87.2769L27.773 87.3034L40.3275 89.6661L40.3248 89.6541C42.8926 96.6407 43.7433 100.092 43.6026 107.532L43.0967 134.278H43.2554C43.5188 134.278 43.7713 134.382 43.9575 134.568C44.1437 134.754 44.2483 135.006 44.2483 135.269C44.2483 135.531 44.1437 135.783 43.9575 135.969C43.7713 136.155 43.5188 136.259 43.2554 136.259H38.2909C38.1603 136.259 38.031 136.234 37.9104 136.184C37.7897 136.134 37.68 136.062 37.5877 135.97C37.4953 135.878 37.422 135.768 37.372 135.648C37.322 135.528 37.2962 135.399 37.2962 135.269C37.2962 135.138 37.322 135.009 37.372 134.889C37.422 134.769 37.4953 134.66 37.5877 134.568C37.68 134.476 37.7897 134.403 37.9104 134.353C38.031 134.303 38.1603 134.278 38.2909 134.278H38.4189L33.862 102.432L29.9985 115.803L25.6297 133.236C27.2183 132.84 26.9716 133.758 26.9716 134.278C26.9716 134.541 26.867 134.793 26.6808 134.978C26.4946 135.164 26.2421 135.269 25.9787 135.269H21.0142C20.7833 135.269 20.5595 135.189 20.3815 135.042C20.2035 134.895 20.0823 134.691 20.0389 134.465C19.9955 134.239 20.0326 134.004 20.1438 133.803C20.255 133.601 20.4333 133.444 20.648 133.359Z" fill="#2F2E41"/>
<path d="M26.2408 87.7969L26.6379 83.8349C26.6792 83.6732 26.7707 83.5288 26.8993 83.4222C27.0279 83.3156 27.187 83.2524 27.3539 83.2416C27.5193 81.3542 28.2156 73.212 28.2572 72.8569L28.2588 72.8419L28.5754 66.095C28.5869 65.85 28.6885 65.6177 28.8607 65.4427C29.033 65.2676 29.2639 65.162 29.5092 65.146L31.1815 65.037C31.2044 65.0362 31.2261 65.0266 31.2421 65.0101C31.2581 64.9937 31.267 64.9717 31.267 64.9488C31.267 64.7645 31.3033 64.5821 31.374 64.4119C31.4447 64.2417 31.5483 64.0871 31.6788 63.9568C31.8094 63.8265 31.9644 63.7232 32.1351 63.6527C32.3057 63.5822 32.4885 63.5459 32.6732 63.5459H37.6241C37.9448 63.5461 38.2544 63.6629 38.4948 63.8746C38.7352 64.0863 38.89 64.3783 38.9299 64.6957C38.9321 64.7175 38.9425 64.7377 38.959 64.7523C38.9755 64.7668 38.9969 64.7746 39.0189 64.7741C39.5814 64.7626 40.1301 64.9526 40.5642 65.3097C40.9984 65.6667 41.2898 66.1672 41.3857 66.7204C42.0625 70.6489 43.419 79.5652 42.7483 84.5222C42.5149 86.2478 43.0181 84.881 43.1064 86.3248C43.1152 86.4644 43.0963 86.6042 43.0508 86.7365C43.0052 86.8687 42.934 86.9907 42.8412 87.0954C43.0313 87.1643 43.1864 87.3052 43.273 87.4875C43.3595 87.6699 43.3705 87.8789 43.3035 88.0693L43.3905 88.0478C43.365 88.1487 43.3199 88.2436 43.2576 88.3271C43.1953 88.4106 43.1172 88.481 43.0276 88.5344C42.9381 88.5877 42.8389 88.623 42.7357 88.6381C42.6325 88.6532 42.5273 88.6479 42.4261 88.6225L29.4734 90.3733C29.048 90.2663 26.1335 88.2213 26.2408 87.7969Z" fill="#CCCCCC"/>
<path d="M60.8523 71.6882C60.7711 71.959 60.6314 72.2088 60.4431 72.4199C60.2547 72.6311 60.0222 72.7985 59.7619 72.9103C59.5017 73.0221 59.22 73.0756 58.9368 73.0671C58.6536 73.0586 58.3757 72.9882 58.1227 72.861L53.1152 77.4198L52.4503 73.9114L57.3106 70.1314C57.5531 69.7215 57.9378 69.4147 58.3919 69.2689C58.8461 69.1231 59.338 69.1486 59.7746 69.3405C60.2111 69.5324 60.5619 69.8774 60.7606 70.3101C60.9592 70.7427 60.9918 71.2331 60.8523 71.6882Z" fill="#9E616A"/>
<path d="M43.4234 68.2036C43.4234 68.2036 41.6774 64.2672 39.4721 65.0497C37.2668 65.8321 38.4054 69.6514 38.4054 69.6514L46.6908 82.106C46.6908 82.106 58.6414 74.4585 57.1882 74.4045C55.735 74.3505 55.3003 71.7138 55.3003 71.7138L48.9842 74.8621L48.7705 73.7413L48.428 74.083L47.5441 73.389L43.4234 68.2036Z" fill="#CCCCCC"/>
<path d="M186.256 63.8793C189.616 63.8793 192.339 61.1628 192.339 57.8117C192.339 54.4606 189.616 51.7441 186.256 51.7441C182.897 51.7441 180.174 54.4606 180.174 57.8117C180.174 61.1628 182.897 63.8793 186.256 63.8793Z" fill="#FFB6B6"/>
<path d="M205.777 66.7401C205.075 67.7324 204.05 68.4519 202.877 68.7766C202.408 68.916 201.923 68.9981 201.434 69.0212C201.373 68.4692 201.229 67.9298 201.005 67.4215C201.028 67.9625 200.952 68.5032 200.782 69.0174C200.047 68.9759 199.329 68.7839 198.672 68.4534C198.026 68.1295 197.465 67.6599 197.034 67.082C196.602 66.5042 196.311 65.8338 196.184 65.1242C195.926 63.4646 196.681 61.8349 196.953 60.1778C197.227 58.5207 196.713 56.4218 195.087 55.9863C193.849 55.6544 193.987 55.7979 192.958 56.5603C194.029 58.1399 190.074 63.9282 188.455 63.4234C187.54 63.138 186.954 62.3004 186.765 62.3004C185.493 64.4866 187.888 68.1702 185.474 68.9351L185.673 68.7367C187.13 66.9485 184.084 63.1639 185.542 61.3757C185.948 60.8753 186.381 60.2826 186.261 59.65C186.147 59.0485 185.19 58.7303 184.91 59.2244C185.414 58.0727 184.67 56.5354 183.438 56.2396C182.343 55.9763 182.363 56.3008 181.265 56.4418C181.193 55.9683 181.059 55.5063 180.866 55.0679C180.886 55.5403 180.831 56.0129 180.702 56.468C180.314 56.4604 179.939 56.3253 179.636 56.0836C178.741 55.3636 178.922 53.8513 179.721 53.0265C180.522 52.2016 181.711 51.9047 182.846 51.7125C183.176 49.4214 189.512 49.1824 190.352 51.4717C190.71 49.7621 192.855 48.8749 194.523 49.4053C196.19 49.9356 197.347 51.4891 197.956 53.1263C198.566 54.7622 198.736 56.5229 199.111 58.2274C199.486 59.932 200.12 61.6677 201.426 62.8294C202.732 63.9899 204.86 64.3742 206.236 63.2961C206.436 63.8658 206.499 64.4745 206.419 65.0728C206.339 65.6712 206.119 66.2424 205.777 66.7401Z" fill="#2F2E41"/>
<path d="M262.841 80.5866L261.989 84.8486C261.925 85.1744 261.858 85.5061 261.785 85.8348C261.073 85.6876 260.336 85.7288 259.645 85.9541C260.193 86.7354 260.684 87.555 261.114 88.4065C260.578 90.056 259.79 91.5804 258.472 92.683C257.592 93.403 256.54 93.8846 255.419 94.0813C254.298 94.278 253.145 94.1832 252.071 93.806L252.109 93.6372C250.692 90.8939 251.462 87.4349 253.223 84.901C254.121 83.6509 255.186 82.5284 256.387 81.5641C257.577 80.575 258.863 79.6877 260.138 78.812C260.424 78.6157 260.762 78.5089 261.109 78.5054C261.457 78.5018 261.797 78.6017 262.088 78.7922C262.378 78.9827 262.604 79.2552 262.739 79.5748C262.873 79.8944 262.908 80.2467 262.841 80.5866Z" fill="#E4E4E4"/>
<path d="M252.374 104.061C252.016 101.456 251.647 98.8185 251.899 96.1859C252.122 93.8481 252.837 91.5647 254.293 89.6923C255.065 88.7004 256.006 87.8505 257.071 87.1808C257.349 87.0063 257.604 87.4453 257.328 87.6193C255.484 88.7815 254.059 90.4976 253.256 92.5204C252.369 94.7697 252.227 97.2219 252.381 99.6112C252.474 101.056 252.669 102.491 252.867 103.926C252.883 103.99 252.873 104.059 252.84 104.117C252.807 104.175 252.753 104.218 252.689 104.238C252.624 104.256 252.554 104.247 252.496 104.213C252.437 104.18 252.394 104.125 252.376 104.061L252.374 104.061Z" fill="#F2F2F2"/>
<path d="M272.653 146.911L0.347237 147C0.255319 147 0.167259 146.963 0.102357 146.898C0.0374552 146.833 0.00100708 146.745 0.00100708 146.654C0.00100708 146.562 0.0374552 146.474 0.102357 146.409C0.167259 146.344 0.255319 146.307 0.347237 146.307L272.653 146.218C272.745 146.218 272.833 146.255 272.898 146.32C272.963 146.385 272.999 146.473 272.999 146.564C272.999 146.656 272.963 146.744 272.898 146.809C272.833 146.874 272.745 146.91 272.653 146.911Z" fill="#CACACA"/>
<path d="M30.2124 54.3696C29.5442 54.6895 28.7963 54.2083 28.2194 53.7314L28.4258 53.9092C27.4063 54.8987 26.9296 56.3223 26.6967 57.7238C26.4635 59.1237 26.4375 60.5554 26.144 61.9454C25.8502 63.334 25.2408 64.7291 24.1026 65.5795C22.5777 66.7186 20.4745 66.6455 18.6031 66.2963C18.5782 66.2913 18.555 66.2875 18.53 66.2824C19.0336 64.8321 19.2382 63.2953 19.1318 61.7641C18.6302 63.2985 17.7762 64.6948 16.638 65.8417C15.3973 65.5011 14.1862 65.0609 13.0167 64.5254C12.2599 64.1779 11.4451 63.7028 11.2351 62.8983C11.0246 62.1 11.5135 61.2625 12.1673 60.7584C12.8211 60.2543 13.6235 59.9912 14.3683 59.6321C15.1119 59.2746 15.8477 58.765 16.1454 57.9956C16.8321 56.2256 14.8759 54.1946 15.6383 52.4548C16.0142 51.5992 16.9351 51.1338 17.8006 50.775C19.1219 50.2288 20.4787 49.7722 21.8617 49.4085C23.0758 49.0891 24.3435 48.8408 25.5802 49.0502C26.817 49.2596 28.0287 50.0101 28.4739 51.1818C29.2166 51.4322 30.0051 51.7145 30.4818 52.3381C30.9582 52.9603 30.9198 54.0315 30.2124 54.3696Z" fill="#2F2E41"/>
<path d="M36.1576 52.3186C34.2461 50.8133 32.7006 51.0703 31.5084 52.0055C31.308 51.7831 30.455 52.395 30.1662 52.3071L29.1216 54.2633C28.5841 55.2095 28.3636 56.1754 28.4505 56.719C27.4618 59.485 29.8064 61.3529 32.5792 62.3391C33.6856 62.7354 34.8928 62.7529 36.0102 62.3887L36.0443 61.9174L36.2542 62.3037C36.2542 62.3037 38.7891 67.5103 39.3881 67.7442C39.0246 66.8036 38.066 62.3335 37.7984 61.4017C37.4315 60.1339 37.6822 58.1198 37.8978 56.8849C38.0322 56.1235 38.0392 55.3453 37.9186 54.5816L37.9133 54.5482L38.5063 55.7426L39.837 54.9078C39.3285 53.4302 39.3183 51.6624 36.1576 52.3186Z" fill="#2F2E41"/>
</svg>
