<?xml version="1.0" encoding="utf-8"?>
<!-- Generator: Adobe Illustrator 28.0.0, SVG Export Plug-In . SVG Version: 6.00 Build 0)  -->
<svg version="1.1" id="Layer_1" xmlns="http://www.w3.org/2000/svg" xmlns:xlink="http://www.w3.org/1999/xlink" x="0px" y="0px"
	 viewBox="0 0 316 70.6" style="enable-background:new 0 0 316 70.6;" xml:space="preserve">
<style type="text/css">
	.st0{fill:#231F20;}
</style>
<g id="Layer_b">
	<path class="st0" d="M275.8,23.7c5.6-3.5,10.8-5.3,16.6-4.9c17.7,1.3,28.7,20.4,21.1,36.7c-5.6,12.1-18.6,17.9-30.4,13.7
		c-2.2-0.8-3-1.6-1.7-3.7c0.3-0.4,0.4-0.9,0.5-1.4c1.2-4,2.4-6.6,8-5.8c7.1,1.1,13.5-5.4,14-12.6c0.5-7.3-4.8-14-11.8-15
		c-7.7-1-14.7,3.5-15.9,10.9c-1.2,7.3-0.3,14.7-0.5,22c-0.1,6.1,0.7,5.4-5.4,5.4c-7.3,0-6.5,0.9-6.5-6.3c0-19.6,0-39.2-0.1-58.8
		c0-3,0.9-3.8,3.8-3.8c8.1,0.1,8.1-0.1,8.1,8C275.9,13.1,275.9,18,275.8,23.7L275.8,23.7z"/>
</g>
<g id="Layer_o">
	<path class="st0" d="M258.5,44.8c-0.1,14.1-11.7,25.7-25.8,25.6c-14.4,0-26.2-11.8-26-25.9c0.2-14.5,11.9-26,26.5-25.8
		C247.2,18.9,258.6,30.6,258.5,44.8z M232.8,58.6c7.5,0,14-6.4,14-13.7c0-8.1-6.1-14.2-14.2-14.2c-7.8,0-13.9,6.2-13.9,14.1
		C218.6,52.4,224.9,58.6,232.8,58.6L232.8,58.6z"/>
</g>
<g id="Layer_J">
	<path class="st0" d="M188.8,22c0-6.2,0.1-12.5,0-18.7c-0.1-2.3,0.5-3.3,3.1-3.3c8.8-0.1,8.9-0.2,8.8,8.5
		c-0.2,12.2,0.7,24.5-0.4,36.7c-1.8,19.6-25.1,31.4-42.1,21.6c-7.5-4.3-7.4-4.3-1.5-10.5c2-2.1,3.3-2.5,6-0.7
		c10.7,7.1,24.8,0.3,25.8-12.6C189.1,36.1,188.8,29.1,188.8,22C188.9,22.1,188.8,22.1,188.8,22L188.8,22z"/>
</g>
<g id="Layer_i">
	<path class="st0" d="M148.1,44.3c0,7.1-0.1,14.2,0,21.3c0,2.4-0.5,3.6-3.3,3.6c-8.7,0.1-8.7,0.2-8.7-8.5c0-12.5,0.1-25-0.1-37.4
		c0-2.6,0.7-3.4,3.4-3.4c8.6,0,8.6-0.1,8.6,8.3C148.1,33.6,148.1,39,148.1,44.3L148.1,44.3z"/>
	<path class="st0" d="M136.2,6.2c0-5.8,0-5.8,6.7-5.8c6.4,0.1,5.2-0.6,5.2,6.6c0,6.2,0.9,5.3-7.3,5.3
		C135.3,12.3,136.3,12.8,136.2,6.2L136.2,6.2z"/>
</g>
<g id="Layer_a">
	<path class="st0" d="M117.5,23.5c-0.4-3.3,1.1-3.7,3.5-3.7c8.5,0,8.5-0.1,8.5,8.5c0,12.4-0.1,24.7,0.1,37c0,2.8-0.5,3.9-3.6,3.9
		c-8.4-0.1-8.4,0.1-8.4-8.2c0-5.6,0.1-11.2-0.1-16.8c-0.2-8.1-6.7-14-14.7-13.7c-7.9,0.3-13.7,6.8-13.3,14.6c0.4,8,7,14.1,15,13.1
		c3.6-0.5,4.9,0.4,6.1,3.7c2.6,7.1,2.7,7.3-5,8.1C95,71.2,86.5,67.4,81.2,58.2c-5.5-9.5-5.2-19.4,0.9-28.7
		c5.7-8.7,14.2-11.7,24.3-10.5C110.3,19.4,113.6,21.2,117.5,23.5z"/>
</g>
<g id="Layer__r">
	<path class="st0" d="M62.7,23.3c3.6-2.1,6.7-3.8,10.2-4.4c2.6-0.5,4.2-0.1,3.8,3.1c-0.1,0.6-0.1,1.2,0,1.9c0.5,4-0.1,6.7-5.1,7.7
		c-5.3,1.1-8.8,6.9-8.9,12.5c-0.1,7.2-0.1,14.5,0,21.7c0,2.6-0.7,3.4-3.4,3.5c-8.6,0.1-8.6,0.2-8.6-8.5c0-12.5,0.1-24.9-0.1-37.4
		c0-2.9,0.9-3.8,3.6-3.5c1.7,0.2,3.5,0.1,5.2,0C61.7,19.7,63.1,20.4,62.7,23.3L62.7,23.3z"/>
</g>
<g id="Layer_F">
	<path class="st0" d="M0.1,34.5C0.1,24.3,0.1,14,0,3.8c0-2.5,0.7-3.5,3.3-3.4c13.4,0.1,26.7,0.1,40.1,0c2,0,2.8,0.4,2.8,2.6
		c0.2,9.3,0.3,9.3-9.1,9.3c-7.5,0-15,0.1-22.5,0c-2.2,0-3.2,0.5-3,2.9c0.2,3.6,0.2,7.2,0,10.9c-0.1,2.4,0.8,2.9,3,2.9
		c6.6-0.1,13.3,0,19.9-0.1c2,0,3,0.5,3.6,2.7c2.3,9.2,2.4,9.2-7,9.2c-5.5,0-11,0.1-16.5,0c-2.3-0.1-3,0.8-2.9,3
		c0.1,7.5,0,15,0.1,22.5c0,2.2-0.6,3.1-2.9,3.1C-2,69,0.2,70.6,0.1,60.7C-0.1,52,0.1,43.2,0.1,34.5L0.1,34.5z"/>
</g>
</svg>
