<?xml version="1.0" encoding="UTF-8"?>
<svg xmlns="http://www.w3.org/2000/svg" viewBox="0 0 315.98 70.63">
  <defs>
    <style>
      .cls-1 {
        fill: #fff;
        stroke-width: 0px;
      }
    </style>
  </defs>
  <g id="Layer_b">
    <path class="cls-1" d="m275.84,23.73c5.58-3.49,10.8-5.28,16.62-4.86,17.7,1.29,28.67,20.37,21.08,36.71-5.62,12.09-18.61,17.88-30.38,13.69-2.16-.77-2.99-1.61-1.68-3.72.26-.41.38-.92.52-1.4,1.16-4.01,2.43-6.62,8.01-5.78,7.14,1.08,13.49-5.39,14.01-12.59.53-7.27-4.8-14.02-11.81-14.95-7.73-1.03-14.67,3.48-15.88,10.87-1.19,7.28-.3,14.69-.46,22.04-.14,6.06.73,5.43-5.37,5.42-7.3-.01-6.45.88-6.46-6.29-.04-19.59.05-39.18-.08-58.78-.02-2.97.87-3.81,3.8-3.79,8.11.06,8.11-.06,8.11,7.98,0,4.84,0,9.69,0,15.43Z"/>
  </g>
  <g id="Layer_o">
    <path class="cls-1" d="m258.54,44.78c-.08,14.14-11.69,25.66-25.83,25.63-14.36-.03-26.18-11.78-26.02-25.86.17-14.54,11.89-25.98,26.47-25.82,14.04.15,25.46,11.87,25.38,26.05Zm-25.77,13.79c7.5,0,14.01-6.4,13.97-13.74-.04-8.1-6.11-14.16-14.21-14.2-7.78-.04-13.9,6.16-13.89,14.07,0,7.73,6.26,13.88,14.14,13.88Z"/>
  </g>
  <g id="Layer_J">
    <path class="cls-1" d="m188.82,22.05c0-6.24.08-12.48-.04-18.71-.05-2.33.53-3.26,3.09-3.3,8.8-.14,8.89-.24,8.78,8.46-.16,12.22.7,24.46-.44,36.65-1.84,19.59-25.07,31.44-42.09,21.62-7.54-4.35-7.45-4.26-1.47-10.51,2.04-2.14,3.32-2.48,6.01-.71,10.73,7.07,24.78.28,25.83-12.56.57-6.94.3-13.87.3-20.85.08,0-.04-.08.04-.08Z"/>
  </g>
  <g id="Layer_i">
    <path class="cls-1" d="m148.12,44.35c0,7.11-.08,14.22.04,21.33.04,2.44-.49,3.55-3.27,3.59-8.72.12-8.72.23-8.72-8.48,0-12.47.07-24.95-.05-37.42-.03-2.6.74-3.39,3.36-3.4,8.63-.04,8.63-.14,8.64,8.29,0,5.36,0,10.73,0,16.09Z"/>
    <path class="cls-1" d="m136.18,6.18c0-5.81,0-5.85,6.7-5.79,6.43.06,5.18-.59,5.21,6.59.03,6.18.85,5.27-7.33,5.29-5.44.02-4.48.55-4.58-6.1Z"/>
  </g>
  <g id="Layer_a">
    <path class="cls-1" d="m117.46,23.54c-.37-3.28,1.12-3.74,3.53-3.74,8.5,0,8.5-.09,8.5,8.54,0,12.35-.07,24.7.05,37.05.03,2.76-.46,3.95-3.62,3.9-8.37-.12-8.36.05-8.37-8.19,0-5.61.1-11.23-.07-16.84-.25-8.13-6.65-13.99-14.67-13.66-7.86.33-13.72,6.78-13.3,14.63.43,8.02,6.99,14.13,15.01,13.13,3.63-.45,4.9.44,6.1,3.7,2.61,7.09,2.7,7.26-5.04,8.06-10.6,1.1-19.06-2.75-24.34-11.94-5.47-9.52-5.2-19.42.91-28.66,5.73-8.67,14.24-11.68,24.35-10.52,3.77.43,7.09,2.2,10.96,4.54Z"/>
  </g>
  <g id="Layer__r" data-name="Layer _r">
    <path class="cls-1" d="m62.69,23.32c3.64-2.13,6.67-3.8,10.19-4.41,2.59-.45,4.21-.07,3.77,3.06-.09.61-.08,1.25,0,1.87.51,4.04-.06,6.71-5.11,7.72-5.26,1.06-8.79,6.86-8.87,12.54-.11,7.23-.12,14.46.02,21.69.05,2.58-.72,3.45-3.37,3.47-8.61.06-8.61.16-8.61-8.55,0-12.46.1-24.93-.07-37.39-.04-2.89.86-3.77,3.59-3.49,1.73.18,3.5.15,5.23.01,2.29-.18,3.65.51,3.24,3.48Z"/>
  </g>
  <g id="Layer_F">
    <path class="cls-1" d="m.06,34.51c0-10.24.07-20.47-.05-30.71C-.02,1.25.67.32,3.35.35c13.37.11,26.74.08,40.11.02,1.95,0,2.8.37,2.85,2.64.19,9.27.29,9.27-9.08,9.27-7.5,0-15,.06-22.49-.04-2.18-.03-3.16.52-3.04,2.92.19,3.61.21,7.25,0,10.85-.15,2.44.81,2.92,3,2.88,6.62-.12,13.25,0,19.87-.08,2.02-.02,3.04.45,3.6,2.7,2.31,9.25,2.42,9.22-7.04,9.22-5.5,0-11,.09-16.5-.05-2.33-.06-2.97.78-2.93,3.02.12,7.49-.02,14.98.09,22.47.03,2.22-.57,3.1-2.92,3.05-10.85-.25-8.62,1.38-8.78-8.5-.14-8.74-.03-17.48-.03-26.22Z"/>
  </g>
</svg>